<svg xmlns="http://www.w3.org/2000/svg" width="505" height="286.825" viewBox="0 0 505 286.825">
  <g id="Grupo_1108094" data-name="Grupo 1108094" transform="translate(6256.144 5126.628)">
    <g id="Grupo_1108070" data-name="Grupo 1108070" transform="translate(-6256.144 -5126.628)">
      <path id="Trazado_902892" data-name="Trazado 902892" d="M60.085,324.84a227.4,227.4,0,0,1-7.212-56.975c0-125.367,101.63-227,227-227s227,101.63,227,227a227.408,227.408,0,0,1-7.212,56.975Z" transform="translate(-26.788 -38.404)" fill="#a0b8e8"/>
      <path id="Trazado_902893" data-name="Trazado 902893" d="M688.979,272.958a4.355,4.355,0,1,0,4.355-4.355A4.355,4.355,0,0,0,688.979,272.958Z" transform="translate(-214.64 -105.658)" fill="#a0b8e8"/>
      <path id="Trazado_902894" data-name="Trazado 902894" d="M656.077,156.822a2.466,2.466,0,1,0,2.466-2.466A2.466,2.466,0,0,0,656.077,156.822Z" transform="translate(-204.924 -71.919)" fill="#a0b8e8"/>
      <path id="Trazado_902895" data-name="Trazado 902895" d="M62.972,231.515a2.466,2.466,0,1,0,2.466-2.466A2.466,2.466,0,0,0,62.972,231.515Z" transform="translate(-29.77 -93.977)" fill="#a0b8e8"/>
      <path id="Trazado_902896" data-name="Trazado 902896" d="M702.669,420.26a2.466,2.466,0,1,0,2.466-2.466A2.466,2.466,0,0,0,702.669,420.26Z" transform="translate(-218.683 -149.717)" fill="#a0b8e8"/>
      <path id="Trazado_902897" data-name="Trazado 902897" d="M709.234,358.018a2.466,2.466,0,1,0,2.466-2.466A2.466,2.466,0,0,0,709.234,358.018Z" transform="translate(-220.622 -131.336)" fill="#a0b8e8"/>
      <circle id="Elipse_12260" data-name="Elipse 12260" cx="2.466" cy="2.466" r="2.466" transform="translate(388.873 31.028)" fill="#a0b8e8"/>
      <path id="Trazado_902898" data-name="Trazado 902898" d="M697.839,297.078a2.466,2.466,0,1,0,2.466-2.466A2.466,2.466,0,0,0,697.839,297.078Z" transform="translate(-217.257 -113.339)" fill="#a0b8e8"/>
      <path id="Trazado_902899" data-name="Trazado 902899" d="M257.463,48.541a2.466,2.466,0,1,0,2.466-2.466A2.466,2.466,0,0,0,257.463,48.541Z" transform="translate(-87.206 -39.942)" fill="#a0b8e8"/>
      <path id="Trazado_902900" data-name="Trazado 902900" d="M143,88.647a2.466,2.466,0,1,0,2.466-2.466A2.466,2.466,0,0,0,143,88.647Z" transform="translate(-53.404 -51.786)" fill="#a0b8e8"/>
      <circle id="Elipse_12261" data-name="Elipse 12261" cx="8.327" cy="8.327" r="8.327" transform="translate(70.1 64.307) rotate(-56.771)" fill="#a0b8e8"/>
      <circle id="Elipse_12262" data-name="Elipse 12262" cx="9.959" cy="9.959" r="9.959" transform="translate(481.058 242.995) rotate(-13.202)" fill="#a0b8e8"/>
      <circle id="Elipse_12263" data-name="Elipse 12263" cx="8.484" cy="8.484" r="8.484" transform="matrix(0.54, -0.841, 0.841, 0.54, 0, 256.926)" fill="#a0b8e8"/>
      <path id="Trazado_902901" data-name="Trazado 902901" d="M36.045,329.915a2.741,2.741,0,1,0,2.741-2.741A2.742,2.742,0,0,0,36.045,329.915Z" transform="translate(-21.818 -122.955)" fill="#a0b8e8"/>
      <path id="Trazado_902902" data-name="Trazado 902902" d="M39.87,423.454a4.377,4.377,0,1,0,4.377-4.377A4.377,4.377,0,0,0,39.87,423.454Z" transform="translate(-22.948 -150.096)" fill="#a0b8e8"/>
      <path id="Trazado_902903" data-name="Trazado 902903" d="M160.75,93.95a4.269,4.269,0,1,0,4.269-4.269A4.269,4.269,0,0,0,160.75,93.95Z" transform="translate(-58.646 -52.82)" fill="#a0b8e8"/>
      <circle id="Elipse_12264" data-name="Elipse 12264" cx="9.434" cy="9.434" r="9.434" transform="translate(363.38 18.816) rotate(-31.151)" fill="#a0b8e8"/>
      <path id="Trazado_902904" data-name="Trazado 902904" d="M466.1,41.672a4.3,4.3,0,1,0,4.3-4.3A4.3,4.3,0,0,0,466.1,41.672Z" transform="translate(-148.82 -37.372)" fill="#a0b8e8"/>
    </g>
    <g id="Grupo_1108074" data-name="Grupo 1108074" transform="translate(-6203.651 -4966.419)">
      <path id="Trazado_902908" data-name="Trazado 902908" d="M190.37,391.16H100.147V268.028a3.308,3.308,0,0,1,3.308-3.308h83.587a3.329,3.329,0,0,1,3.328,3.328Z" transform="translate(-93.241 -264.72)" fill="#1e4b97"/>
      <rect id="Rectángulo_405406" data-name="Rectángulo 405406" width="104.036" height="35.885" transform="translate(0 3.473)" fill="#6d9ee3"/>
      <rect id="Rectángulo_405407" data-name="Rectángulo 405407" width="104.036" height="35.885" transform="translate(0 43.216)" fill="#6d9ee3"/>
      <rect id="Rectángulo_405408" data-name="Rectángulo 405408" width="104.036" height="35.885" transform="translate(0 82.96)" fill="#6d9ee3"/>
      <path id="Trazado_902909" data-name="Trazado 902909" d="M108.27,293.685a3.4,3.4,0,1,1-3.4-3.4A3.4,3.4,0,0,1,108.27,293.685Z" transform="translate(-93.632 -272.27)" fill="#ffce00"/>
      <path id="Trazado_902910" data-name="Trazado 902910" d="M127.229,293.685a3.4,3.4,0,1,1-3.4-3.4A3.4,3.4,0,0,1,127.229,293.685Z" transform="translate(-99.231 -272.27)" fill="#fff"/>
      <path id="Trazado_902911" data-name="Trazado 902911" d="M146.189,293.685a3.4,3.4,0,1,1-3.4-3.4A3.4,3.4,0,0,1,146.189,293.685Z" transform="translate(-104.83 -272.27)" fill="#fff"/>
      <path id="Trazado_902912" data-name="Trazado 902912" d="M108.27,350.084a3.4,3.4,0,1,1-3.4-3.4A3.4,3.4,0,0,1,108.27,350.084Z" transform="translate(-93.632 -288.925)" fill="#ffce00"/>
      <path id="Trazado_902913" data-name="Trazado 902913" d="M127.229,350.084a3.4,3.4,0,1,1-3.4-3.4A3.4,3.4,0,0,1,127.229,350.084Z" transform="translate(-99.231 -288.925)" fill="#fff"/>
      <path id="Trazado_902914" data-name="Trazado 902914" d="M146.189,350.084a3.4,3.4,0,1,1-3.4-3.4A3.4,3.4,0,0,1,146.189,350.084Z" transform="translate(-104.83 -288.925)" fill="#fff"/>
      <circle id="Elipse_12265" data-name="Elipse 12265" cx="3.4" cy="3.4" r="3.4" transform="translate(7.837 97.502)" fill="#ffce00"/>
      <circle id="Elipse_12266" data-name="Elipse 12266" cx="3.4" cy="3.4" r="3.4" transform="translate(21.198 97.502)" fill="#fff"/>
      <path id="Trazado_902915" data-name="Trazado 902915" d="M146.189,406.483a3.4,3.4,0,1,1-3.4-3.4A3.4,3.4,0,0,1,146.189,406.483Z" transform="translate(-104.83 -305.581)" fill="#fff"/>
      <rect id="Rectángulo_405409" data-name="Rectángulo 405409" width="104.036" height="0.352" transform="translate(0 116.383)" fill="#1e4b97"/>
      <rect id="Rectángulo_405410" data-name="Rectángulo 405410" width="104.036" height="0.352" transform="translate(0 76.717)" fill="#1e4b97"/>
      <rect id="Rectángulo_405411" data-name="Rectángulo 405411" width="104.036" height="0.352" transform="translate(0 36.945)" fill="#1e4b97"/>
    </g>
    <g id="Grupo_1108075" data-name="Grupo 1108075" transform="translate(-6138.775 -5076.758)">
      <path id="Trazado_902916" data-name="Trazado 902916" d="M394.1,406.6H328.337l6.343-89.59h53.08Z" transform="translate(-225.505 -169.824)" fill="#495172"/>
      <path id="Trazado_902917" data-name="Trazado 902917" d="M407.322,440.935H296.045a7.667,7.667,0,0,1,7.667-7.667h95.943a7.667,7.667,0,0,1,7.667,7.667Z" transform="translate(-215.969 -204.156)" fill="#495172"/>
      <path id="Trazado_902918" data-name="Trazado 902918" d="M448.311,292.364H187.94a5.529,5.529,0,0,1-5.529-5.529V113.67a5.529,5.529,0,0,1,5.529-5.529H448.311a5.529,5.529,0,0,1,5.529,5.529V286.835A5.529,5.529,0,0,1,448.311,292.364Z" transform="translate(-182.411 -108.141)" fill="#495172"/>
      <rect id="Rectángulo_405412" data-name="Rectángulo 405412" width="244.935" height="153.002" transform="translate(13.247 11.763)" fill="#fff"/>
      <rect id="Rectángulo_405413" data-name="Rectángulo 405413" width="58.212" height="0.352" transform="translate(106.664 184.046)" fill="#091724"/>
      <rect id="Rectángulo_405414" data-name="Rectángulo 405414" width="64.822" height="0.352" transform="translate(103.303 228.935)" fill="#091724"/>
      <path id="Trazado_902919" data-name="Trazado 902919" d="M206.6,354.107a2.7,2.7,0,1,1-2.7-2.7A2.7,2.7,0,0,1,206.6,354.107Z" transform="translate(-187.962 -179.983)" fill="#e05a77"/>
      <path id="Trazado_902920" data-name="Trazado 902920" d="M230.689,351.765a2.343,2.343,0,0,1,0,4.686H218.164a2.343,2.343,0,1,1,0-4.686h12.525m0-.352H218.164a2.7,2.7,0,1,0,0,5.391h12.525a2.7,2.7,0,1,0,0-5.391Z" transform="translate(-192.174 -179.983)" fill="#091724"/>
    </g>
    <g id="Grupo_1108076" data-name="Grupo 1108076" transform="translate(-5955.215 -4878.04)">
      <path id="Trazado_902921" data-name="Trazado 902921" d="M189.619,390.138l-19.357,19.356,18.7,18.7h14.127l-18.7-18.7,19.356-19.356Z" transform="translate(-170.262 -390.138)" fill="#3a1d71"/>
      <path id="Trazado_902922" data-name="Trazado 902922" d="M272.312,390.138H258.185l19.357,19.356-18.7,18.7h14.128l18.7-18.7Z" transform="translate(-196.227 -390.138)" fill="#3a1d71"/>
      <path id="Trazado_902923" data-name="Trazado 902923" d="M221.034,390.138l13.912,38.06h9.708l-13.911-38.06Z" transform="translate(-185.256 -390.138)" fill="#3a1d71"/>
    </g>
    <rect id="Rectángulo_405415" data-name="Rectángulo 405415" width="474.11" height="0.352" transform="translate(-6240.117 -4840.156)" fill="#091724"/>
    <path id="Trazado_902924" data-name="Trazado 902924" d="M437.637,259.577H221.99V69.452a6.444,6.444,0,0,1,6.444-6.444H431.192a6.444,6.444,0,0,1,6.444,6.444V259.577Z" transform="translate(-6332.875 -5171.571)" fill="#1a4684"/>
    <g id="Grupo_1108078" data-name="Grupo 1108078" transform="translate(-6110.885 -5108.563)">
      <path id="Trazado_902925" data-name="Trazado 902925" d="M437.637,76.279V69.452a6.444,6.444,0,0,0-6.444-6.444H228.434a6.444,6.444,0,0,0-6.444,6.444v6.826Z" transform="translate(-221.99 -63.008)" fill="#1e4b97"/>
      <g id="Grupo_1108077" data-name="Grupo 1108077" transform="translate(5.095 4.429)">
        <path id="Trazado_902926" data-name="Trazado 902926" d="M231.426,69.293a2.206,2.206,0,1,0,2.206,2.206A2.206,2.206,0,0,0,231.426,69.293Z" transform="translate(-229.22 -69.293)" fill="#ffce00"/>
        <path id="Trazado_902927" data-name="Trazado 902927" d="M242.217,69.293a2.206,2.206,0,1,0,2.206,2.206A2.206,2.206,0,0,0,242.217,69.293Z" transform="translate(-232.407 -69.293)" fill="#fff"/>
        <circle id="Elipse_12267" data-name="Elipse 12267" cx="2.206" cy="2.206" r="2.206" transform="translate(15.208 0.001)" fill="#fff"/>
      </g>
    </g>
    <g id="Grupo_1108082" data-name="Grupo 1108082" transform="translate(-6097.735 -5076.357)">
      <g id="Grupo_1108080" data-name="Grupo 1108080" transform="translate(0 0)">
        <rect id="Rectángulo_405416" data-name="Rectángulo 405416" width="100.916" height="5.205" fill="#fff"/>
        <rect id="Rectángulo_405417" data-name="Rectángulo 405417" width="44.945" height="5.205" transform="translate(0 14.159)" fill="#ffce00"/>
        <rect id="Rectángulo_405418" data-name="Rectángulo 405418" width="44.945" height="5.205" transform="translate(55.97 14.159)" fill="#fff"/>
        <rect id="Rectángulo_405419" data-name="Rectángulo 405419" width="10.109" height="5.205" transform="translate(36.083 28.317)" fill="#ffce00"/>
        <rect id="Rectángulo_405420" data-name="Rectángulo 405420" width="34.844" height="5.205" transform="translate(53.063 28.317)" fill="#fff"/>
        <rect id="Rectángulo_405421" data-name="Rectángulo 405421" width="48.47" height="5.205" transform="translate(94.778 28.317)" fill="#fff"/>
        <rect id="Rectángulo_405422" data-name="Rectángulo 405422" width="39.229" height="5.205" transform="translate(150.119 28.317)" fill="#fff"/>
        <rect id="Rectángulo_405423" data-name="Rectángulo 405423" width="46.793" height="5.205" transform="translate(17.846 42.475)" fill="#ffce00"/>
        <rect id="Rectángulo_405424" data-name="Rectángulo 405424" width="26.529" height="5.205" transform="translate(71.51 42.475)" fill="#fff"/>
        <rect id="Rectángulo_405425" data-name="Rectángulo 405425" width="60.209" height="5.205" transform="translate(104.91 42.475)" fill="#fff"/>
        <rect id="Rectángulo_405426" data-name="Rectángulo 405426" width="17.358" height="5.205" transform="translate(171.99 42.475)" fill="#fff"/>
        <rect id="Rectángulo_405427" data-name="Rectángulo 405427" width="34.872" height="5.205" transform="translate(0 56.634)" fill="#ffce00"/>
        <rect id="Rectángulo_405428" data-name="Rectángulo 405428" width="13.393" height="5.205" transform="translate(41.743 56.634)" fill="#fff"/>
        <rect id="Rectángulo_405429" data-name="Rectángulo 405429" width="58.112" height="5.205" transform="translate(62.007 56.634)" fill="#fff"/>
        <rect id="Rectángulo_405430" data-name="Rectángulo 405430" width="35.661" height="5.205" transform="translate(126.99 56.634)" fill="#fff"/>
        <rect id="Rectángulo_405431" data-name="Rectángulo 405431" width="39.386" height="5.205" transform="translate(30.004 70.793)" fill="#ffce00"/>
        <rect id="Rectángulo_405432" data-name="Rectángulo 405432" width="19.262" height="5.205" transform="translate(76.262 70.793)" fill="#fff"/>
        <rect id="Rectángulo_405433" data-name="Rectángulo 405433" width="53.221" height="5.205" transform="translate(102.395 70.793)" fill="#fff"/>
        <rect id="Rectángulo_405434" data-name="Rectángulo 405434" width="26.861" height="5.205" transform="translate(162.487 70.793)" fill="#fff"/>
        <rect id="Rectángulo_405435" data-name="Rectángulo 405435" width="21.079" height="5.205" transform="translate(47.193 84.951)" fill="#ffce00"/>
        <rect id="Rectángulo_405436" data-name="Rectángulo 405436" width="46.793" height="5.205" transform="translate(75.143 84.951)" fill="#ffce00"/>
        <rect id="Rectángulo_405437" data-name="Rectángulo 405437" width="60.541" height="5.205" transform="translate(128.807 84.951)" fill="#fff"/>
      </g>
    </g>
    <g id="Grupo_1108085" data-name="Grupo 1108085" transform="translate(-6092.331 -4977.564)">
      <rect id="Rectángulo_405438" data-name="Rectángulo 405438" width="0.352" height="4.658" transform="translate(54.417 34.028)" fill="#fff"/>
      <path id="Trazado_902931" data-name="Trazado 902931" d="M395.247,277.775h-.352v-4.969h-69v4.969h-.352v-5.322h69.706Z" transform="translate(-271.124 -255.859)" fill="#fff"/>
      <path id="Trazado_902932" data-name="Trazado 902932" d="M346.117,308.875h-.352v-4.969h-69v4.969h-.352v-5.322h69.705Z" transform="translate(-256.615 -265.043)" fill="#fff"/>
      <rect id="Rectángulo_405439" data-name="Rectángulo 405439" width="0.352" height="4.658" transform="translate(123.715 34.028)" fill="#fff"/>
      <rect id="Rectángulo_405440" data-name="Rectángulo 405440" width="0.352" height="4.658" transform="translate(89.094 12.112)" fill="#fff"/>
      <path id="Trazado_902933" data-name="Trazado 902933" d="M444.455,308.875H444.1v-4.969h-69v4.969h-.352v-5.322h69.705Z" transform="translate(-285.656 -265.043)" fill="#fff"/>
      <rect id="Rectángulo_405441" data-name="Rectángulo 405441" width="39.834" height="12.112" transform="translate(69.353 0)" fill="#00ffdf"/>
      <g id="Grupo_1108083" data-name="Grupo 1108083" transform="translate(34.677 21.916)">
        <rect id="Rectángulo_405442" data-name="Rectángulo 405442" width="39.834" height="12.112" fill="#00ffdf"/>
        <rect id="Rectángulo_405443" data-name="Rectángulo 405443" width="39.834" height="12.112" transform="translate(69.353)" fill="#00ffdf"/>
      </g>
      <g id="Grupo_1108084" data-name="Grupo 1108084" transform="translate(0 43.831)">
        <rect id="Rectángulo_405444" data-name="Rectángulo 405444" width="39.834" height="12.112" fill="#00ffdf"/>
        <rect id="Rectángulo_405445" data-name="Rectángulo 405445" width="39.834" height="12.112" transform="translate(69.353)" fill="#00ffdf"/>
        <rect id="Rectángulo_405446" data-name="Rectángulo 405446" width="39.834" height="12.112" transform="translate(138.706)" fill="#00ffdf"/>
      </g>
    </g>
    <g id="Grupo_1108090" data-name="Grupo 1108090" transform="translate(-6192.27 -5031.88)">
      <g id="Grupo_1108087" data-name="Grupo 1108087" transform="translate(19.068 5.358)">
        <path id="Trazado_902934" data-name="Trazado 902934" d="M153.773,206.791c-4.969,13.173-15.51,12.959-15.51,12.959s-6.928-5.85-3.971-17.207l3.6.629-2.712-3.4a37.061,37.061,0,0,1,8.793-13.057l2.6,1.27-1.154-2.637a45.533,45.533,0,0,1,8.059-5.921,47.31,47.31,0,0,1,2.4,16.509l-3.468,1.163,3.3,1.295A33.327,33.327,0,0,1,153.773,206.791Z" transform="translate(-133.558 -179.43)" fill="#a2c167"/>
        <rect id="Rectángulo_405447" data-name="Rectángulo 405447" width="39.078" height="0.353" transform="matrix(0.353, -0.936, 0.936, 0.353, 4.545, 40.266)" fill="#64822a"/>
        <rect id="Rectángulo_405448" data-name="Rectángulo 405448" width="0.352" height="9.016" transform="translate(5.774 15.153) rotate(-39.168)" fill="#64822a"/>
        <rect id="Rectángulo_405449" data-name="Rectángulo 405449" width="8.443" height="0.352" transform="translate(7.528 32.603) rotate(-6.736)" fill="#64822a"/>
        <rect id="Rectángulo_405450" data-name="Rectángulo 405450" width="3.989" height="0.352" transform="matrix(0.985, -0.172, 0.172, 0.985, 15.795, 10.658)" fill="#64822a"/>
      </g>
      <g id="Grupo_1108088" data-name="Grupo 1108088" transform="translate(0 0)">
        <path id="Trazado_902935" data-name="Trazado 902935" d="M130.412,196.362c5.169,15.566-4.525,23.106-4.525,23.106s-10.561-.209-16.218-12.656l3.716-2.07-4.947-1.083a43.168,43.168,0,0,1-1.624-18.265l3.282-.757-2.979-1.539a53.016,53.016,0,0,1,2.948-11.271A55.116,55.116,0,0,1,124.352,185l-2.284,3.6L126,187.352A38.793,38.793,0,0,1,130.412,196.362Z" transform="translate(-106.498 -171.826)" fill="#a2c167"/>
        <path id="Trazado_902936" data-name="Trazado 902936" d="M138.924,224.162l-.306-.175c2.1-3.659,3.978-9.869,1.052-18.682-.361-1.085-.783-2.175-1.256-3.243l.322-.143c.478,1.077.9,2.18,1.269,3.275C142.972,214.13,141.054,220.441,138.924,224.162Z" transform="translate(-115.924 -180.713)" fill="#64822a"/>
        <rect id="Rectángulo_405451" data-name="Rectángulo 405451" width="0.352" height="45.523" transform="translate(4.866 4.493) rotate(-18.368)" fill="#64822a"/>
        <path id="Trazado_902937" data-name="Trazado 902937" d="M119.474,207.981l-10.281-2.147.072-.345,10.281,2.146Z" transform="translate(-107.294 -181.767)" fill="#64822a"/>
        <rect id="Rectángulo_405452" data-name="Rectángulo 405452" width="9.835" height="0.353" transform="translate(16.299 38.606) rotate(-45.859)" fill="#64822a"/>
        <rect id="Rectángulo_405453" data-name="Rectángulo 405453" width="4.647" height="0.352" transform="translate(7.68 12.688) rotate(-48.957)" fill="#64822a"/>
      </g>
      <g id="Grupo_1108089" data-name="Grupo 1108089" transform="translate(5.486 41.848)">
        <path id="Trazado_902938" data-name="Trazado 902938" d="M116.228,233.771v14.242a7.568,7.568,0,0,0,7.568,7.568h11.236a7.568,7.568,0,0,0,7.568-7.568V233.771Z" transform="translate(-114.857 -231.967)" fill="#e05a77"/>
        <rect id="Rectángulo_405454" data-name="Rectángulo 405454" width="26.372" height="0.621" transform="translate(1.371 8.648)" fill="#fff"/>
        <rect id="Rectángulo_405455" data-name="Rectángulo 405455" width="26.372" height="1.741" transform="translate(1.371 10.538)" fill="#fff"/>
        <rect id="Rectángulo_405456" data-name="Rectángulo 405456" width="29.113" height="6.557" fill="#e05a77"/>
        <rect id="Rectángulo_405457" data-name="Rectángulo 405457" width="26.372" height="0.352" transform="translate(1.371 6.381)" fill="#a31c46"/>
      </g>
    </g>
    <g id="Grupo_1108093" data-name="Grupo 1108093" transform="translate(-5921.458 -5062.198)">
      <g id="Grupo_1108091" data-name="Grupo 1108091" transform="translate(0 51.388)">
        <path id="Trazado_902939" data-name="Trazado 902939" d="M492.137,213.57l.018-.055a1.359,1.359,0,0,1,1.7-.879h0l-2.056-.661a1.358,1.358,0,0,1-.877-1.709l.018-.055a1.358,1.358,0,0,1,1.709-.877l-.9-.291a1.358,1.358,0,0,1-.877-1.709l.018-.055a1.358,1.358,0,0,1,1.709-.877l.9.291a1.358,1.358,0,0,1-.877-1.709l.018-.055a1.358,1.358,0,0,1,1.709-.877l.607.2,5.172,1.662,4.525,1.454-.7-2.982c-.425-1.447.082-2.239,1.122-2.654l4.367,5.937a6.982,6.982,0,0,1,1.022,6.272l-.505,1.572a4.966,4.966,0,0,1-6.248,3.208l-4.921-1.582-5.3-1.7-.476-.153A1.356,1.356,0,0,1,492.137,213.57Z" transform="translate(-490.802 -201.727)" fill="#e0a47c"/>
        <path id="Trazado_902940" data-name="Trazado 902940" d="M501.624,211.145l-7.071-2.273.107-.335,7.071,2.273Z" transform="translate(-491.91 -203.738)" fill="#c9773f"/>
        <rect id="Rectángulo_405458" data-name="Rectángulo 405458" width="0.352" height="7.428" transform="matrix(0.306, -0.952, 0.952, 0.306, 1.786, 7.783)" fill="#c9773f"/>
        <path id="Trazado_902941" data-name="Trazado 902941" d="M499.964,218.894l-5.274-1.7.108-.335,5.273,1.695Z" transform="translate(-491.95 -206.197)" fill="#c9773f"/>
      </g>
      <rect id="Rectángulo_405459" data-name="Rectángulo 405459" width="14.346" height="34.448" transform="translate(92.906 55.1) rotate(180)" fill="#e0a47c"/>
      <path id="Trazado_902942" data-name="Trazado 902942" d="M601.328,180.091v5.6l15.506.044V180.19Z" transform="translate(-523.442 -143.949)" fill="#fff"/>
      <path id="Trazado_902943" data-name="Trazado 902943" d="M598.6,164.779h0a9.444,9.444,0,0,0,9.4-9.429V147.9a9.444,9.444,0,0,0-9.4-9.429h0c-5.172,0-9.4-6.9-9.4-1.715v9.014l-1.848,5.677a1.559,1.559,0,0,0,.616,1.779l1.232.824C589.246,162.712,593.431,164.779,598.6,164.779Z" transform="translate(-519.292 -130.583)" fill="#e0a47c"/>
      <path id="Trazado_902944" data-name="Trazado 902944" d="M611.62,157.859c-5.231,0-8.485-.928-12.551-6.386,0,0-4.965-3.448-4.661-12.133-11-.177-8.94-10.448-8.94-10.448l19.067-.089a7,7,0,0,1,7.029,6.941h0C619.86,138.727,614.933,149.074,611.62,157.859Z" transform="translate(-518.713 -128.803)" fill="#495172"/>
      <rect id="Rectángulo_405460" data-name="Rectángulo 405460" width="0.352" height="3.213" transform="translate(78.37 30.984)" fill="#c16d34"/>
      <path id="Trazado_902945" data-name="Trazado 902945" d="M604.118,155.065a3.674,3.674,0,1,1-3.674-3.674A3.674,3.674,0,0,1,604.118,155.065Z" transform="translate(-522.096 -135.474)" fill="#e0a47c"/>
      <path id="Trazado_902946" data-name="Trazado 902946" d="M601.857,157.882a2.2,2.2,0,0,1-.719-.12l.116-.333a1.846,1.846,0,1,0,.6-3.59v-.352a2.2,2.2,0,0,1,0,4.4Z" transform="translate(-523.386 -136.092)" fill="#c16d34"/>
      <path id="Trazado_902947" data-name="Trazado 902947" d="M601.992,161.7c-.11,0-.224,0-.341-.016l.035-.351a3.1,3.1,0,0,0,2.1-.551l.221.275A3.418,3.418,0,0,1,601.992,161.7Z" transform="translate(-523.537 -138.246)" fill="#c16d34"/>
      <path id="Trazado_902948" data-name="Trazado 902948" d="M581.553,427.313c-1.156,2.829-15.461,4.905-15.411,11.493h26.523a29.215,29.215,0,0,0-1.549-11.493S582.708,424.484,581.553,427.313Z" transform="translate(-513.051 -216.587)" fill="#fff"/>
      <path id="Trazado_902949" data-name="Trazado 902949" d="M634.952,427.313c-1.156,2.829-15.461,4.905-15.411,11.493h26.523a29.229,29.229,0,0,0-1.549-11.493S636.107,424.484,634.952,427.313Z" transform="translate(-528.821 -216.587)" fill="#fff"/>
      <g id="Grupo_1108092" data-name="Grupo 1108092" transform="translate(83.738 42.133)">
        <path id="Trazado_902950" data-name="Trazado 902950" d="M636.131,234.772h0l-12.855-33.641.006,0a9.28,9.28,0,1,1,17.645-5.7h.008l11.5,34.316a8.626,8.626,0,0,1,.454,1.355v0h0a8.575,8.575,0,1,1-16.751,3.666Z" transform="translate(-613.486 -188.593)" fill="#a2c167"/>
        <path id="Trazado_902951" data-name="Trazado 902951" d="M611.61,260.083s28.387-2.052,31.108-3.2a10.072,10.072,0,0,0,4.731-3.153,8.576,8.576,0,0,0-1.727-12.008c-2.645-1.984-8.847-.9-8.847-.9l-26.583,5.62C609.038,250.2,609.627,256.768,611.61,260.083Z" transform="translate(-609.633 -203.932)" fill="#a2c167"/>
      </g>
      <path id="Trazado_902952" data-name="Trazado 902952" d="M621.833,278.309H575.542c.437,11.051,4.008,101.057,4.586,107.671h14.8l5.353-94.623,17.505,94.623h14.872C632.2,377.414,622.535,285.013,621.833,278.309Z" transform="translate(-515.827 -172.954)" fill="#e05a77"/>
      <path id="Trazado_902953" data-name="Trazado 902953" d="M622.3,282.766l-.466-4.457H575.542c.037.941.1,2.469.177,4.457Z" transform="translate(-515.827 -172.954)" fill="#fff"/>
      <path id="Trazado_902954" data-name="Trazado 902954" d="M621.827,251.919l4.453-53.273c1.281-12.293-14.918-13.578-14.918-13.578H592.247c-8.479,0-20.211,2.355-19.942,14.322l1.309,52.529h48.213Z" transform="translate(-514.87 -145.419)" fill="#a2c167"/>
      <path id="Trazado_902955" data-name="Trazado 902955" d="M512.95,224.889c-.112-.194-4.647-3.125-4.647-3.125l7.3-10.493,4.341,3.466Z" transform="translate(-495.97 -153.157)" fill="#fff"/>
      <path id="Trazado_902956" data-name="Trazado 902956" d="M544.5,221.68l0,0,21.008-29.251.006,0a9.28,9.28,0,1,1,14.47,11.594l0,.006-22.319,28.488a8.617,8.617,0,0,1-.882,1.125l0,0h0A8.575,8.575,0,1,1,544.5,221.68Z" transform="translate(-505.913 -146.46)" fill="#a2c167"/>
      <path id="Trazado_902957" data-name="Trazado 902957" d="M511.815,225.131S534.672,242.09,537.48,243a10.061,10.061,0,0,0,5.642.695,8.576,8.576,0,0,0,6.523-10.228c-.71-3.23-6.123-6.449-6.123-6.449l-23.816-13.078Z" transform="translate(-497.007 -153.944)" fill="#a2c167"/>
      <rect id="Rectángulo_405461" data-name="Rectángulo 405461" width="16.712" height="0.353" transform="matrix(0.616, -0.788, 0.788, 0.616, 57.889, 77.936)" fill="#64822a"/>
      <rect id="Rectángulo_405462" data-name="Rectángulo 405462" width="39.451" height="0.352" transform="translate(107.635 96.395) rotate(-85.296)" fill="#64822a"/>
      <path id="Trazado_902958" data-name="Trazado 902958" d="M607.043,296.625a51.565,51.565,0,0,1-8.614-.721l.059-.347a52.254,52.254,0,0,0,17.231,0l.058.347A53.709,53.709,0,0,1,607.043,296.625Z" transform="translate(-522.586 -178.048)" fill="#a31c46"/>
      <rect id="Rectángulo_405463" data-name="Rectángulo 405463" width="15.13" height="0.352" transform="translate(64.129 210.119)" fill="#a31c46"/>
      <rect id="Rectángulo_405464" data-name="Rectángulo 405464" width="15.13" height="0.352" transform="translate(101.455 210.119)" fill="#a31c46"/>
      <rect id="Rectángulo_405465" data-name="Rectángulo 405465" width="5.468" height="0.352" transform="translate(38.585 74.826) rotate(-53.978)" fill="#64822a"/>
    </g>
    <text id="JSON" transform="translate(-5952.491 -5057.019)" fill="#00ffdf" font-size="31" font-family="Roboto-Black, Roboto" font-weight="800"><tspan x="-39.999" y="0">JSON</tspan></text>
  </g>
</svg>
