<svg xmlns="http://www.w3.org/2000/svg" width="505" height="340.977" viewBox="0 0 505 340.977">
  <g id="OBJECTS" transform="translate(-12.844 -32.8)">
    <path id="Trazado_902959" data-name="Trazado 902959" d="M307.487,42.6a193.848,193.848,0,0,0-40.272,3.872c-69.895,14.134-129.528,63.8-154.6,130.786-21.1,56.729-14.521,121.106,27.2,166.8,22.072,24.1,53.05,35.335,85.19,27.4,35.141-8.616,60.214-36.98,86.739-59.44,28.364-24.008,58.084-36.98,95.839-32.818,24.1,2.711,47.823,1.549,62.925-19.942,14.715-20.91,17.716-50.243,14.715-74.929C474.867,97.683,390.548,42.987,307.487,42.6Z" transform="translate(-2.813 -0.201)" fill="#afb4e8"/>
    <g id="Grupo_1108104" data-name="Grupo 1108104" transform="translate(404.773 115.682)">
      <g id="Grupo_1108096" data-name="Grupo 1108096">
        <rect id="Rectángulo_405467" data-name="Rectángulo 405467" width="92.838" height="11.617" transform="translate(10.068 37.755)" fill="#430f76"/>
        <g id="Grupo_1108095" data-name="Grupo 1108095">
          <path id="Trazado_902960" data-name="Trazado 902960" d="M526.124,156.055H422.25a4.545,4.545,0,0,1-4.55-4.55V122.85a4.545,4.545,0,0,1,4.55-4.55H526.221a4.545,4.545,0,0,1,4.55,4.55v28.558A4.648,4.648,0,0,1,526.124,156.055Z" transform="translate(-417.7 -118.3)" fill="#a36eed"/>
          <path id="Trazado_902961" data-name="Trazado 902961" d="M519.267,134.064H488.482a3.574,3.574,0,0,1-3.582-3.582h0a3.574,3.574,0,0,1,3.582-3.582h30.785a3.574,3.574,0,0,1,3.582,3.582h0A3.636,3.636,0,0,1,519.267,134.064Z" transform="translate(-419.846 -118.575)" fill="#bcf275"/>
          <path id="Trazado_902962" data-name="Trazado 902962" d="M519.267,148.164H488.482a3.574,3.574,0,0,1-3.582-3.582h0A3.574,3.574,0,0,1,488.482,141h30.785a3.574,3.574,0,0,1,3.582,3.582h0A3.636,3.636,0,0,1,519.267,148.164Z" transform="translate(-419.846 -119.025)" fill="#430f76"/>
        </g>
      </g>
      <g id="Grupo_1108098" data-name="Grupo 1108098" transform="translate(0 49.372)">
        <rect id="Rectángulo_405468" data-name="Rectángulo 405468" width="92.838" height="11.617" transform="translate(10.068 37.658)" fill="#430f76"/>
        <g id="Grupo_1108097" data-name="Grupo 1108097">
          <path id="Trazado_902963" data-name="Trazado 902963" d="M526.124,206.958H422.25a4.545,4.545,0,0,1-4.55-4.55V173.85a4.545,4.545,0,0,1,4.55-4.55H526.221a4.545,4.545,0,0,1,4.55,4.55v28.558A4.567,4.567,0,0,1,526.124,206.958Z" transform="translate(-417.7 -169.3)" fill="#a36eed"/>
          <path id="Trazado_902964" data-name="Trazado 902964" d="M519.267,184.964H488.482a3.574,3.574,0,0,1-3.582-3.582h0a3.574,3.574,0,0,1,3.582-3.582h30.785a3.574,3.574,0,0,1,3.582,3.582h0A3.636,3.636,0,0,1,519.267,184.964Z" transform="translate(-419.846 -169.571)" fill="#bcf275"/>
          <path id="Trazado_902965" data-name="Trazado 902965" d="M519.267,199.064H488.482a3.574,3.574,0,0,1-3.582-3.582h0a3.574,3.574,0,0,1,3.582-3.582h30.785a3.574,3.574,0,0,1,3.582,3.582h0A3.636,3.636,0,0,1,519.267,199.064Z" transform="translate(-419.846 -170.022)" fill="#430f76"/>
        </g>
      </g>
      <g id="Grupo_1108100" data-name="Grupo 1108100" transform="translate(0 98.646)">
        <rect id="Rectángulo_405469" data-name="Rectángulo 405469" width="92.838" height="11.617" transform="translate(10.068 37.658)" fill="#430f76"/>
        <g id="Grupo_1108099" data-name="Grupo 1108099">
          <path id="Trazado_902966" data-name="Trazado 902966" d="M526.124,257.858H422.25a4.545,4.545,0,0,1-4.55-4.55V224.75a4.545,4.545,0,0,1,4.55-4.55H526.221a4.545,4.545,0,0,1,4.55,4.55v28.558A4.567,4.567,0,0,1,526.124,257.858Z" transform="translate(-417.7 -220.2)" fill="#a36eed"/>
          <path id="Trazado_902967" data-name="Trazado 902967" d="M519.267,235.964H488.482a3.574,3.574,0,0,1-3.582-3.582h0a3.574,3.574,0,0,1,3.582-3.582h30.785a3.574,3.574,0,0,1,3.582,3.582h0A3.7,3.7,0,0,1,519.267,235.964Z" transform="translate(-419.846 -220.475)" fill="#bcf275"/>
          <path id="Trazado_902968" data-name="Trazado 902968" d="M519.267,250.064H488.482a3.574,3.574,0,0,1-3.582-3.582h0a3.574,3.574,0,0,1,3.582-3.582h30.785a3.574,3.574,0,0,1,3.582,3.582h0A3.7,3.7,0,0,1,519.267,250.064Z" transform="translate(-419.846 -220.925)" fill="#430f76"/>
        </g>
      </g>
      <g id="Grupo_1108102" data-name="Grupo 1108102" transform="translate(0 148.018)">
        <rect id="Rectángulo_405470" data-name="Rectángulo 405470" width="92.838" height="11.617" transform="translate(10.068 37.658)" fill="#430f76"/>
        <g id="Grupo_1108101" data-name="Grupo 1108101">
          <path id="Trazado_902969" data-name="Trazado 902969" d="M526.124,308.858H422.25a4.545,4.545,0,0,1-4.55-4.55V275.75a4.545,4.545,0,0,1,4.55-4.55H526.221a4.545,4.545,0,0,1,4.55,4.55v28.558A4.567,4.567,0,0,1,526.124,308.858Z" transform="translate(-417.7 -271.2)" fill="#a36eed"/>
          <path id="Trazado_902970" data-name="Trazado 902970" d="M519.267,286.864H488.482a3.574,3.574,0,0,1-3.582-3.582h0a3.574,3.574,0,0,1,3.582-3.582h30.785a3.574,3.574,0,0,1,3.582,3.582h0A3.636,3.636,0,0,1,519.267,286.864Z" transform="translate(-419.846 -271.471)" fill="#bcf275"/>
          <path id="Trazado_902971" data-name="Trazado 902971" d="M519.267,300.964H488.482a3.574,3.574,0,0,1-3.582-3.582h0a3.574,3.574,0,0,1,3.582-3.582h30.785a3.574,3.574,0,0,1,3.582,3.582h0A3.636,3.636,0,0,1,519.267,300.964Z" transform="translate(-419.846 -271.922)" fill="#430f76"/>
        </g>
      </g>
      <g id="Grupo_1108103" data-name="Grupo 1108103" transform="translate(0 197.293)">
        <path id="Trazado_902972" data-name="Trazado 902972" d="M526.124,359.758H422.25a4.545,4.545,0,0,1-4.55-4.55V326.65a4.545,4.545,0,0,1,4.55-4.55H526.221a4.545,4.545,0,0,1,4.55,4.55v28.558A4.567,4.567,0,0,1,526.124,359.758Z" transform="translate(-417.7 -322.1)" fill="#a36eed"/>
        <path id="Trazado_902973" data-name="Trazado 902973" d="M519.267,337.864H488.482a3.574,3.574,0,0,1-3.582-3.582h0a3.574,3.574,0,0,1,3.582-3.582h30.785a3.574,3.574,0,0,1,3.582,3.582h0A3.7,3.7,0,0,1,519.267,337.864Z" transform="translate(-419.846 -322.375)" fill="#bcf275"/>
        <path id="Trazado_902974" data-name="Trazado 902974" d="M519.267,351.964H488.482a3.574,3.574,0,0,1-3.582-3.582h0a3.574,3.574,0,0,1,3.582-3.582h30.785a3.574,3.574,0,0,1,3.582,3.582h0A3.7,3.7,0,0,1,519.267,351.964Z" transform="translate(-419.846 -322.825)" fill="#430f76"/>
      </g>
    </g>
    <g id="Grupo_1108105" data-name="Grupo 1108105" transform="translate(58.882 203.099)">
      <path id="Trazado_902975" data-name="Trazado 902975" d="M74.631,245.383V238.8L60.4,251.675l14.231,12.972v-6.68H136.2V245.383Z" transform="translate(-60.4 -209.564)" fill="#89f9db"/>
      <path id="Trazado_902976" data-name="Trazado 902976" d="M159.772,227.865v6.68L174,221.572,159.772,208.6v6.68H98.3v12.585Z" transform="translate(-61.61 -208.6)" fill="#bcf275"/>
    </g>
    <g id="Grupo_1108106" data-name="Grupo 1108106" transform="translate(12.844 267.601)">
      <path id="Trazado_902977" data-name="Trazado 902977" d="M13.382,365.812H216.871s14.908-42.982-41.337-40.465c0,0,3-30.494-19.071-44.531-13.456-8.616-30.978-6.97-43.563,2.9a66.946,66.946,0,0,0-12.779,13.553s-36.69-30.591-56.245,22.943C43.973,320.313,8.058,316.441,13.382,365.812Z" transform="translate(-12.844 -275.23)" fill="#5c7cef"/>
      <path id="Trazado_902978" data-name="Trazado 902978" d="M148.051,324.311h-3.388a1.888,1.888,0,0,1-1.839-1.355,25.4,25.4,0,0,0-1.839-4.453,1.89,1.89,0,0,1,.29-2.227l2.42-2.42a1.872,1.872,0,0,0,0-2.711l-4.453-4.453a1.872,1.872,0,0,0-2.711,0l-2.42,2.42a1.773,1.773,0,0,1-2.227.29,22.664,22.664,0,0,0-4.453-1.839,1.888,1.888,0,0,1-1.355-1.839v-3.388a1.942,1.942,0,0,0-1.936-1.936h-6.292a1.942,1.942,0,0,0-1.936,1.936v3.388a1.888,1.888,0,0,1-1.355,1.839A25.4,25.4,0,0,0,110.1,309.4a1.89,1.89,0,0,1-2.227-.29l-2.42-2.42a1.872,1.872,0,0,0-2.711,0l-4.453,4.453a1.872,1.872,0,0,0,0,2.711l2.42,2.42A1.773,1.773,0,0,1,101,318.5a22.665,22.665,0,0,0-1.839,4.453,1.888,1.888,0,0,1-1.839,1.355H93.936A1.942,1.942,0,0,0,92,326.247v6.292a1.942,1.942,0,0,0,1.936,1.936h3.388a1.888,1.888,0,0,1,1.839,1.355A25.4,25.4,0,0,0,101,340.285a1.89,1.89,0,0,1-.29,2.227l-2.42,2.42a1.872,1.872,0,0,0,0,2.711l4.453,4.453a1.872,1.872,0,0,0,2.711,0l2.42-2.42a1.773,1.773,0,0,1,2.227-.29,22.664,22.664,0,0,0,4.453,1.839,1.888,1.888,0,0,1,1.355,1.839v3.388a1.942,1.942,0,0,0,1.936,1.936h6.292a1.942,1.942,0,0,0,1.936-1.936v-3.388a1.888,1.888,0,0,1,1.355-1.839,25.394,25.394,0,0,0,4.453-1.839,1.89,1.89,0,0,1,2.227.29l2.42,2.42a1.872,1.872,0,0,0,2.711,0l4.453-4.453a1.872,1.872,0,0,0,0-2.711l-2.42-2.42a1.773,1.773,0,0,1-.29-2.227,22.666,22.666,0,0,0,1.839-4.453,1.888,1.888,0,0,1,1.839-1.355h3.388a1.942,1.942,0,0,0,1.936-1.936v-6.292A1.942,1.942,0,0,0,148.051,324.311Zm-27.009,17.232a12.2,12.2,0,1,1,12.2-12.2A12.147,12.147,0,0,1,121.042,341.543Z" transform="translate(-15.371 -276.033)" fill="#e4e5f8"/>
    </g>
    <g id="Grupo_1108108" data-name="Grupo 1108108" transform="translate(150.848 36.3)">
      <g id="Grupo_1108107" data-name="Grupo 1108107">
        <line id="Línea_1843" data-name="Línea 1843" transform="translate(80.156)" fill="none" stroke="#430f76" stroke-linecap="round" stroke-linejoin="round" stroke-width="7"/>
        <line id="Línea_1844" data-name="Línea 1844" x1="40.078" transform="translate(13.359)" fill="none" stroke="#430f76" stroke-linecap="round" stroke-linejoin="round" stroke-width="7" stroke-dasharray="0 27.579"/>
        <line id="Línea_1845" data-name="Línea 1845" fill="none" stroke="#430f76" stroke-linecap="round" stroke-linejoin="round" stroke-width="7"/>
      </g>
    </g>
    <g id="Grupo_1108111" data-name="Grupo 1108111" transform="translate(36.422 57.501)">
      <path id="Trazado_902979" data-name="Trazado 902979" d="M233.912,68.558V182.4a10.391,10.391,0,0,1-10.455,10.358H47.655A10.453,10.453,0,0,1,37.2,182.4V68.558A10.391,10.391,0,0,1,47.655,58.2h175.8A10.391,10.391,0,0,1,233.912,68.558Z" transform="translate(-37.2 -58.2)" fill="#fff"/>
      <path id="Trazado_902980" data-name="Trazado 902980" d="M233.912,68.558V82.015H37.2V68.558A10.391,10.391,0,0,1,47.655,58.2h175.8A10.391,10.391,0,0,1,233.912,68.558Z" transform="translate(-37.2 -58.2)" fill="#361fa0"/>
      <path id="Trazado_902981" data-name="Trazado 902981" d="M195.75,105c-17.619,0-31.85,9.487-31.85,21.2,0,9.2,8.809,16.941,21.007,19.942h-.1l-4.744,19.942L198.654,147.3c16.264-.968,28.945-10.068,28.945-21.1C227.6,114.487,213.368,105,195.75,105Z" transform="translate(-41.245 -59.694)" fill="#5c7cef"/>
      <line id="Línea_1846" data-name="Línea 1846" y2="90.611" transform="translate(112.974 34.076)" fill="none" stroke="#361fa0" stroke-linecap="round" stroke-linejoin="round" stroke-miterlimit="10" stroke-width="2" stroke-dasharray="4 13"/>
      <g id="Grupo_1108109" data-name="Grupo 1108109" transform="translate(14.327 36.303)">
        <rect id="Rectángulo_405471" data-name="Rectángulo 405471" width="31.85" height="11.036" transform="translate(25.267)" fill="#afb4e8"/>
        <rect id="Rectángulo_405472" data-name="Rectángulo 405472" width="31.85" height="11.036" transform="translate(0 36.496)" fill="#361fa0"/>
        <rect id="Rectángulo_405473" data-name="Rectángulo 405473" width="31.85" height="11.036" transform="translate(52.179 36.496)" fill="#a36eed"/>
        <rect id="Rectángulo_405474" data-name="Rectángulo 405474" width="31.85" height="11.036" transform="translate(0 67.475)" fill="#a36eed"/>
        <rect id="Rectángulo_405475" data-name="Rectángulo 405475" width="31.85" height="11.036" transform="translate(52.179 67.475)" fill="#361fa0"/>
        <path id="Trazado_902982" data-name="Trazado 902982" d="M68.5,132.956V119.5h52.179v13.456" transform="translate(-52.527 -96.46)" fill="none" stroke="#430f76" stroke-linecap="round" stroke-linejoin="round" stroke-miterlimit="10" stroke-width="1"/>
        <line id="Línea_1847" data-name="Línea 1847" y2="12.101" transform="translate(41.143 10.939)" fill="none" stroke="#430f76" stroke-linecap="round" stroke-linejoin="round" stroke-miterlimit="10" stroke-width="1"/>
        <line id="Línea_1848" data-name="Línea 1848" y2="20.039" transform="translate(15.973 47.435)" fill="none" stroke="#430f76" stroke-linecap="round" stroke-linejoin="round" stroke-miterlimit="10" stroke-width="1"/>
        <line id="Línea_1849" data-name="Línea 1849" y2="20.039" transform="translate(68.152 47.435)" fill="none" stroke="#430f76" stroke-linecap="round" stroke-linejoin="round" stroke-miterlimit="10" stroke-width="1"/>
      </g>
      <g id="Grupo_1108110" data-name="Grupo 1108110" transform="translate(11.907 7.261)">
        <path id="Trazado_902983" data-name="Trazado 902983" d="M58.793,70.347a4.647,4.647,0,1,0-4.647,4.647A4.648,4.648,0,0,0,58.793,70.347Z" transform="translate(-49.5 -65.7)" fill="#a36eed"/>
        <path id="Trazado_902984" data-name="Trazado 902984" d="M75.493,70.347a4.647,4.647,0,1,0-4.647,4.647A4.711,4.711,0,0,0,75.493,70.347Z" transform="translate(-50.033 -65.7)" fill="#bcf275"/>
        <path id="Trazado_902985" data-name="Trazado 902985" d="M92.093,70.347a4.647,4.647,0,1,0-4.647,4.647A4.648,4.648,0,0,0,92.093,70.347Z" transform="translate(-50.563 -65.7)" fill="#77f792"/>
      </g>
    </g>
    <g id="Grupo_1108116" data-name="Grupo 1108116" transform="translate(168.189 57.163)">
      <g id="Grupo_1108114" data-name="Grupo 1108114" transform="translate(191.472 33.156)">
        <g id="Grupo_1108112" data-name="Grupo 1108112" transform="translate(15.78)">
          <path id="Trazado_902986" data-name="Trazado 902986" d="M428.93,97.134l-1.839-2.517a6.236,6.236,0,0,0-4.937-2.517H393.5a6.073,6.073,0,0,0-6.1,6.1v56.535a6.073,6.073,0,0,0,6.1,6.1h82.383a6.073,6.073,0,0,0,6.1-6.1V105.653a6.073,6.073,0,0,0-6.1-6.1H433.867A6.144,6.144,0,0,1,428.93,97.134Z" transform="translate(-387.4 -92.1)" fill="#89f9db"/>
          <line id="Línea_1850" data-name="Línea 1850" x2="36.496" transform="translate(2.807 8.229)" fill="none" stroke="#430f76" stroke-linecap="round" stroke-linejoin="round" stroke-miterlimit="10" stroke-width="1"/>
        </g>
        <g id="Grupo_1108113" data-name="Grupo 1108113" transform="translate(0 12.972)">
          <path id="Trazado_902987" data-name="Trazado 902987" d="M412.63,110.534l-1.839-2.517a6.236,6.236,0,0,0-4.937-2.517H377.2a6.073,6.073,0,0,0-6.1,6.1v56.535a6.073,6.073,0,0,0,6.1,6.1h82.383a6.073,6.073,0,0,0,6.1-6.1V119.053a6.073,6.073,0,0,0-6.1-6.1H417.567A5.882,5.882,0,0,1,412.63,110.534Z" transform="translate(-371.1 -105.5)" fill="#e4e5f8"/>
          <line id="Línea_1851" data-name="Línea 1851" x2="36.496" transform="translate(2.807 8.229)" fill="none" stroke="#430f76" stroke-linecap="round" stroke-linejoin="round" stroke-miterlimit="10" stroke-width="1"/>
        </g>
      </g>
      <g id="Grupo_1108115" data-name="Grupo 1108115">
        <path id="Trazado_902988" data-name="Trazado 902988" d="M223.276,236.326c-.29,2.033-.581,4.163-.774,6.292-16.36-5.712-25.267-12.391-29.623-16.554a23.2,23.2,0,0,1-3.679-4.259c.871-2.033,1.839-4.066,2.807-5.905C192.007,215.8,202.269,229.937,223.276,236.326Z" transform="translate(-173.82 -62.897)" fill="#5c7cef"/>
        <path id="Trazado_902989" data-name="Trazado 902989" d="M382.26,214.4a61.652,61.652,0,0,1,2.033,6.389,28.6,28.6,0,0,1-4.356,4.163c-4.937,3.969-14.618,10.068-31.462,15.1h-.29l-.484-6.2C348.281,233.761,369.966,228.824,382.26,214.4Z" transform="translate(-178.88 -62.849)" fill="#5c7cef"/>
        <path id="Trazado_902990" data-name="Trazado 902990" d="M344.458,170.115l-.194.387c-13.843,10.358-31.366,15.2-42.6,17.425a72.23,72.23,0,0,1-29.526-.1C250.071,182.8,240.1,169.05,240.1,169.05a49.884,49.884,0,0,1,10.455-3.1c.678-.1,1.355-.1,1.936-.194,0,0,16.554,11.133,37.852,10.649,0,0,24.976.678,41.24-11.907A54.651,54.651,0,0,1,344.458,170.115Z" transform="translate(-175.445 -61.256)" fill="#5c7cef"/>
        <path id="Trazado_902991" data-name="Trazado 902991" d="M223.369,234.838c-21.007-6.389-31.269-20.523-31.269-20.523,14.521-28.364,34.463-40.272,46.467-45.015,0,0,9.971,13.65,32.043,18.781a70.586,70.586,0,0,0,29.526.1c11.23-2.227,28.752-7.067,42.6-17.425l.194-.387c10.746,6.2,25.654,18.781,34.27,42.692-12.295,14.424-33.979,19.361-34.56,19.458l.484,6.2,2.13,28.171,6.389,84.706s-89.159,17.813-139.4,0c0,0,1.936-25.944,4.647-56.148,1.646-18.1,3.582-37.755,5.615-54.309C222.788,238.9,223.078,236.871,223.369,234.838Z" transform="translate(-173.912 -61.409)" fill="#89f9db"/>
        <path id="Trazado_902992" data-name="Trazado 902992" d="M221.9,242.954c-2.033,16.554-3.969,36.206-5.615,54.309,0,0-10.649,10.455-22.169,13.359a16.621,16.621,0,0,1-20.62-14.908c-.871-11.23.774-33.882,18.877-69.314C196.728,230.563,205.537,237.242,221.9,242.954Z" transform="translate(-173.312 -63.232)" fill="#fff"/>
        <path id="Trazado_902993" data-name="Trazado 902993" d="M419.45,194.994c-1.162,73.283-16.844,98.55-24.976,106.681a13.642,13.642,0,0,1-13.843,3.485c-17.135-5.712-30.3-39.5-30.3-39.5l-2.13-28.171h.29c16.844-5.034,26.525-11.133,31.462-15.1,0,0,2.807,8.616,5.712,19.361l16.844-52.179-4.55-10.068a36.486,36.486,0,0,1-3.195-17.812l.968-13.263a4,4,0,0,1,3.969-3.679,3.8,3.8,0,0,1,2.711,1.065,4.442,4.442,0,0,1,1.258,2.614l.968,14.134a116.44,116.44,0,0,0,12.2-26.816,2.158,2.158,0,0,1,2.517-1.549,2.1,2.1,0,0,1,1.646,2.13v.29c-.581,4.163-2.13,14.134-5.034,21.685.387-.774,7.067-13.456,10.649-21.491a3.023,3.023,0,0,1,4.259-1.355,2.958,2.958,0,0,1,1.452,2.614,3.481,3.481,0,0,1-.194,1.065l-8.422,20.91c.484-.678,8.325-12.391,11.326-18.006a2.219,2.219,0,0,1,3-.871,2.193,2.193,0,0,1,1.065,1.839.726.726,0,0,1-.1.484,88.24,88.24,0,0,1-8.713,21.685l7.551-9.584a2.516,2.516,0,0,1,3.582-.484,2.432,2.432,0,0,1,.968,2.033,2.132,2.132,0,0,1-.1.774C440.264,164.79,431.648,189.379,419.45,194.994Z" transform="translate(-178.896 -60.287)" fill="#fff"/>
        <path id="Trazado_902994" data-name="Trazado 902994" d="M331.991,161.8c-16.167,12.585-41.24,11.907-41.24,11.907-21.394.484-37.852-10.649-37.852-10.649,19.652-3,19.168-26.332,19.071-27.3a26.847,26.847,0,0,0,17.232-1.743,19.165,19.165,0,0,0,5.905-3.291c3.582-2.9,7.841-8.132,9.584-17.232a5.216,5.216,0,0,1-1.258-.678,9.034,9.034,0,0,1-4.066-7.841c0-7.357,4.163-8.713,6.68-8.809a7.585,7.585,0,0,1,4.066-3.679S317.664,89,324.15,79.9c.194,1.162,4.55,26.332,1.839,40.756a11.027,11.027,0,0,1-4.84,7.067c-.581.387-1.162.678-1.839,1.065l-.1.1h0c-.678.581-9.487,8.616,2.13,22.75A60.549,60.549,0,0,0,331.991,161.8Z" transform="translate(-175.854 -58.555)" fill="#fff"/>
        <path id="Trazado_902995" data-name="Trazado 902995" d="M271.886,135.054a34.193,34.193,0,0,1-16.07-9.1c-11.81-15.392-2.227-34.754-2.227-34.754-2.033,0-6.1,1.936-6.389,2.033a16.9,16.9,0,0,1,7.164-9,21.2,21.2,0,0,1-1.162-9.487c-.194,2.807,5.324,4.163,5.324,4.163,5.905-14.521,19.749-19.361,30.785-20.717A55.693,55.693,0,0,1,310.8,60.125c13.359,3.679,21.007.968,21.007.968A48.534,48.534,0,0,1,324.065,79.1c-6.486,9.1-14.037,12.585-14.037,12.585a7.392,7.392,0,0,0-3.969,3.679c-2.517.1-6.776,1.355-6.776,8.809a9.034,9.034,0,0,0,4.066,7.841,8,8,0,0,0,1.258.678c-1.742,9.1-6,14.327-9.584,17.232a16.886,16.886,0,0,1-5.905,3.291A27.665,27.665,0,0,1,271.886,135.054Z" transform="translate(-175.672 -57.851)" fill="#361fa0"/>
        <path id="Trazado_902996" data-name="Trazado 902996" d="M309.416,96.8a6.075,6.075,0,0,0-1.839-.1c-2.517.1-6.776,1.355-6.776,8.809a9.034,9.034,0,0,0,4.066,7.841,8,8,0,0,0,1.258.678c2.227.871,5.228.581,8.713-2.9" transform="translate(-177.383 -59.09)" fill="none" stroke="#430f76" stroke-linecap="round" stroke-linejoin="round" stroke-miterlimit="10" stroke-width="1"/>
        <path id="Trazado_902997" data-name="Trazado 902997" d="M322.615,153.25c-19.652,1.065-23.815-20.523-23.815-20.523a30.052,30.052,0,0,0,21.685-2.227C319.807,131.081,311,139.116,322.615,153.25Z" transform="translate(-177.319 -60.17)" fill="#430f76"/>
        <path id="Trazado_902998" data-name="Trazado 902998" d="M223.5,242.357c.29-2.13.581-4.259.774-6.292,1.743-12.875,3.388-23.234,5.034-28.364" transform="translate(-174.915 -62.635)" fill="none" stroke="#430f76" stroke-linecap="round" stroke-linejoin="round" stroke-miterlimit="10" stroke-width="1"/>
        <path id="Trazado_902999" data-name="Trazado 902999" d="M345.7,207.6l1.936,26.138.484,6.2,2.13,28.171" transform="translate(-178.817 -62.632)" fill="none" stroke="#430f76" stroke-linecap="round" stroke-linejoin="round" stroke-miterlimit="10" stroke-width="1"/>
        <path id="Trazado_903000" data-name="Trazado 903000" d="M381,225.3s2.807,8.616,5.712,19.361c2.13,7.745,4.356,16.554,5.712,24.008" transform="translate(-179.944 -63.197)" fill="none" stroke="#430f76" stroke-linecap="round" stroke-linejoin="round" stroke-miterlimit="10" stroke-width="1"/>
        <path id="Trazado_903001" data-name="Trazado 903001" d="M437.384,177.4c-3.969,8.035-9.39,16.07-15.683,18.974a10.885,10.885,0,0,1-3,.968" transform="translate(-181.147 -61.668)" fill="none" stroke="#430f76" stroke-linecap="round" stroke-linejoin="round" stroke-miterlimit="10" stroke-width="1"/>
      </g>
    </g>
    <g id="Grupo_1108118" data-name="Grupo 1108118" transform="translate(369.245 291.774)">
      <g id="Grupo_1108117" data-name="Grupo 1108117">
        <line id="Línea_1852" data-name="Línea 1852" transform="translate(0 80.059)" fill="none" stroke="#430f76" stroke-linecap="round" stroke-linejoin="round" stroke-width="7"/>
        <line id="Línea_1853" data-name="Línea 1853" y1="39.981" transform="translate(0 13.359)" fill="none" stroke="#430f76" stroke-linecap="round" stroke-linejoin="round" stroke-width="7" stroke-dasharray="0 27.579"/>
        <line id="Línea_1854" data-name="Línea 1854" fill="none" stroke="#430f76" stroke-linecap="round" stroke-linejoin="round" stroke-width="7"/>
      </g>
    </g>
  </g>
</svg>
