<svg xmlns="http://www.w3.org/2000/svg" width="400" height="300.518" viewBox="0 0 400 300.518">
  <g id="OBJECTS" transform="translate(-24.248 -37.262)">
    <g id="Grupo_1108142" data-name="Grupo 1108142" transform="translate(24.248 37.261)">
      <path id="Trazado_903003" data-name="Trazado 903003" d="M419.544,162.795c.084-.252.084-.42.168-.672,4.367-17.89,6.3-36.535,2.52-54.761-9.239-45.018-55.769-74.078-98.267-50.645-48.714,26.877-80.714,76.262-143.285,67.359-47.79-6.8-83.989-44.682-130.1-5.711C1.363,160.107,28.911,224.862,69.814,260.81,115,300.621,180.007,324.977,240.228,317.251c68.619-8.819,134.047-55.181,165.291-116.829A176.39,176.39,0,0,0,419.544,162.795Z" transform="translate(-24.248 -39.046)" fill="#afb4e8"/>
      <g id="Grupo_1108120" data-name="Grupo 1108120" transform="translate(47.078 60.84)">
        <g id="Grupo_1108119" data-name="Grupo 1108119">
          <line id="Línea_1855" data-name="Línea 1855" fill="none" stroke="#430f76" stroke-linecap="round" stroke-linejoin="round" stroke-width="7"/>
          <line id="Línea_1856" data-name="Línea 1856" y2="34.771" transform="translate(0 23.181)" fill="none" stroke="#430f76" stroke-linecap="round" stroke-linejoin="round" stroke-width="7" stroke-dasharray="0 27.579"/>
          <line id="Línea_1857" data-name="Línea 1857" transform="translate(0 69.543)" fill="none" stroke="#430f76" stroke-linecap="round" stroke-linejoin="round" stroke-width="7"/>
        </g>
      </g>
      <g id="Grupo_1108122" data-name="Grupo 1108122" transform="translate(190.279 297.018)">
        <g id="Grupo_1108121" data-name="Grupo 1108121">
          <line id="Línea_1858" data-name="Línea 1858" transform="translate(69.459)" fill="none" stroke="#430f76" stroke-linecap="round" stroke-linejoin="round" stroke-width="7"/>
          <line id="Línea_1859" data-name="Línea 1859" x1="34.771" transform="translate(11.507)" fill="none" stroke="#430f76" stroke-linecap="round" stroke-linejoin="round" stroke-width="7" stroke-dasharray="0 27.579"/>
          <line id="Línea_1860" data-name="Línea 1860" fill="none" stroke="#430f76" stroke-linecap="round" stroke-linejoin="round" stroke-width="7"/>
        </g>
      </g>
      <g id="Grupo_1108128" data-name="Grupo 1108128" transform="translate(97.723 5.996)">
        <path id="Trazado_903004" data-name="Trazado 903004" d="M276.662,288.556H149.587a9,9,0,0,1-8.987-8.987V53.387a9,9,0,0,1,8.987-8.987H276.662a9,9,0,0,1,8.987,8.987V279.57A9,9,0,0,1,276.662,288.556Z" transform="translate(-140.6 -44.4)" fill="#430f76"/>
        <path id="Trazado_903005" data-name="Trazado 903005" d="M280.891,54.508V280.69a3.1,3.1,0,0,1-3.108,3.108H150.708a3.156,3.156,0,0,1-3.108-3.108V54.508a3.1,3.1,0,0,1,3.108-3.108H277.783A3.214,3.214,0,0,1,280.891,54.508Z" transform="translate(-141.721 -45.521)" fill="#5c7cef"/>
        <path id="Trazado_903016" data-name="Trazado 903016" d="M280.875,54.524v96.5l-92.22,132.787H150.608a3.156,3.156,0,0,1-3.108-3.108V209.148L257.358,51.5h20.409A3.083,3.083,0,0,1,280.875,54.524Z" transform="translate(-141.705 -45.537)" fill="#fff" opacity="0.14"/>
      </g>
      <g id="Grupo_1108129" data-name="Grupo 1108129" transform="translate(229.838)">
        <path id="Trazado_903017" data-name="Trazado 903017" d="M414.423,101.857c1.764,6.3,6.047,11.59,10.583,16.294-10.751,7.139-19.318,17.05-30.824,21.669a.082.082,0,0,0-.084.084c-.42.168-.924.336-1.344.5-.084-.084-.084-.252-.168-.336a153.685,153.685,0,0,1-6.383-17.3,7.5,7.5,0,0,1-9.659,1.512,16.722,16.722,0,0,1-2.52-2.352,83.218,83.218,0,0,1-10.583-14.782,31.826,31.826,0,0,0-4.451,1.176,1.648,1.648,0,0,1-1.26.084,1.91,1.91,0,0,1-1.008-1.68c-.756-5.123,1.848-10.247,1.092-15.37a27.557,27.557,0,0,0-1.512-5.123c-1.764-5.123-2.856-10.667-1.428-15.874,2.184-7.811,9.995-13.27,18.142-14.194,8.063-.924,16.21,1.932,23.1,6.215a29.939,29.939,0,0,1,8.483,7.391,29.014,29.014,0,0,1,3.024,5.459,71.656,71.656,0,0,1,5.543,18.562A62.087,62.087,0,0,0,414.423,101.857Z" transform="translate(-306.917 -40.261)" fill="#fff"/>
        <path id="Trazado_903018" data-name="Trazado 903018" d="M408.379,99.3a8.592,8.592,0,0,1-5.459,2.6,2.963,2.963,0,0,1-2.52-.756" transform="translate(-314.311 -47.194)" fill="none" stroke="#430f76" stroke-linecap="round" stroke-linejoin="round" stroke-miterlimit="10" stroke-width="1"/>
        <path id="Trazado_903019" data-name="Trazado 903019" d="M400.2,148.843l.084.168a.082.082,0,0,0-.084.084c-.42.168-.924.336-1.344.5a160.052,160.052,0,0,1-6.551-17.638A97.119,97.119,0,0,0,406.326,113.4C405.486,125.326,404.562,137.589,400.2,148.843Z" transform="translate(-313.014 -49.452)" fill="#430f76"/>
        <path id="Trazado_903020" data-name="Trazado 903020" d="M361.6,93.948a9.245,9.245,0,0,1,5.8-1.26,10.717,10.717,0,0,1,2.352.588,15.679,15.679,0,0,1,2.688,1.26" transform="translate(-308.099 -46.125)" fill="none" stroke="#430f76" stroke-linecap="round" stroke-linejoin="round" stroke-miterlimit="10" stroke-width="1"/>
        <path id="Trazado_903021" data-name="Trazado 903021" d="M366.188,97.577a6.267,6.267,0,0,1-.588,1.008c.588,1.428,1.344,2.94,2.772,3.528a.69.69,0,0,0,.588.084c.42-.084.588-.42.672-.84a2.59,2.59,0,0,0-.336-1.764,4.639,4.639,0,0,0-1.176-1.428,3.513,3.513,0,0,0-1.008-.672A1.492,1.492,0,0,0,366.188,97.577Z" transform="translate(-308.739 -46.9)" fill="#430f76"/>
        <path id="Trazado_903022" data-name="Trazado 903022" d="M409.91,327.047l-.084.336a224.363,224.363,0,0,0-5.711,22.089l-.336-.084a44.3,44.3,0,0,1-6.467-2.016,23.106,23.106,0,0,1-11.507-11.926A33.642,33.642,0,0,1,383.37,318.9c.588.084,1.176.084,1.764.168a48.715,48.715,0,0,1,10.919,2.352c3.192,1.092,6.215,2.688,9.407,3.948C406.887,325.955,408.4,326.543,409.91,327.047Z" transform="translate(-311.559 -82.354)" fill="#5c7cef"/>
        <path id="Trazado_903023" data-name="Trazado 903023" d="M426.969,332.48c4.451,1.092,9.239,2.184,13.858,1.848l.084.588c-5.207,14.614-10.5,29.816-9.491,45.438-9.407.84-18.814,1.26-28.22,1.428a223.861,223.861,0,0,1,4.116-30.656,218.412,218.412,0,0,1,5.711-22.089l.084-.336C417.646,330.128,422.349,331.3,426.969,332.48Z" transform="translate(-314.759 -83.923)" fill="#5c7cef"/>
        <path id="Trazado_903024" data-name="Trazado 903024" d="M399.935,349.428l.336.084a220.408,220.408,0,0,0-4.115,30.656,338.989,338.989,0,0,1-36.955-1.512s0-39.391.336-59.044a83.9,83.9,0,0,1,19.989-.672,33.642,33.642,0,0,0,2.436,16.546,23.44,23.44,0,0,0,11.507,11.926A57.65,57.65,0,0,0,399.935,349.428Z" transform="translate(-307.715 -82.311)" fill="#5c7cef"/>
        <path id="Trazado_903025" data-name="Trazado 903025" d="M392.027,152.257c.42-.168.924-.336,1.344-.5a.082.082,0,0,0,.084-.084c11.591-4.619,20.073-14.614,30.824-21.669,9.491,6.8,14.11,18.226,17.3,29.48a104.086,104.086,0,0,1,2.52,44.346c-.84,5.291-2.1,10.5-3.192,15.706a419.326,419.326,0,0,0-8.063,52.073c-.924,10.247-1.26,21.417,4.871,29.648a20.028,20.028,0,0,1-5.375,1.26c-4.619.42-9.407-.672-13.858-1.848-4.619-1.176-9.323-2.352-13.858-3.864-1.512-.5-3.024-1.092-4.535-1.68-3.108-1.344-6.131-2.856-9.407-3.948a48.717,48.717,0,0,0-10.919-2.352c-.588-.084-1.176-.084-1.764-.168a79.738,79.738,0,0,0-19.989.672,61.534,61.534,0,0,0-7.811,1.68c1.092-6.635,1.764-12.514,2.436-18.394a240.649,240.649,0,0,0,2.1-25.785c.168-8.819-.672-17.722.252-26.541,1.428-14.7,7.475-28.64,14.782-41.491,5.627-9.995,12.346-19.737,21.585-26.625l.5-.252A.437.437,0,0,1,392.027,152.257Z" transform="translate(-306.274 -52.11)" fill="#89f9db"/>
        <path id="Trazado_903026" data-name="Trazado 903026" d="M413.027,329a224.337,224.337,0,0,0-5.711,22.089,220.418,220.418,0,0,0-4.116,30.656v.168" transform="translate(-314.759 -83.971)" fill="none" stroke="#430f76" stroke-linecap="round" stroke-linejoin="round" stroke-miterlimit="10" stroke-width="1"/>
        <path id="Trazado_903027" data-name="Trazado 903027" d="M383.37,318.8v.084a33.642,33.642,0,0,0,2.436,16.546,23.439,23.439,0,0,0,11.507,11.926,35.99,35.99,0,0,0,6.467,2.016" transform="translate(-311.559 -82.338)" fill="none" stroke="#430f76" stroke-linecap="round" stroke-linejoin="round" stroke-miterlimit="10" stroke-width="1"/>
        <path id="Trazado_903028" data-name="Trazado 903028" d="M414.9,246.8" transform="translate(-316.633 -70.81)" fill="none" stroke="#000" stroke-miterlimit="10" stroke-width="1"/>
        <path id="Trazado_903029" data-name="Trazado 903029" d="M418.649,172.1c-4.115,12.178-6.8,24.777-9.407,37.291a145.8,145.8,0,0,0-2.856,17.134,14.014,14.014,0,0,0,.252,4.619,11.553,11.553,0,0,0,2.1,3.863,57.4,57.4,0,0,0,11.171,11.842" transform="translate(-315.259 -58.85)" fill="none" stroke="#430f76" stroke-linecap="round" stroke-linejoin="round" stroke-miterlimit="10" stroke-width="1"/>
        <path id="Trazado_903030" data-name="Trazado 903030" d="M301.763,176.4c5.879,7.727,12.094,15.2,18.646,22.341l-.084.168c-3.276-1.26-6.551-2.436-9.827-3.612l.084-.168c-4.283-4.871-8.567-9.827-12.682-14.782a3.927,3.927,0,0,1,1.6-2.268A8.346,8.346,0,0,0,301.763,176.4Z" transform="translate(-297.9 -59.539)" fill="#89f9db"/>
        <path id="Trazado_903031" data-name="Trazado 903031" d="M362.241,227.668c-1.848,1.008-2.52,3.192-2.856,5.207-.924,5.543-.084,11.423-1.764,16.8-6.215-3.947-11.759-8.9-17.218-13.858a30.973,30.973,0,0,0-5.879-4.619c-2.688-1.428-5.711-1.932-8.567-3.024a37.112,37.112,0,0,1-5.8-2.856,13.4,13.4,0,0,1-4.451-3.612,5.365,5.365,0,0,1-.756-5.459l.168-.252c-.084-.084-.168-.084-.252-.168a10.63,10.63,0,0,1-3.78-3.7,4.421,4.421,0,0,1,.336-4.955l.084-.168c-.84-.42-1.6-.84-2.436-1.26a10.5,10.5,0,0,1-4.283-3.36c-.924-1.6-.756-3.947.84-4.787,1.176-.588,2.688-.168,3.948.252.588.252,1.176.42,1.848.672,3.276,1.176,6.551,2.352,9.827,3.612,2.94,1.092,5.8,2.184,8.651,3.276q-3.276-3.024-6.551-5.8a5.153,5.153,0,0,1-1.428-1.6,1.76,1.76,0,0,1,.168-2.016,2.154,2.154,0,0,1,1.6-.5c2.016,0,3.863,1.092,5.543,2.1,3.108,1.932,6.131,4.115,9.155,6.215a8.081,8.081,0,0,1,1.848,1.512,11.363,11.363,0,0,1,1.428,2.856c1.26,3.444,2.52,7.139,5.207,9.575a25.372,25.372,0,0,0,3.444,2.436C354.346,222.377,358.378,225.4,362.241,227.668Z" transform="translate(-298.913 -62.597)" fill="#fff"/>
        <path id="Trazado_903032" data-name="Trazado 903032" d="M382.569,84.328c1.848-.084,3.78-.084,5.8-.168.42-3.528.924-7.307,3.444-9.827a4.038,4.038,0,0,1,3.444-1.428,5.1,5.1,0,0,1,2.772,1.848,13.2,13.2,0,0,1,1.092,14.866c3.024,2.352,7.643,1.344,10.331-1.344s3.779-6.551,4.367-10.331c1.26-8.567.168-17.638-4.2-25.113a11.474,11.474,0,0,0-3.276-3.947c-2.772-2.016-6.551-1.848-10.247-1.428-3.024-3.192-6.047-6.383-10.079-8.147a28.408,28.408,0,0,0-9.911-1.848,36.443,36.443,0,0,0-9.071.168A28.236,28.236,0,0,0,360.06,39.9a39.941,39.941,0,0,0-11.675,7.223,19.825,19.825,0,0,0-6.3,11.926c-.5,4.451,1.6,9.659,5.963,10.919,2.94.84,6.047-.252,8.735-1.6s5.459-3.024,8.483-3.276c2.94-.252,5.879.924,8.483,2.268a7.388,7.388,0,0,1,2.772,2.016,12.394,12.394,0,0,1,1.428,2.772A110.58,110.58,0,0,0,382.569,84.328Z" transform="translate(-304.963 -37.261)" fill="#361fa0"/>
        <path id="Trazado_903033" data-name="Trazado 903033" d="M371,123.382c2.6-1.344,9.995-4.535,10.835-12.682" transform="translate(-309.604 -49.02)" fill="none" stroke="#430f76" stroke-linecap="round" stroke-linejoin="round" stroke-miterlimit="10" stroke-width="1"/>
        <path id="Trazado_903034" data-name="Trazado 903034" d="M391.8,158.729c7.391.672,14.866-1.932,21.165-5.8,6.3-3.947,11.758-9.155,17.05-14.362A29.673,29.673,0,0,0,434.3,133.7" transform="translate(-312.934 -52.702)" fill="none" stroke="#430f76" stroke-linecap="round" stroke-linejoin="round" stroke-miterlimit="10" stroke-width="1"/>
        <path id="Trazado_903035" data-name="Trazado 903035" d="M310.1,207.5c.84.42,1.6.84,2.436,1.26,2.772,1.428,5.543,2.94,8.315,4.367" transform="translate(-299.853 -64.518)" fill="none" stroke="#430f76" stroke-linecap="round" stroke-linejoin="round" stroke-miterlimit="10" stroke-width="1"/>
        <path id="Trazado_903036" data-name="Trazado 903036" d="M312.623,209.3a4.445,4.445,0,0,0-.336,4.955,9.98,9.98,0,0,0,3.78,3.7c.084.084.168.084.252.168a34.25,34.25,0,0,0,4.871,2.688" transform="translate(-300.108 -64.806)" fill="none" stroke="#430f76" stroke-linecap="round" stroke-linejoin="round" stroke-miterlimit="10" stroke-width="1"/>
        <path id="Trazado_903037" data-name="Trazado 903037" d="M440.535,253.705c-2.352,5.543-4.7,11.087-8.315,15.79-3.611,4.787-8.651,8.735-14.53,9.827-6.635,1.26-13.438-1.092-19.569-3.947a126.741,126.741,0,0,1-30.32-19.569h0c1.68-5.375.84-11.255,1.764-16.8.336-2.016,1.008-4.2,2.856-5.207,9.407,3.444,18.982,6.467,28.64,9.239" transform="translate(-309.092 -68.729)" fill="none" stroke="#430f76" stroke-linecap="round" stroke-linejoin="round" stroke-miterlimit="10" stroke-width="1"/>
      </g>
      <g id="Grupo_1108131" data-name="Grupo 1108131" transform="translate(67.319 108.35)">
        <path id="Trazado_903038" data-name="Trazado 903038" d="M174.363,179.4V169.318a3.055,3.055,0,0,0-5.543-1.764l-9.575,13.606a2.993,2.993,0,0,1-2.52,1.26h-49.3a3.011,3.011,0,0,0-3.024,3.024v39.895a3.011,3.011,0,0,0,3.024,3.024h97.763a3.011,3.011,0,0,0,3.024-3.024V185.444a3.011,3.011,0,0,0-3.024-3.024h-27.8A3.011,3.011,0,0,1,174.363,179.4Z" transform="translate(-104.4 -166.266)" fill="#bcf275"/>
        <g id="Grupo_1108130" data-name="Grupo 1108130" transform="translate(11.339 26.065)">
          <rect id="Rectángulo_405477" data-name="Rectángulo 405477" width="48.63" height="6.635" fill="#361fa0"/>
          <rect id="Rectángulo_405478" data-name="Rectángulo 405478" width="29.984" height="6.635" transform="translate(54.341)" fill="#5c7cef"/>
          <rect id="Rectángulo_405479" data-name="Rectángulo 405479" width="29.48" height="6.635" transform="translate(0 10.247)" fill="#fff"/>
          <rect id="Rectángulo_405480" data-name="Rectángulo 405480" width="33.596" height="6.635" transform="translate(35.695 10.247)" fill="#5c7cef"/>
          <rect id="Rectángulo_405481" data-name="Rectángulo 405481" width="8.903" height="6.635" transform="translate(84.281 16.988) rotate(180)" fill="#fff"/>
          <rect id="Rectángulo_405482" data-name="Rectángulo 405482" width="21.921" height="6.635" transform="translate(0 20.577)" fill="#5c7cef"/>
          <rect id="Rectángulo_405483" data-name="Rectángulo 405483" width="30.992" height="6.635" transform="translate(27.632 20.577)" fill="#361fa0"/>
          <rect id="Rectángulo_405484" data-name="Rectángulo 405484" width="19.234" height="6.635" transform="translate(84.262 27.168) rotate(180)" fill="#5c7cef"/>
        </g>
      </g>
      <g id="Grupo_1108133" data-name="Grupo 1108133" transform="translate(158.615 161.262)">
        <path id="Trazado_903039" data-name="Trazado 903039" d="M280.627,242.9V232.318a3.071,3.071,0,0,0-5.627-1.68l-9.071,13.942a3.072,3.072,0,0,1-2.52,1.344H216.124a3.011,3.011,0,0,0-3.024,3.024v39.895a3.011,3.011,0,0,0,3.024,3.024h97.763a3.011,3.011,0,0,0,3.024-3.024V248.948a3.011,3.011,0,0,0-3.024-3.024H283.651A3.011,3.011,0,0,1,280.627,242.9Z" transform="translate(-213.1 -229.265)" fill="#a36eed"/>
        <g id="Grupo_1108132" data-name="Grupo 1108132" transform="translate(9.743 26.887)">
          <rect id="Rectángulo_405485" data-name="Rectángulo 405485" width="48.63" height="6.635" transform="translate(84.299 27.239) rotate(180)" fill="#afb4e8"/>
          <rect id="Rectángulo_405486" data-name="Rectángulo 405486" width="29.984" height="6.635" transform="translate(30.008 27.239) rotate(180)" fill="#fff"/>
          <rect id="Rectángulo_405487" data-name="Rectángulo 405487" width="29.48" height="6.635" transform="translate(84.289 16.937) rotate(180)" fill="#361fa0"/>
          <rect id="Rectángulo_405488" data-name="Rectángulo 405488" width="33.596" height="6.635" transform="translate(48.547 16.937) rotate(180)" fill="#5c7cef"/>
          <rect id="Rectángulo_405489" data-name="Rectángulo 405489" width="8.903" height="6.635" transform="translate(0 10.266)" fill="#361fa0"/>
          <rect id="Rectángulo_405490" data-name="Rectángulo 405490" width="21.921" height="6.635" transform="translate(84.266 6.635) rotate(180)" fill="#5c7cef"/>
          <rect id="Rectángulo_405491" data-name="Rectángulo 405491" width="30.992" height="6.635" transform="translate(56.592 6.635) rotate(180)" fill="#e4e5f8"/>
          <rect id="Rectángulo_405492" data-name="Rectángulo 405492" width="19.234" height="6.635" transform="translate(0 0.019)" fill="#5c7cef"/>
        </g>
      </g>
      <g id="Grupo_1108139" data-name="Grupo 1108139" transform="translate(81.093 9.362)">
        <path id="Trazado_903040" data-name="Trazado 903040" d="M153.773,349.884H89.606A17.815,17.815,0,0,1,71.8,332.078V275.806A17.815,17.815,0,0,1,89.606,258h64.084A17.815,17.815,0,0,1,171.5,275.806v56.273A17.69,17.69,0,0,1,153.773,349.884Z" transform="translate(-71.8 -258)" fill="#361fa0"/>
        <g id="Grupo_1108138" data-name="Grupo 1108138" transform="translate(15.034 11.087)">
          <path id="Trazado_903041" data-name="Trazado 903041" d="M141.127,330.1H113.075a7.492,7.492,0,0,1-7.475-7.475V294.575a7.492,7.492,0,0,1,7.475-7.475h28.052a7.492,7.492,0,0,1,7.475,7.475v28.052A7.492,7.492,0,0,1,141.127,330.1Z" transform="translate(-92.246 -273.746)" fill="#fff"/>
          <path id="Trazado_903042" data-name="Trazado 903042" d="M136.966,321.741h-15.79a3.28,3.28,0,0,1-3.276-3.276v-15.79a3.28,3.28,0,0,1,3.276-3.276h15.79a3.28,3.28,0,0,1,3.276,3.276v15.79A3.28,3.28,0,0,1,136.966,321.741Z" transform="translate(-94.215 -275.715)" fill="#bcf275"/>
          <g id="Grupo_1108134" data-name="Grupo 1108134" transform="translate(21.417)">
            <line id="Línea_1862" data-name="Línea 1862" y1="13.354" fill="none" stroke="#89f9db" stroke-miterlimit="10" stroke-width="4"/>
            <line id="Línea_1863" data-name="Línea 1863" y1="13.354" transform="translate(6.719)" fill="none" stroke="#89f9db" stroke-miterlimit="10" stroke-width="4"/>
            <line id="Línea_1864" data-name="Línea 1864" y1="13.354" transform="translate(13.438)" fill="none" stroke="#89f9db" stroke-miterlimit="10" stroke-width="4"/>
            <line id="Línea_1865" data-name="Línea 1865" y1="13.354" transform="translate(20.157)" fill="none" stroke="#89f9db" stroke-miterlimit="10" stroke-width="4"/>
            <line id="Línea_1866" data-name="Línea 1866" y1="13.354" transform="translate(26.877)" fill="none" stroke="#89f9db" stroke-miterlimit="10" stroke-width="4"/>
          </g>
          <g id="Grupo_1108135" data-name="Grupo 1108135" transform="translate(0 21.417)">
            <line id="Línea_1867" data-name="Línea 1867" x1="13.354" transform="translate(0 26.877)" fill="none" stroke="#89f9db" stroke-miterlimit="10" stroke-width="4"/>
            <line id="Línea_1868" data-name="Línea 1868" x1="13.354" transform="translate(0 20.157)" fill="none" stroke="#89f9db" stroke-miterlimit="10" stroke-width="4"/>
            <line id="Línea_1869" data-name="Línea 1869" x1="13.354" transform="translate(0 13.438)" fill="none" stroke="#89f9db" stroke-miterlimit="10" stroke-width="4"/>
            <line id="Línea_1870" data-name="Línea 1870" x1="13.354" transform="translate(0 6.719)" fill="none" stroke="#89f9db" stroke-miterlimit="10" stroke-width="4"/>
            <line id="Línea_1871" data-name="Línea 1871" x1="13.354" fill="none" stroke="#89f9db" stroke-miterlimit="10" stroke-width="4"/>
          </g>
          <g id="Grupo_1108136" data-name="Grupo 1108136" transform="translate(21.417 56.357)">
            <line id="Línea_1872" data-name="Línea 1872" y2="13.354" transform="translate(26.877)" fill="none" stroke="#89f9db" stroke-miterlimit="10" stroke-width="4"/>
            <line id="Línea_1873" data-name="Línea 1873" y2="13.354" transform="translate(20.157)" fill="none" stroke="#89f9db" stroke-miterlimit="10" stroke-width="4"/>
            <line id="Línea_1874" data-name="Línea 1874" y2="13.354" transform="translate(13.438)" fill="none" stroke="#89f9db" stroke-miterlimit="10" stroke-width="4"/>
            <line id="Línea_1875" data-name="Línea 1875" y2="13.354" transform="translate(6.719)" fill="none" stroke="#89f9db" stroke-miterlimit="10" stroke-width="4"/>
            <line id="Línea_1876" data-name="Línea 1876" y2="13.354" fill="none" stroke="#89f9db" stroke-miterlimit="10" stroke-width="4"/>
          </g>
          <g id="Grupo_1108137" data-name="Grupo 1108137" transform="translate(56.357 21.501)">
            <line id="Línea_1877" data-name="Línea 1877" x2="13.354" fill="none" stroke="#89f9db" stroke-miterlimit="10" stroke-width="4"/>
            <line id="Línea_1878" data-name="Línea 1878" x2="13.354" transform="translate(0 6.719)" fill="none" stroke="#89f9db" stroke-miterlimit="10" stroke-width="4"/>
            <line id="Línea_1879" data-name="Línea 1879" x2="13.354" transform="translate(0 13.354)" fill="none" stroke="#89f9db" stroke-miterlimit="10" stroke-width="4"/>
            <line id="Línea_1880" data-name="Línea 1880" x2="13.354" transform="translate(0 20.073)" fill="none" stroke="#89f9db" stroke-miterlimit="10" stroke-width="4"/>
            <line id="Línea_1881" data-name="Línea 1881" x2="13.354" transform="translate(0 26.793)" fill="none" stroke="#89f9db" stroke-miterlimit="10" stroke-width="4"/>
          </g>
        </g>
      </g>
      <g id="Grupo_1108141" data-name="Grupo 1108141" transform="translate(220.683 78.31)">
        <path id="Trazado_903043" data-name="Trazado 903043" d="M347.3,165.523H296.239A9.212,9.212,0,0,1,287,156.285V139.739a9.212,9.212,0,0,1,9.239-9.239H347.3a9.212,9.212,0,0,1,9.239,9.239v16.546A9.266,9.266,0,0,1,347.3,165.523Z" transform="translate(-287 -130.5)" fill="#e4e5f8"/>
        <g id="Grupo_1108140" data-name="Grupo 1108140" transform="translate(10.499 6.383)">
          <path id="Trazado_903044" data-name="Trazado 903044" d="M314.45,157.83l-14.95-6.635v-2.52l14.95-7.475v4.367l-9.155,4.2,9.155,3.7Z" transform="translate(-299.5 -138.596)" fill="#430f76"/>
          <path id="Trazado_903045" data-name="Trazado 903045" d="M333.786,138.1l-8.063,22.173H320.6l8.063-22.173Z" transform="translate(-302.878 -138.1)" fill="#430f76"/>
          <path id="Trazado_903046" data-name="Trazado 903046" d="M339.5,153.462l9.155-3.7-9.155-4.2V141.2l14.95,7.475v2.52L339.5,157.83Z" transform="translate(-305.904 -138.596)" fill="#430f76"/>
        </g>
      </g>
    </g>
  </g>
</svg>
