<svg xmlns="http://www.w3.org/2000/svg" width="400" height="569" viewBox="0 0 400 569">
  <g id="Grupo_1108240" data-name="Grupo 1108240" transform="translate(-600 -16914)">
    <path id="Trazado_903860" data-name="Trazado 903860" d="M18,0H382a18,18,0,0,1,18,18V551a18,18,0,0,1-18,18H18A18,18,0,0,1,0,551V18A18,18,0,0,1,18,0Z" transform="translate(600 16914)" fill="#041c58"/>
    <path id="Trazado_903862" data-name="Trazado 903862" d="M0,0H400V86H0Z" transform="translate(600 16949)" fill="#294eaa"/>
    <path id="Trazado_903873" data-name="Trazado 903873" d="M0,0H400V38H0Z" transform="translate(600 17228)" fill="#08122b"/>
    <path id="Trazado_903877" data-name="Trazado 903877" d="M0,0H400V30H0Z" transform="translate(600 17342)" fill="#2f4782"/>
    <g id="Grupo_1107940" data-name="Grupo 1107940" transform="translate(234.333 710.5)">
      <line id="Línea_1769" data-name="Línea 1769" x2="6.583" y2="6.583" transform="translate(388.5 16249.5)" fill="none" stroke="#fff" stroke-linecap="round" stroke-width="2"/>
      <line id="Línea_1770" data-name="Línea 1770" x1="6.583" y2="6.583" transform="translate(395.083 16249.5)" fill="none" stroke="#fff" stroke-linecap="round" stroke-width="2"/>
    </g>
    <g id="Grupo_1107943" data-name="Grupo 1107943" transform="translate(-15623.375 17690.084) rotate(-90)">
      <line id="Línea_1769-2" data-name="Línea 1769" x2="6.583" y2="6.583" transform="translate(388.5 16249.5)" fill="none" stroke="#fff" stroke-linecap="round" stroke-width="2"/>
      <line id="Línea_1770-2" data-name="Línea 1770" x1="6.583" y2="6.583" transform="translate(395.083 16249.5)" fill="none" stroke="#fff" stroke-linecap="round" stroke-width="2"/>
    </g>
    <g id="Grupo_1107944" data-name="Grupo 1107944" transform="translate(-15623.375 17721.084) rotate(-90)">
      <line id="Línea_1769-3" data-name="Línea 1769" x2="6.583" y2="6.583" transform="translate(388.5 16249.5)" fill="none" stroke="#fff" stroke-linecap="round" stroke-width="2"/>
      <line id="Línea_1770-3" data-name="Línea 1770" x1="6.583" y2="6.583" transform="translate(395.083 16249.5)" fill="none" stroke="#fff" stroke-linecap="round" stroke-width="2"/>
    </g>
    <g id="Grupo_1107946" data-name="Grupo 1107946" transform="translate(-15623.375 17845.084) rotate(-90)">
      <line id="Línea_1769-4" data-name="Línea 1769" x2="6.583" y2="6.583" transform="translate(388.5 16249.5)" fill="none" stroke="#fff" stroke-linecap="round" stroke-width="2"/>
      <line id="Línea_1770-4" data-name="Línea 1770" x1="6.583" y2="6.583" transform="translate(395.083 16249.5)" fill="none" stroke="#fff" stroke-linecap="round" stroke-width="2"/>
    </g>
    <g id="Grupo_1107945" data-name="Grupo 1107945" transform="translate(234.333 1104.209)">
      <line id="Línea_1769-5" data-name="Línea 1769" x2="6.583" y2="6.583" transform="translate(388.5 16249.5)" fill="none" stroke="#fff" stroke-linecap="round" stroke-width="2"/>
      <line id="Línea_1770-5" data-name="Línea 1770" x1="6.583" y2="6.583" transform="translate(395.083 16249.5)" fill="none" stroke="#fff" stroke-linecap="round" stroke-width="2"/>
    </g>
    <path id="Trazado_903861" data-name="Trazado 903861" d="M4.052-2.373h5.37V0H.967V-12.8H4.052Zm6.161-2.47a5.613,5.613,0,0,1,.554-2.536,3.96,3.96,0,0,1,1.591-1.709,4.791,4.791,0,0,1,2.435-.6,4.373,4.373,0,0,1,3.366,1.323,5.076,5.076,0,0,1,1.23,3.6v.105a4.925,4.925,0,0,1-1.235,3.529A4.384,4.384,0,0,1,14.81.176a4.434,4.434,0,0,1-3.261-1.217,4.761,4.761,0,0,1-1.327-3.3Zm2.962.185a3.538,3.538,0,0,0,.413,1.934,1.376,1.376,0,0,0,1.222.615q1.582,0,1.617-2.435v-.3q0-2.558-1.635-2.558-1.485,0-1.608,2.206Zm11.54,2.549a1.317,1.317,0,0,0,.967-.338,1.241,1.241,0,0,0,.334-.945h2.777A3.288,3.288,0,0,1,27.672-.826a4.168,4.168,0,0,1-2.887,1,4.22,4.22,0,0,1-3.27-1.3,5.125,5.125,0,0,1-1.2-3.6v-.123A5.792,5.792,0,0,1,20.852-7.4a3.872,3.872,0,0,1,1.534-1.7,4.573,4.573,0,0,1,2.373-.593A4.116,4.116,0,0,1,27.7-8.657a3.647,3.647,0,0,1,1.09,2.786H26.016A1.626,1.626,0,0,0,25.655-7a1.244,1.244,0,0,0-.967-.4q-1.151,0-1.345,1.468a10.357,10.357,0,0,0-.062,1.283,4.068,4.068,0,0,0,.343,1.986A1.187,1.187,0,0,0,24.715-2.109ZM35.4,0a3.344,3.344,0,0,1-.281-.853A2.754,2.754,0,0,1,32.836.176a3.374,3.374,0,0,1-2.285-.813,2.588,2.588,0,0,1-.94-2.043,2.66,2.66,0,0,1,1.143-2.338,5.821,5.821,0,0,1,3.322-.791h.914v-.5q0-1.316-1.134-1.316A.927.927,0,0,0,32.8-6.587H29.839a2.655,2.655,0,0,1,1.173-2.239A4.931,4.931,0,0,1,34-9.686a4.323,4.323,0,0,1,2.874.888A3.086,3.086,0,0,1,37.96-6.363v4.21a4.311,4.311,0,0,0,.4,2V0ZM33.548-1.934a1.652,1.652,0,0,0,.918-.237,1.487,1.487,0,0,0,.523-.536V-4.228h-.861q-1.547,0-1.547,1.389a.848.848,0,0,0,.272.655A.986.986,0,0,0,33.548-1.934ZM42.724,0H39.753V-13.5h2.971Z" transform="translate(620 16937)" fill="#fff"/>
    <path id="Trazado_903863" data-name="Trazado 903863" d="M8.6-5h1.3v2.285H8.6V0H5.643V-2.716H.694L.519-4.526l5.124-8.244V-12.8H8.6ZM3.34-5h2.3V-8.938l-.185.3ZM15.873,0V-12.8H20a6.064,6.064,0,0,1,3.05.769,5.406,5.406,0,0,1,2.114,2.171,6.554,6.554,0,0,1,.769,3.142v.589a6.592,6.592,0,0,1-.743,3.151A5.429,5.429,0,0,1,23.093-.8a5.93,5.93,0,0,1-3.01.8Zm3.085-10.415v8.042H20.03a2.4,2.4,0,0,0,2.039-.945,4.63,4.63,0,0,0,.712-2.808V-6.68a4.592,4.592,0,0,0-.712-2.795A2.442,2.442,0,0,0,20-10.415ZM27.51,0V-12.8h4.6a6.509,6.509,0,0,1,3.757.905,3.012,3.012,0,0,1,1.288,2.628,3.045,3.045,0,0,1-.457,1.7A2.663,2.663,0,0,1,35.35-6.53a2.7,2.7,0,0,1,1.538.984,2.862,2.862,0,0,1,.536,1.758A3.388,3.388,0,0,1,36.233-.962,5.667,5.667,0,0,1,32.7,0Zm3.085-5.44v3.067h2.021A1.923,1.923,0,0,0,33.9-2.755a1.338,1.338,0,0,0,.448-1.077A1.419,1.419,0,0,0,32.757-5.44Zm0-2.021H32.2a2.285,2.285,0,0,0,1.441-.37A1.314,1.314,0,0,0,34.075-8.9a1.379,1.379,0,0,0-.466-1.168,2.493,2.493,0,0,0-1.5-.357H30.595ZM45.721-3.4a1.268,1.268,0,0,0-.479-1.055,5.954,5.954,0,0,0-1.683-.782,16.147,16.147,0,0,1-1.969-.782Q39.1-7.242,39.1-9.378a3.011,3.011,0,0,1,.62-1.876,4.008,4.008,0,0,1,1.753-1.266,6.823,6.823,0,0,1,2.549-.453,5.969,5.969,0,0,1,2.474.492,3.917,3.917,0,0,1,1.7,1.4A3.661,3.661,0,0,1,48.806-9H45.729a1.547,1.547,0,0,0-.479-1.213,1.867,1.867,0,0,0-1.3-.431,2.106,2.106,0,0,0-1.305.365,1.119,1.119,0,0,0-.479.927,1.127,1.127,0,0,0,.527.892,6.65,6.65,0,0,0,1.854.826,11.36,11.36,0,0,1,2.18.918,3.663,3.663,0,0,1,2.074,3.3A3.125,3.125,0,0,1,47.54-.782a5.629,5.629,0,0,1-3.472.958,6.888,6.888,0,0,1-2.817-.558,4.247,4.247,0,0,1-1.9-1.529,3.985,3.985,0,0,1-.637-2.237H41.81a1.963,1.963,0,0,0,.532,1.516,2.513,2.513,0,0,0,1.727.488,1.985,1.985,0,0,0,1.208-.33A1.088,1.088,0,0,0,45.721-3.4Z" transform="translate(645 16969)" fill="#7291df"/>
    <path id="Trazado_903864" data-name="Trazado 903864" d="M9.712,0H.782V-1.934L4.9-6.258A4.909,4.909,0,0,0,6.416-9.009a1.913,1.913,0,0,0-.36-1.257A1.287,1.287,0,0,0,5.01-10.7a1.3,1.3,0,0,0-1.1.576,2.366,2.366,0,0,0-.422,1.437H.519a4.2,4.2,0,0,1,.589-2.175,4.129,4.129,0,0,1,1.635-1.56,4.856,4.856,0,0,1,2.338-.562,4.777,4.777,0,0,1,3.195.958A3.42,3.42,0,0,1,9.4-9.272,4,4,0,0,1,9.114-7.8,6.456,6.456,0,0,1,8.24-6.3a22.029,22.029,0,0,1-1.912,2.1L4.676-2.285H9.712ZM26.227-4.333a4.673,4.673,0,0,1-.721,2.36,4.35,4.35,0,0,1-1.85,1.586,6.3,6.3,0,0,1-2.72.563,5.025,5.025,0,0,1-3.973-1.644,6.786,6.786,0,0,1-1.45-4.641v-.633a7.746,7.746,0,0,1,.655-3.292,4.961,4.961,0,0,1,1.885-2.18,5.26,5.26,0,0,1,2.848-.769,5.516,5.516,0,0,1,3.744,1.226,4.844,4.844,0,0,1,1.608,3.379H23.177a2.292,2.292,0,0,0-.589-1.679,2.422,2.422,0,0,0-1.687-.51,1.843,1.843,0,0,0-1.687.861,5.536,5.536,0,0,0-.562,2.751v.905a6.126,6.126,0,0,0,.514,2.927,1.882,1.882,0,0,0,1.771.879,2.369,2.369,0,0,0,1.626-.5,2.126,2.126,0,0,0,.6-1.591Zm12.3-1.8a7.546,7.546,0,0,1-.694,3.313A5.132,5.132,0,0,1,35.855-.6a5.494,5.494,0,0,1-2.914.778,5.572,5.572,0,0,1-2.9-.751,5.123,5.123,0,0,1-1.973-2.149,7.329,7.329,0,0,1-.743-3.208v-.721a7.58,7.58,0,0,1,.69-3.318,5.119,5.119,0,0,1,1.978-2.219,5.533,5.533,0,0,1,2.931-.782,5.479,5.479,0,0,1,2.9.773A5.211,5.211,0,0,1,37.806-10a7.362,7.362,0,0,1,.716,3.274Zm-3.138-.536a5.381,5.381,0,0,0-.637-2.9,2.044,2.044,0,0,0-1.824-.989q-2.32,0-2.452,3.48l-.009.94a5.535,5.535,0,0,0,.624,2.892,2.041,2.041,0,0,0,1.854,1.011,2.016,2.016,0,0,0,1.8-.993,5.383,5.383,0,0,0,.642-2.856Zm7.813,4.3h5.37V0H40.113V-12.8H43.2Zm9.756,0h5.37V0H49.869V-12.8h3.085ZM67.562-5.432H62.71v3.059h5.73V0H59.625V-12.8h8.833v2.382H62.71v2.7h4.852Zm12.489,1.1a4.673,4.673,0,0,1-.721,2.36A4.35,4.35,0,0,1,77.48-.387a6.3,6.3,0,0,1-2.72.563,5.025,5.025,0,0,1-3.973-1.644,6.786,6.786,0,0,1-1.45-4.641v-.633a7.746,7.746,0,0,1,.655-3.292,4.961,4.961,0,0,1,1.885-2.18,5.26,5.26,0,0,1,2.848-.769,5.516,5.516,0,0,1,3.744,1.226,4.844,4.844,0,0,1,1.608,3.379H77a2.292,2.292,0,0,0-.589-1.679,2.422,2.422,0,0,0-1.687-.51,1.843,1.843,0,0,0-1.687.861,5.536,5.536,0,0,0-.562,2.751v.905a6.126,6.126,0,0,0,.514,2.927,1.882,1.882,0,0,0,1.771.879,2.369,2.369,0,0,0,1.626-.5,2.126,2.126,0,0,0,.6-1.591ZM91.3-10.415H87.46V0H84.375V-10.415H80.6V-12.8H91.3ZM95.889,0H92.813V-12.8h3.076ZM108.87-6.135a7.546,7.546,0,0,1-.694,3.313A5.132,5.132,0,0,1,106.2-.6a5.494,5.494,0,0,1-2.914.778,5.572,5.572,0,0,1-2.9-.751,5.123,5.123,0,0,1-1.973-2.149,7.329,7.329,0,0,1-.743-3.208v-.721a7.58,7.58,0,0,1,.69-3.318,5.119,5.119,0,0,1,1.978-2.219,5.533,5.533,0,0,1,2.931-.782,5.479,5.479,0,0,1,2.9.773,5.211,5.211,0,0,1,1.982,2.2,7.362,7.362,0,0,1,.716,3.274Zm-3.138-.536a5.381,5.381,0,0,0-.637-2.9,2.044,2.044,0,0,0-1.824-.989q-2.32,0-2.452,3.48l-.009.94a5.535,5.535,0,0,0,.624,2.892,2.041,2.041,0,0,0,1.854,1.011,2.016,2.016,0,0,0,1.8-.993,5.383,5.383,0,0,0,.642-2.856ZM121.148,0h-3.067l-4.535-7.963V0h-3.085V-12.8h3.085l4.526,7.963V-12.8h3.076ZM129.7-3.4a1.268,1.268,0,0,0-.479-1.055,5.954,5.954,0,0,0-1.683-.782,16.147,16.147,0,0,1-1.969-.782q-2.487-1.222-2.487-3.357a3.011,3.011,0,0,1,.62-1.876,4.008,4.008,0,0,1,1.753-1.266A6.823,6.823,0,0,1,128-12.973a5.969,5.969,0,0,1,2.474.492,3.917,3.917,0,0,1,1.7,1.4A3.661,3.661,0,0,1,132.785-9h-3.076a1.547,1.547,0,0,0-.479-1.213,1.867,1.867,0,0,0-1.3-.431,2.106,2.106,0,0,0-1.305.365,1.119,1.119,0,0,0-.479.927,1.127,1.127,0,0,0,.527.892,6.65,6.65,0,0,0,1.854.826,11.36,11.36,0,0,1,2.18.918,3.663,3.663,0,0,1,2.074,3.3A3.125,3.125,0,0,1,131.52-.782a5.629,5.629,0,0,1-3.472.958,6.888,6.888,0,0,1-2.817-.558,4.247,4.247,0,0,1-1.9-1.529,3.985,3.985,0,0,1-.637-2.237h3.094a1.963,1.963,0,0,0,.532,1.516,2.513,2.513,0,0,0,1.727.488,1.985,1.985,0,0,0,1.208-.33A1.088,1.088,0,0,0,129.7-3.4Z" transform="translate(730 16969)" fill="#7291df"/>
    <path id="Trazado_903865" data-name="Trazado 903865" d="M14,0h86a14,14,0,0,1,0,28H14A14,14,0,0,1,14,0Z" transform="translate(645 16993)" fill="#041c58"/>
    <path id="Trazado_903866" data-name="Trazado 903866" d="M9.026-5.1H4.052V0H.967V-12.8H9.527v2.382H4.052v2.944H9.026Zm7.365,2.707H12.164L11.426,0H8.13l4.693-12.8h2.9L20.452,0H17.139ZM12.9-4.772h2.751l-1.38-4.438ZM25.673-3.48,28.222-12.8h3.445L27.36,0H23.985L19.714-12.8h3.419ZM43.321-6.135a7.546,7.546,0,0,1-.694,3.313A5.132,5.132,0,0,1,40.654-.6,5.494,5.494,0,0,1,37.74.176a5.572,5.572,0,0,1-2.9-.751,5.123,5.123,0,0,1-1.973-2.149,7.329,7.329,0,0,1-.743-3.208v-.721a7.58,7.58,0,0,1,.69-3.318,5.119,5.119,0,0,1,1.978-2.219,5.533,5.533,0,0,1,2.931-.782,5.479,5.479,0,0,1,2.9.773A5.211,5.211,0,0,1,42.6-10a7.362,7.362,0,0,1,.716,3.274Zm-3.138-.536a5.381,5.381,0,0,0-.637-2.9,2.044,2.044,0,0,0-1.824-.989q-2.32,0-2.452,3.48l-.009.94a5.535,5.535,0,0,0,.624,2.892A2.041,2.041,0,0,0,37.74-2.232a2.016,2.016,0,0,0,1.8-.993,5.383,5.383,0,0,0,.642-2.856Zm9.483,2.145H48V0H44.912V-12.8h5.036a5.621,5.621,0,0,1,3.56,1.01,3.421,3.421,0,0,1,1.283,2.853,4.155,4.155,0,0,1-.541,2.213A3.837,3.837,0,0,1,52.559-5.3L55.23-.132V0h-3.3ZM48-6.9h1.951a1.751,1.751,0,0,0,1.323-.463,1.788,1.788,0,0,0,.444-1.291,1.809,1.809,0,0,0-.448-1.3,1.735,1.735,0,0,0-1.318-.471H48ZM59.941,0H56.865V-12.8h3.076Zm12.19-10.415H68.291V0H65.206V-10.415H61.436V-12.8h10.7Zm9.237,4.983H76.518v3.059h5.73V0H73.433V-12.8h8.833v2.382H76.518v2.7h4.852Z" transform="translate(670 17013)" fill="#9cb1e8"/>
    <path id="Trazado_903867" data-name="Trazado 903867" d="M11.663,0H8.6V-5.344H4.052V0H.967V-12.8H4.052v5.08H8.6V-12.8h3.067ZM24.451-6.135a7.546,7.546,0,0,1-.694,3.313A5.132,5.132,0,0,1,21.784-.6,5.494,5.494,0,0,1,18.87.176a5.572,5.572,0,0,1-2.9-.751A5.123,5.123,0,0,1,14-2.725a7.329,7.329,0,0,1-.743-3.208v-.721a7.58,7.58,0,0,1,.69-3.318,5.119,5.119,0,0,1,1.978-2.219,5.533,5.533,0,0,1,2.931-.782,5.479,5.479,0,0,1,2.9.773A5.211,5.211,0,0,1,23.735-10a7.362,7.362,0,0,1,.716,3.274Zm-3.138-.536a5.381,5.381,0,0,0-.637-2.9,2.044,2.044,0,0,0-1.824-.989q-2.32,0-2.452,3.48l-.009.94a5.535,5.535,0,0,0,.624,2.892A2.041,2.041,0,0,0,18.87-2.232a2.016,2.016,0,0,0,1.8-.993,5.383,5.383,0,0,0,.642-2.856ZM32.643-3.4a1.268,1.268,0,0,0-.479-1.055,5.954,5.954,0,0,0-1.683-.782,16.147,16.147,0,0,1-1.969-.782q-2.487-1.222-2.487-3.357a3.011,3.011,0,0,1,.62-1.876A4.008,4.008,0,0,1,28.4-12.52a6.823,6.823,0,0,1,2.549-.453,5.969,5.969,0,0,1,2.474.492,3.917,3.917,0,0,1,1.7,1.4A3.661,3.661,0,0,1,35.728-9H32.651a1.547,1.547,0,0,0-.479-1.213,1.867,1.867,0,0,0-1.3-.431,2.106,2.106,0,0,0-1.305.365,1.119,1.119,0,0,0-.479.927,1.127,1.127,0,0,0,.527.892,6.65,6.65,0,0,0,1.854.826,11.36,11.36,0,0,1,2.18.918,3.663,3.663,0,0,1,2.074,3.3A3.125,3.125,0,0,1,34.462-.782,5.629,5.629,0,0,1,30.99.176a6.888,6.888,0,0,1-2.817-.558,4.247,4.247,0,0,1-1.9-1.529,3.985,3.985,0,0,1-.637-2.237h3.094a1.963,1.963,0,0,0,.532,1.516,2.513,2.513,0,0,0,1.727.488,1.985,1.985,0,0,0,1.208-.33A1.088,1.088,0,0,0,32.643-3.4Zm14.713-7.014H43.515V0H40.43V-10.415H36.659V-12.8h10.7Z" transform="translate(670 17059)" fill="#9cb1e8"/>
    <path id="Trazado_903869" data-name="Trazado 903869" d="M11.32-4.333a4.673,4.673,0,0,1-.721,2.36A4.35,4.35,0,0,1,8.75-.387a6.3,6.3,0,0,1-2.72.563A5.025,5.025,0,0,1,2.057-1.468,6.786,6.786,0,0,1,.606-6.108v-.633a7.746,7.746,0,0,1,.655-3.292,4.961,4.961,0,0,1,1.885-2.18,5.26,5.26,0,0,1,2.848-.769,5.516,5.516,0,0,1,3.744,1.226,4.844,4.844,0,0,1,1.608,3.379H8.271a2.292,2.292,0,0,0-.589-1.679,2.422,2.422,0,0,0-1.687-.51A1.843,1.843,0,0,0,4.307-9.7a5.536,5.536,0,0,0-.562,2.751v.905A6.125,6.125,0,0,0,4.258-3.12a1.882,1.882,0,0,0,1.771.879,2.369,2.369,0,0,0,1.626-.5,2.126,2.126,0,0,0,.6-1.591Zm4.544,1.96h5.37V0H12.779V-12.8h3.085ZM32.361-12.8v8.376a4.814,4.814,0,0,1-.606,2.465,3.929,3.929,0,0,1-1.74,1.586,6.131,6.131,0,0,1-2.681.545,5.3,5.3,0,0,1-3.683-1.213A4.326,4.326,0,0,1,22.28-4.359V-12.8h3.1v8.5q.053,2.1,1.951,2.1a1.889,1.889,0,0,0,1.45-.527,2.465,2.465,0,0,0,.492-1.714V-12.8Zm8.525,9.4a1.268,1.268,0,0,0-.479-1.055,5.954,5.954,0,0,0-1.683-.782,16.147,16.147,0,0,1-1.969-.782q-2.487-1.222-2.487-3.357a3.011,3.011,0,0,1,.62-1.876,4.008,4.008,0,0,1,1.753-1.266,6.823,6.823,0,0,1,2.549-.453,5.969,5.969,0,0,1,2.474.492,3.917,3.917,0,0,1,1.7,1.4A3.661,3.661,0,0,1,43.972-9H40.9a1.547,1.547,0,0,0-.479-1.213,1.867,1.867,0,0,0-1.3-.431,2.106,2.106,0,0,0-1.305.365,1.119,1.119,0,0,0-.479.927,1.127,1.127,0,0,0,.527.892,6.65,6.65,0,0,0,1.854.826,11.36,11.36,0,0,1,2.18.918,3.663,3.663,0,0,1,2.074,3.3A3.125,3.125,0,0,1,42.706-.782a5.629,5.629,0,0,1-3.472.958,6.888,6.888,0,0,1-2.817-.558,4.247,4.247,0,0,1-1.9-1.529,3.985,3.985,0,0,1-.637-2.237h3.094a1.963,1.963,0,0,0,.532,1.516,2.513,2.513,0,0,0,1.727.488,1.985,1.985,0,0,0,1.208-.33A1.088,1.088,0,0,0,40.887-3.4ZM55.6-10.415H51.759V0H48.674V-10.415H44.9V-12.8H55.6Zm9.237,4.983H59.985v3.059h5.73V0H56.9V-12.8h8.833v2.382H59.985v2.7h4.852Zm6.891.905h-1.67V0H66.973V-12.8h5.036a5.621,5.621,0,0,1,3.56,1.01,3.421,3.421,0,0,1,1.283,2.853,4.155,4.155,0,0,1-.541,2.213A3.837,3.837,0,0,1,74.619-5.3L77.291-.132V0h-3.3ZM70.058-6.9h1.951a1.751,1.751,0,0,0,1.323-.463,1.788,1.788,0,0,0,.444-1.291,1.809,1.809,0,0,0-.448-1.3,1.735,1.735,0,0,0-1.318-.471H70.058Z" transform="translate(670 17121)" fill="#9cb1e8"/>
    <path id="Trazado_903871" data-name="Trazado 903871" d="M8.9-5.432H4.052v3.059h5.73V0H.967V-12.8H9.8v2.382H4.052v2.7H8.9ZM11.039,0V-12.8h4.122a6.064,6.064,0,0,1,3.05.769,5.406,5.406,0,0,1,2.114,2.171,6.554,6.554,0,0,1,.769,3.142v.589a6.592,6.592,0,0,1-.743,3.151A5.429,5.429,0,0,1,18.259-.8a5.93,5.93,0,0,1-3.01.8Zm3.085-10.415v8.042H15.2a2.4,2.4,0,0,0,2.039-.945,4.63,4.63,0,0,0,.712-2.808V-6.68a4.592,4.592,0,0,0-.712-2.795,2.442,2.442,0,0,0-2.074-.94ZM25.963,0H22.887V-12.8h3.076Zm12.19-10.415H34.313V0H31.228V-10.415H27.457V-12.8h10.7ZM42.741,0H39.665V-12.8h3.076ZM55.723-6.135a7.546,7.546,0,0,1-.694,3.313A5.132,5.132,0,0,1,53.055-.6a5.494,5.494,0,0,1-2.914.778,5.572,5.572,0,0,1-2.9-.751,5.123,5.123,0,0,1-1.973-2.149,7.329,7.329,0,0,1-.743-3.208v-.721a7.58,7.58,0,0,1,.69-3.318,5.119,5.119,0,0,1,1.978-2.219,5.533,5.533,0,0,1,2.931-.782,5.479,5.479,0,0,1,2.9.773A5.211,5.211,0,0,1,55.006-10a7.362,7.362,0,0,1,.716,3.274Zm-3.138-.536a5.381,5.381,0,0,0-.637-2.9,2.044,2.044,0,0,0-1.824-.989q-2.32,0-2.452,3.48l-.009.94a5.535,5.535,0,0,0,.624,2.892,2.041,2.041,0,0,0,1.854,1.011,2.016,2.016,0,0,0,1.8-.993,5.383,5.383,0,0,0,.642-2.856ZM68,0H64.934L60.4-7.963V0H57.313V-12.8H60.4l4.526,7.963V-12.8H68Z" transform="translate(670 17183)" fill="#9cb1e8"/>
    <path id="Trazado_903874" data-name="Trazado 903874" d="M9.026-5.1H4.052V0H.967V-12.8H9.527v2.382H4.052v2.944H9.026ZM13.8,0H10.828V-9.51H13.8ZM10.652-11.962A1.322,1.322,0,0,1,11.109-13a1.724,1.724,0,0,1,1.187-.4,1.724,1.724,0,0,1,1.187.4,1.322,1.322,0,0,1,.457,1.037,1.322,1.322,0,0,1-.457,1.037,1.724,1.724,0,0,1-1.187.4,1.724,1.724,0,0,1-1.187-.4A1.322,1.322,0,0,1,10.652-11.962ZM18.747,0H15.776V-13.5h2.971Zm5.273-11.874V-9.51h1.564v2.057H24.021V-3.1a1.111,1.111,0,0,0,.193.747,1.037,1.037,0,0,0,.765.211,4.345,4.345,0,0,0,.738-.053V-.079a5.466,5.466,0,0,1-1.67.255,3.1,3.1,0,0,1-2.259-.721,2.954,2.954,0,0,1-.729-2.188v-4.72H19.846V-9.51h1.213v-2.364ZM31.351.176a4.889,4.889,0,0,1-3.542-1.305,4.507,4.507,0,0,1-1.354-3.4v-.246A5.84,5.84,0,0,1,27-7.348a3.955,3.955,0,0,1,1.578-1.727,4.763,4.763,0,0,1,2.461-.611A4.117,4.117,0,0,1,34.2-8.442a4.887,4.887,0,0,1,1.16,3.467v1.151H29.47a2.135,2.135,0,0,0,.694,1.257,2.066,2.066,0,0,0,1.389.457,2.662,2.662,0,0,0,2.2-.984l1.354,1.6A3.784,3.784,0,0,1,33.535-.277,5.3,5.3,0,0,1,31.351.176ZM31.017-7.4q-1.3,0-1.547,1.723h2.988v-.229a1.467,1.467,0,0,0-.36-1.1A1.434,1.434,0,0,0,31.017-7.4ZM42.3-6.829l-.976-.07a1.752,1.752,0,0,0-1.793.879V0H36.571V-9.51h2.777l.1,1.222a2.294,2.294,0,0,1,2.083-1.4,2.888,2.888,0,0,1,.826.105Zm9.352,2.681L53.235-9.51h3.173l-3.876,11.1-.167.4a2.944,2.944,0,0,1-2.918,1.846,4.642,4.642,0,0,1-1.222-.175V1.556h.387a2.026,2.026,0,0,0,.954-.18,1.094,1.094,0,0,0,.488-.647L50.291.1l-3.3-9.605H50.15Zm5.15-.694a5.613,5.613,0,0,1,.554-2.536,3.96,3.96,0,0,1,1.591-1.709,4.791,4.791,0,0,1,2.435-.6,4.373,4.373,0,0,1,3.366,1.323,5.076,5.076,0,0,1,1.23,3.6v.105a4.925,4.925,0,0,1-1.235,3.529A4.384,4.384,0,0,1,61.4.176,4.434,4.434,0,0,1,58.14-1.042a4.761,4.761,0,0,1-1.327-3.3Zm2.962.185a3.538,3.538,0,0,0,.413,1.934,1.376,1.376,0,0,0,1.222.615q1.582,0,1.617-2.435v-.3q0-2.558-1.635-2.558-1.485,0-1.608,2.206Zm13.184,3.63a3.054,3.054,0,0,1-2.54,1.2,3,3,0,0,1-2.369-.91,3.826,3.826,0,0,1-.8-2.615V-9.51H70.2v6.179a1.065,1.065,0,0,0,1.187,1.222,1.548,1.548,0,0,0,1.45-.729V-9.51h2.979V0H73.037Zm10.239-5.8-.976-.07a1.752,1.752,0,0,0-1.793.879V0H77.458V-9.51h2.777l.1,1.222a2.294,2.294,0,0,1,2.083-1.4,2.888,2.888,0,0,1,.826.105Zm5.177,2a5.809,5.809,0,0,1,.976-3.56,3.211,3.211,0,0,1,2.725-1.3,2.731,2.731,0,0,1,2.145,1V-13.5h2.971V0H94.518l-.149-1.02a2.8,2.8,0,0,1-2.32,1.2,3.205,3.205,0,0,1-2.689-1.3A5.993,5.993,0,0,1,88.365-4.825Zm2.962.185q0,2.531,1.477,2.531a1.458,1.458,0,0,0,1.406-.826V-6.557A1.419,1.419,0,0,0,92.821-7.4q-1.371,0-1.485,2.215ZM104.221,0a3.344,3.344,0,0,1-.281-.853A2.754,2.754,0,0,1,101.654.176a3.374,3.374,0,0,1-2.285-.813,2.588,2.588,0,0,1-.94-2.043,2.66,2.66,0,0,1,1.143-2.338,5.821,5.821,0,0,1,3.322-.791h.914v-.5q0-1.316-1.134-1.316a.927.927,0,0,0-1.055,1.042H98.657a2.655,2.655,0,0,1,1.173-2.239,4.931,4.931,0,0,1,2.993-.86A4.323,4.323,0,0,1,105.7-8.8a3.086,3.086,0,0,1,1.081,2.435v4.21a4.311,4.311,0,0,0,.4,2V0Zm-1.854-1.934a1.652,1.652,0,0,0,.918-.237,1.487,1.487,0,0,0,.523-.536V-4.228h-.861q-1.547,0-1.547,1.389a.848.848,0,0,0,.272.655A.986.986,0,0,0,102.366-1.934Zm9.5-9.94V-9.51h1.564v2.057h-1.564V-3.1a1.111,1.111,0,0,0,.193.747,1.037,1.037,0,0,0,.765.211,4.345,4.345,0,0,0,.738-.053V-.079a5.466,5.466,0,0,1-1.67.255,3.1,3.1,0,0,1-2.259-.721,2.954,2.954,0,0,1-.729-2.188v-4.72h-1.213V-9.51h1.213v-2.364ZM119.953,0a3.344,3.344,0,0,1-.281-.853A2.754,2.754,0,0,1,117.387.176,3.374,3.374,0,0,1,115.1-.637a2.588,2.588,0,0,1-.94-2.043A2.66,2.66,0,0,1,115.3-5.019a5.821,5.821,0,0,1,3.322-.791h.914v-.5q0-1.316-1.134-1.316a.927.927,0,0,0-1.055,1.042H114.39a2.655,2.655,0,0,1,1.173-2.239,4.931,4.931,0,0,1,2.993-.86,4.323,4.323,0,0,1,2.874.888,3.086,3.086,0,0,1,1.081,2.435v4.21a4.311,4.311,0,0,0,.4,2V0ZM118.1-1.934a1.652,1.652,0,0,0,.918-.237,1.487,1.487,0,0,0,.523-.536V-4.228h-.861q-1.547,0-1.547,1.389a.848.848,0,0,0,.272.655A.986.986,0,0,0,118.1-1.934Z" transform="translate(670 17255)" fill="#9cb1e8"/>
    <path id="Trazado_903875" data-name="Trazado 903875" d="M8.235-2.391H4.008L3.27,0h-3.3L4.667-12.8h2.9L12.3,0H8.982ZM4.746-4.772H7.5L6.117-9.211Zm7.972-.053a5.809,5.809,0,0,1,.976-3.56,3.211,3.211,0,0,1,2.725-1.3,2.731,2.731,0,0,1,2.145,1V-13.5h2.971V0H18.87l-.149-1.02A2.8,2.8,0,0,1,16.4.176a3.205,3.205,0,0,1-2.689-1.3A5.993,5.993,0,0,1,12.718-4.825Zm2.962.185q0,2.531,1.477,2.531a1.458,1.458,0,0,0,1.406-.826V-6.557A1.419,1.419,0,0,0,17.174-7.4q-1.371,0-1.485,2.215ZM26.016-9.51l.1,1.116a3.27,3.27,0,0,1,2.716-1.292,2.407,2.407,0,0,1,2.435,1.433,3.165,3.165,0,0,1,2.795-1.433q2.892,0,2.971,3.5V0H34.058V-6a1.813,1.813,0,0,0-.246-1.063,1.048,1.048,0,0,0-.9-.334,1.4,1.4,0,0,0-1.31.782l.009.123V0H28.644V-5.985a1.906,1.906,0,0,0-.237-1.081A1.045,1.045,0,0,0,27.5-7.4a1.42,1.42,0,0,0-1.3.782V0H23.238V-9.51ZM41.845,0H38.874V-9.51h2.971ZM38.7-11.962A1.322,1.322,0,0,1,39.155-13a1.724,1.724,0,0,1,1.187-.4,1.724,1.724,0,0,1,1.187.4,1.322,1.322,0,0,1,.457,1.037,1.322,1.322,0,0,1-.457,1.037,1.724,1.724,0,0,1-1.187.4,1.724,1.724,0,0,1-1.187-.4A1.322,1.322,0,0,1,38.7-11.962Zm7.69,2.452.1,1.116A3.225,3.225,0,0,1,49.2-9.686,2.713,2.713,0,0,1,51.42-8.8a4.226,4.226,0,0,1,.76,2.672V0H49.21V-6a1.6,1.6,0,0,0-.29-1.059A1.342,1.342,0,0,0,47.865-7.4a1.413,1.413,0,0,0-1.292.686V0H43.611V-9.51Z" transform="translate(670 17301)" fill="#fff"/>
    <path id="Trazado_903876" data-name="Trazado 903876" d="M4.852-2.109a1.317,1.317,0,0,0,.967-.338,1.241,1.241,0,0,0,.334-.945H8.93A3.288,3.288,0,0,1,7.809-.826a4.168,4.168,0,0,1-2.887,1,4.22,4.22,0,0,1-3.27-1.3,5.125,5.125,0,0,1-1.2-3.6v-.123A5.792,5.792,0,0,1,.989-7.4a3.872,3.872,0,0,1,1.534-1.7A4.573,4.573,0,0,1,4.9-9.686,4.116,4.116,0,0,1,7.84-8.657,3.647,3.647,0,0,1,8.93-5.871H6.152A1.626,1.626,0,0,0,5.792-7a1.244,1.244,0,0,0-.967-.4Q3.674-7.4,3.48-5.933a10.357,10.357,0,0,0-.062,1.283,4.068,4.068,0,0,0,.343,1.986A1.187,1.187,0,0,0,4.852-2.109ZM9.809-4.843a5.613,5.613,0,0,1,.554-2.536,3.96,3.96,0,0,1,1.591-1.709,4.791,4.791,0,0,1,2.435-.6,4.373,4.373,0,0,1,3.366,1.323,5.076,5.076,0,0,1,1.23,3.6v.105A4.925,4.925,0,0,1,17.75-1.129,4.384,4.384,0,0,1,14.405.176a4.434,4.434,0,0,1-3.261-1.217,4.761,4.761,0,0,1-1.327-3.3Zm2.962.185a3.538,3.538,0,0,0,.413,1.934,1.376,1.376,0,0,0,1.222.615q1.582,0,1.617-2.435v-.3q0-2.558-1.635-2.558-1.485,0-1.608,2.206ZM23.01-9.51l.1,1.116a3.225,3.225,0,0,1,2.716-1.292,2.713,2.713,0,0,1,2.219.888,4.226,4.226,0,0,1,.76,2.672V0H25.831V-6a1.6,1.6,0,0,0-.29-1.059A1.342,1.342,0,0,0,24.486-7.4a1.413,1.413,0,0,0-1.292.686V0H20.232V-9.51ZM31.131,0V-7.453h-1.38V-9.51h1.38v-.316a3.631,3.631,0,0,1,1.248-2.909,4.987,4.987,0,0,1,3.243-.949,11.509,11.509,0,0,1,3.094.51l-.4,2.338-.492-.132a7.832,7.832,0,0,0-2.021-.255q-1.7,0-1.7,1.547v.167h1.863v2.057H34.1V0Zm8.947,0H37.1V-9.51h2.979Zm1.459-4.825a6.421,6.421,0,0,1,.475-2.549,3.821,3.821,0,0,1,1.362-1.709,3.591,3.591,0,0,1,2.065-.6,2.855,2.855,0,0,1,2.32,1l.105-.826h2.689V-.36a4.009,4.009,0,0,1-.584,2.184,3.75,3.75,0,0,1-1.692,1.424,6.219,6.219,0,0,1-2.566.5,5.365,5.365,0,0,1-2.026-.4,3.657,3.657,0,0,1-1.5-1.028L43.427.58a2.716,2.716,0,0,0,2.18.976A1.764,1.764,0,0,0,47.575-.466v-.3a2.781,2.781,0,0,1-2.153.94,3.437,3.437,0,0,1-2.812-1.332A5.517,5.517,0,0,1,41.537-4.72Zm2.971.185a3.383,3.383,0,0,0,.439,1.85,1.386,1.386,0,0,0,1.23.681,1.573,1.573,0,0,0,1.4-.642v-4A1.534,1.534,0,0,0,46.2-7.4a1.4,1.4,0,0,0-1.239.708A3.858,3.858,0,0,0,44.508-4.641Z" transform="translate(670 17332)" fill="#fff"/>
    <path id="Trazado_903878" data-name="Trazado 903878" d="M5.432.176A4.889,4.889,0,0,1,1.89-1.129a4.507,4.507,0,0,1-1.354-3.4v-.246a5.84,5.84,0,0,1,.541-2.575A3.955,3.955,0,0,1,2.654-9.075a4.763,4.763,0,0,1,2.461-.611A4.117,4.117,0,0,1,8.279-8.442a4.887,4.887,0,0,1,1.16,3.467v1.151H3.551a2.135,2.135,0,0,0,.694,1.257,2.066,2.066,0,0,0,1.389.457,2.662,2.662,0,0,0,2.2-.984l1.354,1.6A3.784,3.784,0,0,1,7.616-.277,5.3,5.3,0,0,1,5.432.176ZM5.1-7.4q-1.3,0-1.547,1.723H6.539v-.229a1.467,1.467,0,0,0-.36-1.1A1.434,1.434,0,0,0,5.1-7.4ZM13.43-9.51l.1,1.116a3.27,3.27,0,0,1,2.716-1.292,2.407,2.407,0,0,1,2.435,1.433,3.165,3.165,0,0,1,2.795-1.433q2.892,0,2.971,3.5V0H21.472V-6a1.813,1.813,0,0,0-.246-1.063,1.048,1.048,0,0,0-.9-.334,1.4,1.4,0,0,0-1.31.782l.009.123V0H16.058V-5.985a1.906,1.906,0,0,0-.237-1.081,1.045,1.045,0,0,0-.905-.334,1.42,1.42,0,0,0-1.3.782V0H10.652V-9.51ZM34.963-4.685a5.735,5.735,0,0,1-1,3.538A3.2,3.2,0,0,1,31.271.176a2.742,2.742,0,0,1-2.153-.958V3.656H26.156V-9.51h2.769l.088.879a2.742,2.742,0,0,1,2.241-1.055,3.224,3.224,0,0,1,2.733,1.3,5.805,5.805,0,0,1,.976,3.564ZM32-4.869Q32-7.4,30.524-7.4a1.394,1.394,0,0,0-1.406.756V-2.9a1.439,1.439,0,0,0,1.424.791q1.415,0,1.459-2.443ZM39.393,0H36.422V-13.5h2.971Zm6.425.176a4.889,4.889,0,0,1-3.542-1.305,4.507,4.507,0,0,1-1.354-3.4v-.246a5.84,5.84,0,0,1,.541-2.575A3.955,3.955,0,0,1,43.04-9.075,4.763,4.763,0,0,1,45.5-9.686a4.117,4.117,0,0,1,3.164,1.244,4.887,4.887,0,0,1,1.16,3.467v1.151H43.937a2.135,2.135,0,0,0,.694,1.257,2.066,2.066,0,0,0,1.389.457,2.662,2.662,0,0,0,2.2-.984l1.354,1.6A3.784,3.784,0,0,1,48-.277,5.3,5.3,0,0,1,45.817.176ZM45.483-7.4q-1.3,0-1.547,1.723h2.988v-.229a1.467,1.467,0,0,0-.36-1.1A1.434,1.434,0,0,0,45.483-7.4ZM56.373,0a3.344,3.344,0,0,1-.281-.853A2.754,2.754,0,0,1,53.807.176a3.374,3.374,0,0,1-2.285-.813,2.588,2.588,0,0,1-.94-2.043,2.66,2.66,0,0,1,1.143-2.338,5.821,5.821,0,0,1,3.322-.791h.914v-.5q0-1.316-1.134-1.316a.927.927,0,0,0-1.055,1.042H50.81a2.655,2.655,0,0,1,1.173-2.239,4.931,4.931,0,0,1,2.993-.86A4.323,4.323,0,0,1,57.85-8.8a3.086,3.086,0,0,1,1.081,2.435v4.21a4.311,4.311,0,0,0,.4,2V0ZM54.519-1.934a1.652,1.652,0,0,0,.918-.237,1.487,1.487,0,0,0,.523-.536V-4.228H55.1q-1.547,0-1.547,1.389a.848.848,0,0,0,.272.655A.986.986,0,0,0,54.519-1.934ZM60.2-4.825a5.809,5.809,0,0,1,.976-3.56,3.211,3.211,0,0,1,2.725-1.3,2.731,2.731,0,0,1,2.145,1V-13.5h2.971V0H66.349L66.2-1.02a2.8,2.8,0,0,1-2.32,1.2,3.205,3.205,0,0,1-2.689-1.3A5.993,5.993,0,0,1,60.2-4.825Zm2.962.185q0,2.531,1.477,2.531a1.458,1.458,0,0,0,1.406-.826V-6.557A1.419,1.419,0,0,0,64.652-7.4q-1.371,0-1.485,2.215Zm7.163-.2a5.613,5.613,0,0,1,.554-2.536,3.96,3.96,0,0,1,1.591-1.709,4.791,4.791,0,0,1,2.435-.6,4.373,4.373,0,0,1,3.366,1.323,5.076,5.076,0,0,1,1.23,3.6v.105a4.925,4.925,0,0,1-1.235,3.529A4.384,4.384,0,0,1,74.918.176a4.434,4.434,0,0,1-3.261-1.217,4.761,4.761,0,0,1-1.327-3.3Zm2.962.185A3.538,3.538,0,0,0,73.7-2.725a1.376,1.376,0,0,0,1.222.615q1.582,0,1.617-2.435v-.3Q76.535-7.4,74.9-7.4q-1.485,0-1.608,2.206Zm12.5,1.986a.684.684,0,0,0-.4-.606,6.016,6.016,0,0,0-1.5-.475A6.853,6.853,0,0,1,82.055-4.4a3.062,3.062,0,0,1-1.1-.971,2.319,2.319,0,0,1-.378-1.31,2.628,2.628,0,0,1,1.081-2.158,4.453,4.453,0,0,1,2.83-.848,4.934,4.934,0,0,1,3.023.853,2.666,2.666,0,0,1,1.143,2.241H85.685q0-1.143-1.2-1.143a1.194,1.194,0,0,0-.782.259.8.8,0,0,0-.316.646.737.737,0,0,0,.387.642,3.654,3.654,0,0,0,1.235.4,10.671,10.671,0,0,1,1.49.378A2.706,2.706,0,0,1,88.638-2.76,2.491,2.491,0,0,1,87.482-.642a5.068,5.068,0,0,1-2.993.817,5.172,5.172,0,0,1-2.18-.439,3.645,3.645,0,0,1-1.494-1.2,2.707,2.707,0,0,1-.536-1.591h2.769a1.145,1.145,0,0,0,.439.962,1.808,1.808,0,0,0,1.081.3,1.422,1.422,0,0,0,.91-.246A.787.787,0,0,0,85.781-2.672Z" transform="translate(670 17363)" fill="#fff"/>
    <path id="Trazado_903881" data-name="Trazado 903881" d="M5.432.176A4.889,4.889,0,0,1,1.89-1.129a4.507,4.507,0,0,1-1.354-3.4v-.246a5.84,5.84,0,0,1,.541-2.575A3.955,3.955,0,0,1,2.654-9.075a4.763,4.763,0,0,1,2.461-.611A4.117,4.117,0,0,1,8.279-8.442a4.887,4.887,0,0,1,1.16,3.467v1.151H3.551a2.135,2.135,0,0,0,.694,1.257,2.066,2.066,0,0,0,1.389.457,2.662,2.662,0,0,0,2.2-.984l1.354,1.6A3.784,3.784,0,0,1,7.616-.277,5.3,5.3,0,0,1,5.432.176ZM5.1-7.4q-1.3,0-1.547,1.723H6.539v-.229a1.467,1.467,0,0,0-.36-1.1A1.434,1.434,0,0,0,5.1-7.4ZM13.43-9.51l.1,1.116a3.27,3.27,0,0,1,2.716-1.292,2.407,2.407,0,0,1,2.435,1.433,3.165,3.165,0,0,1,2.795-1.433q2.892,0,2.971,3.5V0H21.472V-6a1.813,1.813,0,0,0-.246-1.063,1.048,1.048,0,0,0-.9-.334,1.4,1.4,0,0,0-1.31.782l.009.123V0H16.058V-5.985a1.906,1.906,0,0,0-.237-1.081,1.045,1.045,0,0,0-.905-.334,1.42,1.42,0,0,0-1.3.782V0H10.652V-9.51ZM34.963-4.685a5.735,5.735,0,0,1-1,3.538A3.2,3.2,0,0,1,31.271.176a2.742,2.742,0,0,1-2.153-.958V3.656H26.156V-9.51h2.769l.088.879a2.742,2.742,0,0,1,2.241-1.055,3.224,3.224,0,0,1,2.733,1.3,5.805,5.805,0,0,1,.976,3.564ZM32-4.869Q32-7.4,30.524-7.4a1.394,1.394,0,0,0-1.406.756V-2.9a1.439,1.439,0,0,0,1.424.791q1.415,0,1.459-2.443ZM39.393,0H36.422V-13.5h2.971Zm6.425.176a4.889,4.889,0,0,1-3.542-1.305,4.507,4.507,0,0,1-1.354-3.4v-.246a5.84,5.84,0,0,1,.541-2.575A3.955,3.955,0,0,1,43.04-9.075,4.763,4.763,0,0,1,45.5-9.686a4.117,4.117,0,0,1,3.164,1.244,4.887,4.887,0,0,1,1.16,3.467v1.151H43.937a2.135,2.135,0,0,0,.694,1.257,2.066,2.066,0,0,0,1.389.457,2.662,2.662,0,0,0,2.2-.984l1.354,1.6A3.784,3.784,0,0,1,48-.277,5.3,5.3,0,0,1,45.817.176ZM45.483-7.4q-1.3,0-1.547,1.723h2.988v-.229a1.467,1.467,0,0,0-.36-1.1A1.434,1.434,0,0,0,45.483-7.4ZM56.373,0a3.344,3.344,0,0,1-.281-.853A2.754,2.754,0,0,1,53.807.176a3.374,3.374,0,0,1-2.285-.813,2.588,2.588,0,0,1-.94-2.043,2.66,2.66,0,0,1,1.143-2.338,5.821,5.821,0,0,1,3.322-.791h.914v-.5q0-1.316-1.134-1.316a.927.927,0,0,0-1.055,1.042H50.81a2.655,2.655,0,0,1,1.173-2.239,4.931,4.931,0,0,1,2.993-.86A4.323,4.323,0,0,1,57.85-8.8a3.086,3.086,0,0,1,1.081,2.435v4.21a4.311,4.311,0,0,0,.4,2V0ZM54.519-1.934a1.652,1.652,0,0,0,.918-.237,1.487,1.487,0,0,0,.523-.536V-4.228H55.1q-1.547,0-1.547,1.389a.848.848,0,0,0,.272.655A.986.986,0,0,0,54.519-1.934ZM60.2-4.825a5.809,5.809,0,0,1,.976-3.56,3.211,3.211,0,0,1,2.725-1.3,2.731,2.731,0,0,1,2.145,1V-13.5h2.971V0H66.349L66.2-1.02a2.8,2.8,0,0,1-2.32,1.2,3.205,3.205,0,0,1-2.689-1.3A5.993,5.993,0,0,1,60.2-4.825Zm2.962.185q0,2.531,1.477,2.531a1.458,1.458,0,0,0,1.406-.826V-6.557A1.419,1.419,0,0,0,64.652-7.4q-1.371,0-1.485,2.215Zm7.163-.2a5.613,5.613,0,0,1,.554-2.536,3.96,3.96,0,0,1,1.591-1.709,4.791,4.791,0,0,1,2.435-.6,4.373,4.373,0,0,1,3.366,1.323,5.076,5.076,0,0,1,1.23,3.6v.105a4.925,4.925,0,0,1-1.235,3.529A4.384,4.384,0,0,1,74.918.176a4.434,4.434,0,0,1-3.261-1.217,4.761,4.761,0,0,1-1.327-3.3Zm2.962.185A3.538,3.538,0,0,0,73.7-2.725a1.376,1.376,0,0,0,1.222.615q1.582,0,1.617-2.435v-.3Q76.535-7.4,74.9-7.4q-1.485,0-1.608,2.206Zm12.5,1.986a.684.684,0,0,0-.4-.606,6.016,6.016,0,0,0-1.5-.475A6.853,6.853,0,0,1,82.055-4.4a3.062,3.062,0,0,1-1.1-.971,2.319,2.319,0,0,1-.378-1.31,2.628,2.628,0,0,1,1.081-2.158,4.453,4.453,0,0,1,2.83-.848,4.934,4.934,0,0,1,3.023.853,2.666,2.666,0,0,1,1.143,2.241H85.685q0-1.143-1.2-1.143a1.194,1.194,0,0,0-.782.259.8.8,0,0,0-.316.646.737.737,0,0,0,.387.642,3.654,3.654,0,0,0,1.235.4,10.671,10.671,0,0,1,1.49.378A2.706,2.706,0,0,1,88.638-2.76,2.491,2.491,0,0,1,87.482-.642a5.068,5.068,0,0,1-2.993.817,5.172,5.172,0,0,1-2.18-.439,3.645,3.645,0,0,1-1.494-1.2,2.707,2.707,0,0,1-.536-1.591h2.769a1.145,1.145,0,0,0,.439.962,1.808,1.808,0,0,0,1.081.3,1.422,1.422,0,0,0,.91-.246A.787.787,0,0,0,85.781-2.672Z" transform="translate(670 17394)" fill="#fff"/>
    <path id="Trazado_903882" data-name="Trazado 903882" d="M5.432.176A4.889,4.889,0,0,1,1.89-1.129a4.507,4.507,0,0,1-1.354-3.4v-.246a5.84,5.84,0,0,1,.541-2.575A3.955,3.955,0,0,1,2.654-9.075a4.763,4.763,0,0,1,2.461-.611A4.117,4.117,0,0,1,8.279-8.442a4.887,4.887,0,0,1,1.16,3.467v1.151H3.551a2.135,2.135,0,0,0,.694,1.257,2.066,2.066,0,0,0,1.389.457,2.662,2.662,0,0,0,2.2-.984l1.354,1.6A3.784,3.784,0,0,1,7.616-.277,5.3,5.3,0,0,1,5.432.176ZM5.1-7.4q-1.3,0-1.547,1.723H6.539v-.229a1.467,1.467,0,0,0-.36-1.1A1.434,1.434,0,0,0,5.1-7.4ZM13.43-9.51l.1,1.116a3.27,3.27,0,0,1,2.716-1.292,2.407,2.407,0,0,1,2.435,1.433,3.165,3.165,0,0,1,2.795-1.433q2.892,0,2.971,3.5V0H21.472V-6a1.813,1.813,0,0,0-.246-1.063,1.048,1.048,0,0,0-.9-.334,1.4,1.4,0,0,0-1.31.782l.009.123V0H16.058V-5.985a1.906,1.906,0,0,0-.237-1.081,1.045,1.045,0,0,0-.905-.334,1.42,1.42,0,0,0-1.3.782V0H10.652V-9.51ZM34.963-4.685a5.735,5.735,0,0,1-1,3.538A3.2,3.2,0,0,1,31.271.176a2.742,2.742,0,0,1-2.153-.958V3.656H26.156V-9.51h2.769l.088.879a2.742,2.742,0,0,1,2.241-1.055,3.224,3.224,0,0,1,2.733,1.3,5.805,5.805,0,0,1,.976,3.564ZM32-4.869Q32-7.4,30.524-7.4a1.394,1.394,0,0,0-1.406.756V-2.9a1.439,1.439,0,0,0,1.424.791q1.415,0,1.459-2.443ZM39.393,0H36.422V-13.5h2.971Zm6.425.176a4.889,4.889,0,0,1-3.542-1.305,4.507,4.507,0,0,1-1.354-3.4v-.246a5.84,5.84,0,0,1,.541-2.575A3.955,3.955,0,0,1,43.04-9.075,4.763,4.763,0,0,1,45.5-9.686a4.117,4.117,0,0,1,3.164,1.244,4.887,4.887,0,0,1,1.16,3.467v1.151H43.937a2.135,2.135,0,0,0,.694,1.257,2.066,2.066,0,0,0,1.389.457,2.662,2.662,0,0,0,2.2-.984l1.354,1.6A3.784,3.784,0,0,1,48-.277,5.3,5.3,0,0,1,45.817.176ZM45.483-7.4q-1.3,0-1.547,1.723h2.988v-.229a1.467,1.467,0,0,0-.36-1.1A1.434,1.434,0,0,0,45.483-7.4ZM56.373,0a3.344,3.344,0,0,1-.281-.853A2.754,2.754,0,0,1,53.807.176a3.374,3.374,0,0,1-2.285-.813,2.588,2.588,0,0,1-.94-2.043,2.66,2.66,0,0,1,1.143-2.338,5.821,5.821,0,0,1,3.322-.791h.914v-.5q0-1.316-1.134-1.316a.927.927,0,0,0-1.055,1.042H50.81a2.655,2.655,0,0,1,1.173-2.239,4.931,4.931,0,0,1,2.993-.86A4.323,4.323,0,0,1,57.85-8.8a3.086,3.086,0,0,1,1.081,2.435v4.21a4.311,4.311,0,0,0,.4,2V0ZM54.519-1.934a1.652,1.652,0,0,0,.918-.237,1.487,1.487,0,0,0,.523-.536V-4.228H55.1q-1.547,0-1.547,1.389a.848.848,0,0,0,.272.655A.986.986,0,0,0,54.519-1.934ZM60.2-4.825a5.809,5.809,0,0,1,.976-3.56,3.211,3.211,0,0,1,2.725-1.3,2.731,2.731,0,0,1,2.145,1V-13.5h2.971V0H66.349L66.2-1.02a2.8,2.8,0,0,1-2.32,1.2,3.205,3.205,0,0,1-2.689-1.3A5.993,5.993,0,0,1,60.2-4.825Zm2.962.185q0,2.531,1.477,2.531a1.458,1.458,0,0,0,1.406-.826V-6.557A1.419,1.419,0,0,0,64.652-7.4q-1.371,0-1.485,2.215Zm7.163-.2a5.613,5.613,0,0,1,.554-2.536,3.96,3.96,0,0,1,1.591-1.709,4.791,4.791,0,0,1,2.435-.6,4.373,4.373,0,0,1,3.366,1.323,5.076,5.076,0,0,1,1.23,3.6v.105a4.925,4.925,0,0,1-1.235,3.529A4.384,4.384,0,0,1,74.918.176a4.434,4.434,0,0,1-3.261-1.217,4.761,4.761,0,0,1-1.327-3.3Zm2.962.185A3.538,3.538,0,0,0,73.7-2.725a1.376,1.376,0,0,0,1.222.615q1.582,0,1.617-2.435v-.3Q76.535-7.4,74.9-7.4q-1.485,0-1.608,2.206Zm12.5,1.986a.684.684,0,0,0-.4-.606,6.016,6.016,0,0,0-1.5-.475A6.853,6.853,0,0,1,82.055-4.4a3.062,3.062,0,0,1-1.1-.971,2.319,2.319,0,0,1-.378-1.31,2.628,2.628,0,0,1,1.081-2.158,4.453,4.453,0,0,1,2.83-.848,4.934,4.934,0,0,1,3.023.853,2.666,2.666,0,0,1,1.143,2.241H85.685q0-1.143-1.2-1.143a1.194,1.194,0,0,0-.782.259.8.8,0,0,0-.316.646.737.737,0,0,0,.387.642,3.654,3.654,0,0,0,1.235.4,10.671,10.671,0,0,1,1.49.378A2.706,2.706,0,0,1,88.638-2.76,2.491,2.491,0,0,1,87.482-.642a5.068,5.068,0,0,1-2.993.817,5.172,5.172,0,0,1-2.18-.439,3.645,3.645,0,0,1-1.494-1.2,2.707,2.707,0,0,1-.536-1.591h2.769a1.145,1.145,0,0,0,.439.962,1.808,1.808,0,0,0,1.081.3,1.422,1.422,0,0,0,.91-.246A.787.787,0,0,0,85.781-2.672Z" transform="translate(670 17425)" fill="#fff"/>
    <path id="Trazado_903883" data-name="Trazado 903883" d="M3.955,0H.984V-13.5H3.955Zm1.45-4.843a5.613,5.613,0,0,1,.554-2.536A3.96,3.96,0,0,1,7.55-9.088a4.791,4.791,0,0,1,2.435-.6,4.373,4.373,0,0,1,3.366,1.323,5.076,5.076,0,0,1,1.23,3.6v.105a4.925,4.925,0,0,1-1.235,3.529A4.384,4.384,0,0,1,10,.176,4.434,4.434,0,0,1,6.741-1.042a4.761,4.761,0,0,1-1.327-3.3Zm2.962.185A3.538,3.538,0,0,0,8.78-2.725,1.376,1.376,0,0,0,10-2.109q1.582,0,1.617-2.435v-.3q0-2.558-1.635-2.558Q8.5-7.4,8.376-5.194Zm11.54,2.549a1.317,1.317,0,0,0,.967-.338,1.241,1.241,0,0,0,.334-.945h2.777A3.288,3.288,0,0,1,22.865-.826a4.168,4.168,0,0,1-2.887,1,4.22,4.22,0,0,1-3.27-1.3,5.125,5.125,0,0,1-1.2-3.6v-.123A5.792,5.792,0,0,1,16.044-7.4a3.872,3.872,0,0,1,1.534-1.7,4.573,4.573,0,0,1,2.373-.593A4.116,4.116,0,0,1,22.9-8.657a3.647,3.647,0,0,1,1.09,2.786H21.208A1.626,1.626,0,0,0,20.848-7a1.244,1.244,0,0,0-.967-.4q-1.151,0-1.345,1.468a10.357,10.357,0,0,0-.062,1.283,4.068,4.068,0,0,0,.343,1.986A1.187,1.187,0,0,0,19.907-2.109ZM30.595,0a3.344,3.344,0,0,1-.281-.853A2.754,2.754,0,0,1,28.028.176a3.374,3.374,0,0,1-2.285-.813,2.588,2.588,0,0,1-.94-2.043,2.66,2.66,0,0,1,1.143-2.338,5.821,5.821,0,0,1,3.322-.791h.914v-.5q0-1.316-1.134-1.316a.927.927,0,0,0-1.055,1.042H25.031A2.655,2.655,0,0,1,26.2-8.825a4.931,4.931,0,0,1,2.993-.86,4.323,4.323,0,0,1,2.874.888,3.086,3.086,0,0,1,1.081,2.435v4.21a4.311,4.311,0,0,0,.4,2V0ZM28.74-1.934a1.652,1.652,0,0,0,.918-.237,1.487,1.487,0,0,0,.523-.536V-4.228H29.32q-1.547,0-1.547,1.389a.848.848,0,0,0,.272.655A.986.986,0,0,0,28.74-1.934ZM37.916,0H34.945V-13.5h2.971Z" transform="translate(670 17456)" fill="#fff"/>
    <path id="Trazado_903868" data-name="Trazado 903868" d="M3.955,0H.984V-13.5H3.955Zm1.45-4.843a5.613,5.613,0,0,1,.554-2.536A3.96,3.96,0,0,1,7.55-9.088a4.791,4.791,0,0,1,2.435-.6,4.373,4.373,0,0,1,3.366,1.323,5.076,5.076,0,0,1,1.23,3.6v.105a4.925,4.925,0,0,1-1.235,3.529A4.384,4.384,0,0,1,10,.176,4.434,4.434,0,0,1,6.741-1.042a4.761,4.761,0,0,1-1.327-3.3Zm2.962.185A3.538,3.538,0,0,0,8.78-2.725,1.376,1.376,0,0,0,10-2.109q1.582,0,1.617-2.435v-.3q0-2.558-1.635-2.558Q8.5-7.4,8.376-5.194Zm11.54,2.549a1.317,1.317,0,0,0,.967-.338,1.241,1.241,0,0,0,.334-.945h2.777A3.288,3.288,0,0,1,22.865-.826a4.168,4.168,0,0,1-2.887,1,4.22,4.22,0,0,1-3.27-1.3,5.125,5.125,0,0,1-1.2-3.6v-.123A5.792,5.792,0,0,1,16.044-7.4a3.872,3.872,0,0,1,1.534-1.7,4.573,4.573,0,0,1,2.373-.593A4.116,4.116,0,0,1,22.9-8.657a3.647,3.647,0,0,1,1.09,2.786H21.208A1.626,1.626,0,0,0,20.848-7a1.244,1.244,0,0,0-.967-.4q-1.151,0-1.345,1.468a10.357,10.357,0,0,0-.062,1.283,4.068,4.068,0,0,0,.343,1.986A1.187,1.187,0,0,0,19.907-2.109ZM30.595,0a3.344,3.344,0,0,1-.281-.853A2.754,2.754,0,0,1,28.028.176a3.374,3.374,0,0,1-2.285-.813,2.588,2.588,0,0,1-.94-2.043,2.66,2.66,0,0,1,1.143-2.338,5.821,5.821,0,0,1,3.322-.791h.914v-.5q0-1.316-1.134-1.316a.927.927,0,0,0-1.055,1.042H25.031A2.655,2.655,0,0,1,26.2-8.825a4.931,4.931,0,0,1,2.993-.86,4.323,4.323,0,0,1,2.874.888,3.086,3.086,0,0,1,1.081,2.435v4.21a4.311,4.311,0,0,0,.4,2V0ZM28.74-1.934a1.652,1.652,0,0,0,.918-.237,1.487,1.487,0,0,0,.523-.536V-4.228H29.32q-1.547,0-1.547,1.389a.848.848,0,0,0,.272.655A.986.986,0,0,0,28.74-1.934ZM37.916,0H34.945V-13.5h2.971Zm4.72-8.49a2.964,2.964,0,0,1,2.426-1.2,2.956,2.956,0,0,1,2.373.932A4.186,4.186,0,0,1,48.252-6V0H45.281V-5.933a1.674,1.674,0,0,0-.308-1.112A1.322,1.322,0,0,0,43.928-7.4a1.424,1.424,0,0,0-1.292.58V0H39.674V-13.5h2.962Zm6.891,3.647a5.613,5.613,0,0,1,.554-2.536,3.96,3.96,0,0,1,1.591-1.709,4.791,4.791,0,0,1,2.435-.6,4.373,4.373,0,0,1,3.366,1.323,5.076,5.076,0,0,1,1.23,3.6v.105a4.925,4.925,0,0,1-1.235,3.529A4.384,4.384,0,0,1,54.123.176a4.434,4.434,0,0,1-3.261-1.217,4.761,4.761,0,0,1-1.327-3.3Zm2.962.185A3.538,3.538,0,0,0,52.9-2.725a1.376,1.376,0,0,0,1.222.615q1.582,0,1.617-2.435v-.3q0-2.558-1.635-2.558Q52.62-7.4,52.5-5.194Zm12.5,1.986a.684.684,0,0,0-.4-.606,6.016,6.016,0,0,0-1.5-.475A6.853,6.853,0,0,1,61.26-4.4a3.062,3.062,0,0,1-1.1-.971,2.319,2.319,0,0,1-.378-1.31,2.628,2.628,0,0,1,1.081-2.158,4.453,4.453,0,0,1,2.83-.848,4.934,4.934,0,0,1,3.023.853A2.666,2.666,0,0,1,67.86-6.592H64.89q0-1.143-1.2-1.143a1.194,1.194,0,0,0-.782.259.8.8,0,0,0-.316.646.737.737,0,0,0,.387.642,3.654,3.654,0,0,0,1.235.4,10.671,10.671,0,0,1,1.49.378A2.706,2.706,0,0,1,67.843-2.76,2.491,2.491,0,0,1,66.687-.642a5.068,5.068,0,0,1-2.993.817,5.172,5.172,0,0,1-2.18-.439,3.645,3.645,0,0,1-1.494-1.2,2.707,2.707,0,0,1-.536-1.591h2.769a1.145,1.145,0,0,0,.439.962,1.808,1.808,0,0,0,1.081.3,1.422,1.422,0,0,0,.91-.246A.787.787,0,0,0,64.986-2.672Zm7.69-9.2V-9.51h1.564v2.057H72.677V-3.1a1.111,1.111,0,0,0,.193.747,1.037,1.037,0,0,0,.765.211,4.345,4.345,0,0,0,.738-.053V-.079A5.466,5.466,0,0,1,72.7.176a3.1,3.1,0,0,1-2.259-.721,2.954,2.954,0,0,1-.729-2.188v-4.72H68.5V-9.51h1.213v-2.364Zm4.57,9a1.686,1.686,0,0,1,1.169.417,1.37,1.37,0,0,1,.466,1.068,1.37,1.37,0,0,1-.466,1.068A1.686,1.686,0,0,1,77.247.1a1.672,1.672,0,0,1-1.173-.422,1.379,1.379,0,0,1-.461-1.063,1.379,1.379,0,0,1,.461-1.063A1.672,1.672,0,0,1,77.247-2.874Zm0-7.014a1.686,1.686,0,0,1,1.169.417A1.37,1.37,0,0,1,78.882-8.4a1.37,1.37,0,0,1-.466,1.068,1.686,1.686,0,0,1-1.169.417,1.672,1.672,0,0,1-1.173-.422A1.379,1.379,0,0,1,75.612-8.4a1.379,1.379,0,0,1,.461-1.063A1.672,1.672,0,0,1,77.247-9.888ZM89.692,0h-8.93V-1.934l4.113-4.324A4.909,4.909,0,0,0,86.4-9.009a1.913,1.913,0,0,0-.36-1.257A1.287,1.287,0,0,0,84.99-10.7a1.3,1.3,0,0,0-1.1.576,2.366,2.366,0,0,0-.422,1.437H80.5a4.2,4.2,0,0,1,.589-2.175,4.129,4.129,0,0,1,1.635-1.56,4.856,4.856,0,0,1,2.338-.562,4.777,4.777,0,0,1,3.195.958,3.42,3.42,0,0,1,1.121,2.751A4,4,0,0,1,89.095-7.8a6.456,6.456,0,0,1-.875,1.5,22.029,22.029,0,0,1-1.912,2.1L84.656-2.285h5.036Zm10.389-11.215L95.3,0H92.171l4.79-10.512h-6.1V-12.8h9.22ZM110.5-5.229a6.11,6.11,0,0,1-1.165,4A4.024,4.024,0,0,1,106.049.176a4.046,4.046,0,0,1-3.3-1.415,6.1,6.1,0,0,1-1.169-3.99V-7.567a6.11,6.11,0,0,1,1.165-4,4.034,4.034,0,0,1,3.292-1.406,4.036,4.036,0,0,1,3.3,1.415,6.116,6.116,0,0,1,1.169,4Zm-2.962-2.716a4.564,4.564,0,0,0-.36-2.061,1.2,1.2,0,0,0-1.143-.681,1.176,1.176,0,0,0-1.112.633,4.3,4.3,0,0,0-.374,1.916v3.27a4.6,4.6,0,0,0,.36,2.1,1.209,1.209,0,0,0,1.143.664,1.193,1.193,0,0,0,1.116-.646,4.39,4.39,0,0,0,.369-2.026ZM118.6,0h-2.971V-9.457l-2.918.853v-2.25l5.616-1.942h.272Zm12.753-11.215L126.571,0h-3.129l4.79-10.512h-6.1V-12.8h9.22Z" transform="translate(670 17090)" fill="#fff"/>
    <path id="Trazado_903870" data-name="Trazado 903870" d="M7.567-3.4a1.268,1.268,0,0,0-.479-1.055,5.954,5.954,0,0,0-1.683-.782,16.147,16.147,0,0,1-1.969-.782Q.949-7.242.949-9.378a3.011,3.011,0,0,1,.62-1.876A4.008,4.008,0,0,1,3.322-12.52a6.823,6.823,0,0,1,2.549-.453,5.969,5.969,0,0,1,2.474.492,3.917,3.917,0,0,1,1.7,1.4A3.661,3.661,0,0,1,10.652-9H7.576A1.547,1.547,0,0,0,7.1-10.213a1.867,1.867,0,0,0-1.3-.431,2.106,2.106,0,0,0-1.305.365,1.119,1.119,0,0,0-.479.927,1.127,1.127,0,0,0,.527.892A6.65,6.65,0,0,0,6.4-7.633a11.36,11.36,0,0,1,2.18.918,3.663,3.663,0,0,1,2.074,3.3A3.125,3.125,0,0,1,9.387-.782,5.629,5.629,0,0,1,5.915.176,6.888,6.888,0,0,1,3.1-.382,4.247,4.247,0,0,1,1.2-1.912,3.985,3.985,0,0,1,.563-4.148H3.656a1.963,1.963,0,0,0,.532,1.516,2.513,2.513,0,0,0,1.727.488,1.985,1.985,0,0,0,1.208-.33A1.088,1.088,0,0,0,7.567-3.4Zm7.98-8.473V-9.51h1.564v2.057H15.548V-3.1a1.111,1.111,0,0,0,.193.747,1.037,1.037,0,0,0,.765.211,4.345,4.345,0,0,0,.738-.053V-.079a5.466,5.466,0,0,1-1.67.255,3.1,3.1,0,0,1-2.259-.721,2.954,2.954,0,0,1-.729-2.188v-4.72H11.373V-9.51h1.213v-2.364ZM23.634,0a3.344,3.344,0,0,1-.281-.853A2.754,2.754,0,0,1,21.067.176a3.374,3.374,0,0,1-2.285-.813,2.588,2.588,0,0,1-.94-2.043,2.66,2.66,0,0,1,1.143-2.338,5.821,5.821,0,0,1,3.322-.791h.914v-.5q0-1.316-1.134-1.316a.927.927,0,0,0-1.055,1.042H18.07a2.655,2.655,0,0,1,1.173-2.239,4.931,4.931,0,0,1,2.993-.86A4.323,4.323,0,0,1,25.11-8.8a3.086,3.086,0,0,1,1.081,2.435v4.21a4.311,4.311,0,0,0,.4,2V0ZM21.779-1.934a1.652,1.652,0,0,0,.918-.237,1.487,1.487,0,0,0,.523-.536V-4.228h-.861q-1.547,0-1.547,1.389a.848.848,0,0,0,.272.655A.986.986,0,0,0,21.779-1.934ZM30.551-9.51l.1,1.116a3.225,3.225,0,0,1,2.716-1.292,2.713,2.713,0,0,1,2.219.888,4.226,4.226,0,0,1,.76,2.672V0H33.372V-6a1.6,1.6,0,0,0-.29-1.059A1.342,1.342,0,0,0,32.027-7.4a1.413,1.413,0,0,0-1.292.686V0H27.773V-9.51Zm7.058,4.685a5.809,5.809,0,0,1,.976-3.56,3.211,3.211,0,0,1,2.725-1.3,2.731,2.731,0,0,1,2.145,1V-13.5h2.971V0H43.761l-.149-1.02a2.8,2.8,0,0,1-2.32,1.2,3.205,3.205,0,0,1-2.689-1.3A5.993,5.993,0,0,1,37.608-4.825Zm2.962.185q0,2.531,1.477,2.531a1.458,1.458,0,0,0,1.406-.826V-6.557A1.419,1.419,0,0,0,42.064-7.4q-1.371,0-1.485,2.215ZM53.464,0a3.344,3.344,0,0,1-.281-.853A2.754,2.754,0,0,1,50.9.176a3.374,3.374,0,0,1-2.285-.813,2.588,2.588,0,0,1-.94-2.043,2.66,2.66,0,0,1,1.143-2.338,5.821,5.821,0,0,1,3.322-.791h.914v-.5q0-1.316-1.134-1.316a.927.927,0,0,0-1.055,1.042H47.9a2.655,2.655,0,0,1,1.173-2.239,4.931,4.931,0,0,1,2.993-.86A4.323,4.323,0,0,1,54.94-8.8a3.086,3.086,0,0,1,1.081,2.435v4.21a4.311,4.311,0,0,0,.4,2V0ZM51.609-1.934a1.652,1.652,0,0,0,.918-.237,1.487,1.487,0,0,0,.523-.536V-4.228h-.861q-1.547,0-1.547,1.389a.848.848,0,0,0,.272.655A.986.986,0,0,0,51.609-1.934ZM60.785,0H57.814V-13.5h2.971Zm1.45-4.843a5.613,5.613,0,0,1,.554-2.536A3.96,3.96,0,0,1,64.38-9.088a4.791,4.791,0,0,1,2.435-.6,4.373,4.373,0,0,1,3.366,1.323,5.076,5.076,0,0,1,1.23,3.6v.105a4.925,4.925,0,0,1-1.235,3.529A4.384,4.384,0,0,1,66.832.176a4.434,4.434,0,0,1-3.261-1.217,4.761,4.761,0,0,1-1.327-3.3Zm2.962.185a3.538,3.538,0,0,0,.413,1.934,1.376,1.376,0,0,0,1.222.615q1.582,0,1.617-2.435v-.3q0-2.558-1.635-2.558-1.485,0-1.608,2.206ZM75.437-9.51l.1,1.116a3.225,3.225,0,0,1,2.716-1.292,2.713,2.713,0,0,1,2.219.888,4.226,4.226,0,0,1,.76,2.672V0H78.258V-6a1.6,1.6,0,0,0-.29-1.059A1.342,1.342,0,0,0,76.913-7.4a1.413,1.413,0,0,0-1.292.686V0H72.659V-9.51ZM87.469.176a4.889,4.889,0,0,1-3.542-1.305,4.507,4.507,0,0,1-1.354-3.4v-.246a5.84,5.84,0,0,1,.541-2.575,3.955,3.955,0,0,1,1.578-1.727,4.763,4.763,0,0,1,2.461-.611,4.117,4.117,0,0,1,3.164,1.244,4.887,4.887,0,0,1,1.16,3.467v1.151H85.588a2.135,2.135,0,0,0,.694,1.257,2.066,2.066,0,0,0,1.389.457,2.662,2.662,0,0,0,2.2-.984l1.354,1.6A3.784,3.784,0,0,1,89.653-.277,5.3,5.3,0,0,1,87.469.176ZM87.135-7.4q-1.3,0-1.547,1.723h2.988v-.229a1.467,1.467,0,0,0-.36-1.1A1.434,1.434,0,0,0,87.135-7.4Z" transform="translate(670 17152)" fill="#fff"/>
    <path id="Trazado_903872" data-name="Trazado 903872" d="M5.019-12.8l2.856,8.9,2.848-8.9h4.061V0H11.689V-2.988l.3-6.117L8.895,0H6.855l-3.1-9.114.3,6.126V0H.967V-12.8ZM16.233-4.843a5.613,5.613,0,0,1,.554-2.536,3.96,3.96,0,0,1,1.591-1.709,4.791,4.791,0,0,1,2.435-.6,4.373,4.373,0,0,1,3.366,1.323,5.076,5.076,0,0,1,1.23,3.6v.105a4.925,4.925,0,0,1-1.235,3.529A4.384,4.384,0,0,1,20.83.176a4.434,4.434,0,0,1-3.261-1.217,4.761,4.761,0,0,1-1.327-3.3Zm2.962.185a3.538,3.538,0,0,0,.413,1.934,1.376,1.376,0,0,0,1.222.615q1.582,0,1.617-2.435v-.3q0-2.558-1.635-2.558-1.485,0-1.608,2.206ZM29.435-9.51l.1,1.116a3.225,3.225,0,0,1,2.716-1.292,2.713,2.713,0,0,1,2.219.888,4.226,4.226,0,0,1,.76,2.672V0H32.256V-6a1.6,1.6,0,0,0-.29-1.059A1.342,1.342,0,0,0,30.911-7.4a1.413,1.413,0,0,0-1.292.686V0H26.657V-9.51Zm7.084,4.685a6.421,6.421,0,0,1,.475-2.549,3.821,3.821,0,0,1,1.362-1.709,3.591,3.591,0,0,1,2.065-.6,2.855,2.855,0,0,1,2.32,1l.105-.826h2.689V-.36a4.009,4.009,0,0,1-.584,2.184A3.75,3.75,0,0,1,43.26,3.248a6.219,6.219,0,0,1-2.566.5,5.365,5.365,0,0,1-2.026-.4,3.657,3.657,0,0,1-1.5-1.028L38.408.58a2.716,2.716,0,0,0,2.18.976A1.764,1.764,0,0,0,42.557-.466v-.3A2.781,2.781,0,0,1,40.4.176a3.437,3.437,0,0,1-2.812-1.332A5.517,5.517,0,0,1,36.519-4.72Zm2.971.185a3.383,3.383,0,0,0,.439,1.85,1.386,1.386,0,0,0,1.23.681,1.573,1.573,0,0,0,1.4-.642v-4a1.534,1.534,0,0,0-1.38-.65,1.4,1.4,0,0,0-1.239.708A3.858,3.858,0,0,0,39.489-4.641Zm7.356-.2A5.613,5.613,0,0,1,47.4-7.378,3.96,3.96,0,0,1,48.99-9.088a4.791,4.791,0,0,1,2.435-.6,4.373,4.373,0,0,1,3.366,1.323,5.076,5.076,0,0,1,1.23,3.6v.105a4.925,4.925,0,0,1-1.235,3.529A4.384,4.384,0,0,1,51.442.176a4.434,4.434,0,0,1-3.261-1.217,4.761,4.761,0,0,1-1.327-3.3Zm2.962.185a3.538,3.538,0,0,0,.413,1.934,1.376,1.376,0,0,0,1.222.615q1.582,0,1.617-2.435v-.3q0-2.558-1.635-2.558-1.485,0-1.608,2.206ZM57.463,0V-12.8h4.122a6.064,6.064,0,0,1,3.05.769,5.406,5.406,0,0,1,2.114,2.171,6.554,6.554,0,0,1,.769,3.142v.589a6.592,6.592,0,0,1-.743,3.151A5.429,5.429,0,0,1,64.683-.8a5.93,5.93,0,0,1-3.01.8Zm3.085-10.415v8.042H61.62a2.4,2.4,0,0,0,2.039-.945,4.63,4.63,0,0,0,.712-2.808V-6.68a4.592,4.592,0,0,0-.712-2.795,2.442,2.442,0,0,0-2.074-.94ZM69.1,0V-12.8h4.6a6.509,6.509,0,0,1,3.757.905,3.012,3.012,0,0,1,1.288,2.628,3.045,3.045,0,0,1-.457,1.7A2.663,2.663,0,0,1,76.939-6.53a2.7,2.7,0,0,1,1.538.984,2.862,2.862,0,0,1,.536,1.758A3.388,3.388,0,0,1,77.823-.962,5.667,5.667,0,0,1,74.294,0Zm3.085-5.44v3.067h2.021a1.923,1.923,0,0,0,1.283-.382,1.338,1.338,0,0,0,.448-1.077A1.419,1.419,0,0,0,74.347-5.44Zm0-2.021h1.608a2.285,2.285,0,0,0,1.441-.37A1.314,1.314,0,0,0,75.665-8.9a1.379,1.379,0,0,0-.466-1.168,2.493,2.493,0,0,0-1.5-.357H72.185ZM92.83-5h1.3v2.285h-1.3V0H89.868V-2.716H84.92l-.176-1.811,5.124-8.244V-12.8H92.83ZM87.565-5h2.3V-8.938l-.185.3Zm9.747,2.127a1.686,1.686,0,0,1,1.169.417,1.37,1.37,0,0,1,.466,1.068,1.37,1.37,0,0,1-.466,1.068A1.686,1.686,0,0,1,97.313.1a1.672,1.672,0,0,1-1.173-.422,1.379,1.379,0,0,1-.461-1.063,1.379,1.379,0,0,1,.461-1.063A1.672,1.672,0,0,1,97.313-2.874ZM108.694-5H110v2.285h-1.3V0h-2.962V-2.716h-4.948l-.176-1.811,5.124-8.244V-12.8h2.962ZM103.43-5h2.3V-8.938l-.185.3Zm9.747,2.127a1.686,1.686,0,0,1,1.169.417,1.37,1.37,0,0,1,.466,1.068,1.37,1.37,0,0,1-.466,1.068A1.686,1.686,0,0,1,113.177.1,1.672,1.672,0,0,1,112-.325a1.379,1.379,0,0,1-.461-1.063A1.379,1.379,0,0,1,112-2.452,1.672,1.672,0,0,1,113.177-2.874Zm10.714-10.107v2.329h-.132a4.447,4.447,0,0,0-2.729.8,3.358,3.358,0,0,0-1.314,2.21,3.464,3.464,0,0,1,2.531-.984,3.231,3.231,0,0,1,2.646,1.213,4.892,4.892,0,0,1,.984,3.182A4.48,4.48,0,0,1,125.3-2a4.108,4.108,0,0,1-1.608,1.6,4.622,4.622,0,0,1-2.29.576,4.777,4.777,0,0,1-2.435-.62,4.26,4.26,0,0,1-1.67-1.771,5.832,5.832,0,0,1-.615-2.654V-6.056a7.387,7.387,0,0,1,.848-3.555,6.149,6.149,0,0,1,2.421-2.474,6.923,6.923,0,0,1,3.489-.9Zm-2.672,6.618a1.7,1.7,0,0,0-.984.272,1.73,1.73,0,0,0-.589.668v.888q0,2.426,1.679,2.426a1.362,1.362,0,0,0,1.129-.606,2.472,2.472,0,0,0,.453-1.521,2.426,2.426,0,0,0-.461-1.534A1.476,1.476,0,0,0,121.219-6.363Zm20.962,2.03a4.673,4.673,0,0,1-.721,2.36,4.35,4.35,0,0,1-1.85,1.586,6.3,6.3,0,0,1-2.72.563,5.025,5.025,0,0,1-3.973-1.644,6.786,6.786,0,0,1-1.45-4.641v-.633a7.746,7.746,0,0,1,.655-3.292,4.961,4.961,0,0,1,1.885-2.18,5.26,5.26,0,0,1,2.848-.769,5.516,5.516,0,0,1,3.744,1.226,4.844,4.844,0,0,1,1.608,3.379h-3.076a2.292,2.292,0,0,0-.589-1.679,2.422,2.422,0,0,0-1.687-.51,1.843,1.843,0,0,0-1.687.861,5.536,5.536,0,0,0-.562,2.751v.905a6.126,6.126,0,0,0,.514,2.927,1.882,1.882,0,0,0,1.771.879,2.369,2.369,0,0,0,1.626-.5,2.126,2.126,0,0,0,.6-1.591Zm.949-.51a5.613,5.613,0,0,1,.554-2.536,3.96,3.96,0,0,1,1.591-1.709,4.791,4.791,0,0,1,2.435-.6,4.373,4.373,0,0,1,3.366,1.323,5.076,5.076,0,0,1,1.23,3.6v.105a4.925,4.925,0,0,1-1.235,3.529A4.384,4.384,0,0,1,147.727.176a4.434,4.434,0,0,1-3.261-1.217,4.761,4.761,0,0,1-1.327-3.3Zm2.962.185a3.538,3.538,0,0,0,.413,1.934,1.376,1.376,0,0,0,1.222.615q1.582,0,1.617-2.435v-.3q0-2.558-1.635-2.558-1.485,0-1.608,2.206ZM156.41-9.51l.1,1.116a3.27,3.27,0,0,1,2.716-1.292,2.407,2.407,0,0,1,2.435,1.433,3.165,3.165,0,0,1,2.795-1.433q2.892,0,2.971,3.5V0h-2.971V-6a1.813,1.813,0,0,0-.246-1.063,1.048,1.048,0,0,0-.9-.334,1.4,1.4,0,0,0-1.31.782l.009.123V0h-2.971V-5.985a1.906,1.906,0,0,0-.237-1.081A1.045,1.045,0,0,0,157.9-7.4a1.42,1.42,0,0,0-1.3.782V0h-2.962V-9.51Zm15.5,0,.1,1.116a3.27,3.27,0,0,1,2.716-1.292,2.407,2.407,0,0,1,2.435,1.433,3.165,3.165,0,0,1,2.795-1.433q2.892,0,2.971,3.5V0h-2.971V-6a1.813,1.813,0,0,0-.246-1.063,1.048,1.048,0,0,0-.9-.334,1.4,1.4,0,0,0-1.31.782l.009.123V0h-2.971V-5.985a1.906,1.906,0,0,0-.237-1.081A1.045,1.045,0,0,0,173.4-7.4a1.42,1.42,0,0,0-1.3.782V0h-2.962V-9.51Zm18.369,8.481a3.054,3.054,0,0,1-2.54,1.2,3,3,0,0,1-2.369-.91,3.826,3.826,0,0,1-.8-2.615V-9.51h2.962v6.179a1.065,1.065,0,0,0,1.187,1.222,1.548,1.548,0,0,0,1.45-.729V-9.51h2.979V0h-2.777ZM197.49-9.51l.1,1.116A3.225,3.225,0,0,1,200.3-9.686a2.713,2.713,0,0,1,2.219.888,4.226,4.226,0,0,1,.76,2.672V0h-2.971V-6a1.6,1.6,0,0,0-.29-1.059,1.342,1.342,0,0,0-1.055-.338,1.413,1.413,0,0,0-1.292.686V0h-2.962V-9.51ZM208.046,0h-2.971V-9.51h2.971ZM204.9-11.962A1.322,1.322,0,0,1,205.356-13a1.724,1.724,0,0,1,1.187-.4,1.724,1.724,0,0,1,1.187.4,1.322,1.322,0,0,1,.457,1.037,1.322,1.322,0,0,1-.457,1.037,1.724,1.724,0,0,1-1.187.4,1.724,1.724,0,0,1-1.187-.4A1.322,1.322,0,0,1,204.9-11.962Zm8.42.088V-9.51h1.564v2.057h-1.564V-3.1a1.111,1.111,0,0,0,.193.747,1.037,1.037,0,0,0,.765.211,4.345,4.345,0,0,0,.738-.053V-.079a5.466,5.466,0,0,1-1.67.255,3.1,3.1,0,0,1-2.259-.721,2.954,2.954,0,0,1-.729-2.188v-4.72h-1.213V-9.51h1.213v-2.364Zm6.53,7.726,1.582-5.361H224.6l-3.876,11.1-.167.4a2.944,2.944,0,0,1-2.918,1.846,4.642,4.642,0,0,1-1.222-.175V1.556h.387a2.026,2.026,0,0,0,.954-.18,1.094,1.094,0,0,0,.488-.647L218.487.1l-3.3-9.605h3.164Z" transform="translate(670 17214)" fill="#fff"/>
    <g id="Grupo_1107942" data-name="Grupo 1107942" transform="translate(123.5 1220.5)">
      <line id="Línea_1766" data-name="Línea 1766" y2="6.667" transform="translate(812.417 16133.5)" fill="none" stroke="#fff" stroke-linecap="round" stroke-width="1"/>
      <line id="Línea_1767" data-name="Línea 1767" x1="5.834" transform="translate(809.5 16136.834)" fill="none" stroke="#fff" stroke-linecap="round" stroke-width="1"/>
    </g>
    <g id="Trazado_903880" data-name="Trazado 903880" transform="translate(929 17350)" fill="none">
      <path d="M7,0A7,7,0,1,1,0,7,7,7,0,0,1,7,0Z" stroke="none"/>
      <path d="M 7 1 C 3.691590309143066 1 1 3.691590309143066 1 7 C 1 10.30840969085693 3.691590309143066 13 7 13 C 10.30840969085693 13 13 10.30840969085693 13 7 C 13 3.691590309143066 10.30840969085693 1 7 1 M 7 0 C 10.86598968505859 0 14 3.134010314941406 14 7 C 14 10.86598968505859 10.86598968505859 14 7 14 C 3.134010314941406 14 0 10.86598968505859 0 7 C 0 3.134010314941406 3.134010314941406 0 7 0 Z" stroke="none" fill="#fff"/>
    </g>
    <g id="Trazado_903879" data-name="Trazado 903879" transform="translate(606 17342)" fill="none">
      <path d="M0,0H394V66H0Z" stroke="none"/>
      <path d="M 1 1 L 1 65 L 393 65 L 393 1 L 1 1 M 0 0 L 394 0 L 394 66 L 0 66 L 0 0 Z" stroke="none" fill="red"/>
    </g>
    <path id="trash-can-solid" d="M3.7.484A.871.871,0,0,1,4.479,0H7.771a.871.871,0,0,1,.782.484l.2.391h2.625a.875.875,0,0,1,0,1.75H.875a.875.875,0,0,1,0-1.75H3.5ZM.875,3.5h10.5v8.75A1.752,1.752,0,0,1,9.625,14h-7a1.752,1.752,0,0,1-1.75-1.75ZM3.5,5.25a.439.439,0,0,0-.437.438v6.125a.438.438,0,0,0,.875,0V5.688A.439.439,0,0,0,3.5,5.25Zm2.625,0a.439.439,0,0,0-.437.438v6.125a.438.438,0,0,0,.875,0V5.688A.439.439,0,0,0,6.125,5.25Zm2.625,0a.439.439,0,0,0-.437.438v6.125a.438.438,0,0,0,.875,0V5.688A.439.439,0,0,0,8.75,5.25Z" transform="translate(963.875 17350)" fill="#fff"/>
    <path id="rotate-right-solid" d="M48.95,39.516h.334a.942.942,0,0,0,.944-.944V33.537a.945.945,0,0,0-1.613-.669L46.98,34.5a8.812,8.812,0,1,0,.039,12.5,1.26,1.26,0,0,0-1.782-1.782,6.295,6.295,0,1,1-.039-8.942L43.581,37.9a.945.945,0,0,0,.669,1.613Z" transform="translate(922.773 16924.412)" fill="#fff"/>
  </g>
</svg>
