<svg xmlns="http://www.w3.org/2000/svg" width="610" height="419" viewBox="0 0 610 419">
  <g id="Grupo_1107952" data-name="Grupo 1107952" transform="translate(-495 -18142)">
    <rect id="Rectángulo_405295" data-name="Rectángulo 405295" width="610" height="98" transform="translate(495 18237)" fill="#ecf2ff"/>
    <rect id="Rectángulo_405299" data-name="Rectángulo 405299" width="610" height="324" transform="translate(495 18237)" fill="#ecf2ff"/>
    <g id="Rectángulo_405296" data-name="Rectángulo 405296" transform="translate(501 18245)" fill="#fff" stroke="#dbdbdb" stroke-width="1">
      <rect width="604" height="26" rx="13" stroke="none"/>
      <rect x="0.5" y="0.5" width="603" height="25" rx="12.5" fill="none"/>
    </g>
    <rect id="Rectángulo_405297" data-name="Rectángulo 405297" width="64" height="20" rx="10" transform="translate(505 18248)" fill="#9e9c9c"/>
    <text id="FILTER" transform="translate(513 18248)" fill="#fff" font-size="16" font-family="Roboto-Bold, Roboto" font-weight="700"><tspan x="0" y="17">FILTER</tspan></text>
    <text id="_filter:_value_" data-name="{ filter: &quot;value&quot; } " transform="translate(646 18247)" fill="#b0afaf" font-size="16" font-family="Roboto-Italic, Roboto" font-style="italic"><tspan x="0" y="17">{ filter: &quot;value&quot; } </tspan></text>
    <rect id="Rectángulo_405298" data-name="Rectángulo 405298" width="126" height="30" rx="5" transform="translate(515 18283)" fill="#088b56"/>
    <rect id="Rectángulo_405300" data-name="Rectángulo 405300" width="28" height="30" rx="5" transform="translate(664 18283)" fill="#d2e1f1"/>
    <rect id="Rectángulo_405301" data-name="Rectángulo 405301" width="28" height="30" rx="5" transform="translate(767 18283)" fill="#d2e1f1"/>
    <rect id="Rectángulo_405302" data-name="Rectángulo 405302" width="28" height="30" rx="5" transform="translate(805 18283)" fill="#d2e1f1"/>
    <rect id="Rectángulo_405303" data-name="Rectángulo 405303" width="28" height="30" rx="5" transform="translate(841 18283)" fill="#d2e1f1"/>
    <text id="ADD_DATA" data-name="ADD DATA" transform="translate(537 18289)" fill="#fff" font-size="16" font-family="Roboto-Bold, Roboto" font-weight="700"><tspan x="0" y="17">ADD DATA</tspan></text>
    <text id="VIEW" transform="translate(713 18289)" fill="#b0c0d2" font-size="16" font-family="Roboto-Bold, Roboto" font-weight="700"><tspan x="0" y="17">VIEW</tspan></text>
    <text id="_" data-name="{ }" transform="translate(810 18289)" fill="#636363" font-size="16" font-family="Roboto-Bold, Roboto" font-weight="700"><tspan x="0" y="17">{ }</tspan></text>
    <path id="Polígono_14" data-name="Polígono 14" d="M4.5,0,9,5H0Z" transform="translate(630 18301) rotate(180)" fill="#fff"/>
    <path id="file-arrow-down-solid" d="M1.5,0A1.5,1.5,0,0,0,0,1.5v9A1.5,1.5,0,0,0,1.5,12h6A1.5,1.5,0,0,0,9,10.5V3.75H6A.749.749,0,0,1,5.25,3V0ZM6,0V3H9ZM5.063,5.438V7.83L5.789,7.1a.562.562,0,0,1,.795.795L4.9,9.586a.56.56,0,0,1-.795,0L2.414,7.9A.562.562,0,0,1,3.209,7.1l.727.727V5.438a.563.563,0,0,1,1.125,0Z" transform="translate(521.25 18292)" fill="#fff"/>
    <path id="file-arrow-up-solid" d="M1.75,0A1.752,1.752,0,0,0,0,1.75v10.5A1.752,1.752,0,0,0,1.75,14h7a1.752,1.752,0,0,0,1.75-1.75V4.375H7A.874.874,0,0,1,6.125,3.5V0ZM7,0V3.5h3.5ZM5.906,11.156a.656.656,0,0,1-1.312,0V8.364l-.848.848a.655.655,0,0,1-.927-.927L4.788,6.316a.654.654,0,0,1,.927,0L7.684,8.285a.655.655,0,0,1-.927.927l-.848-.848v2.792Z" transform="translate(673.616 18292)" fill="#12263f"/>
    <line id="Línea_1778" data-name="Línea 1778" x2="14" transform="translate(776.164 18293.5)" fill="none" stroke="#707070" stroke-linecap="round" stroke-width="2"/>
    <line id="Línea_1781" data-name="Línea 1781" x2="2" transform="translate(769.888 18293.5)" fill="none" stroke="#707070" stroke-linecap="round" stroke-width="2"/>
    <line id="Línea_1784" data-name="Línea 1784" x2="2" transform="translate(847.147 18297.5)" fill="none" stroke="#707070" stroke-linecap="round" stroke-width="2"/>
    <line id="Línea_1788" data-name="Línea 1788" x2="2" transform="translate(847.147 18301.5)" fill="none" stroke="#707070" stroke-linecap="round" stroke-width="2"/>
    <line id="Línea_1785" data-name="Línea 1785" x2="2" transform="translate(853.306 18297.5)" fill="none" stroke="#707070" stroke-linecap="round" stroke-width="2"/>
    <line id="Línea_1790" data-name="Línea 1790" x2="13" transform="translate(847.926 18294.5)" fill="none" stroke="#707070" stroke-linecap="round" stroke-width="1"/>
    <line id="Línea_1787" data-name="Línea 1787" x2="2" transform="translate(853.306 18301.5)" fill="none" stroke="#707070" stroke-linecap="round" stroke-width="2"/>
    <line id="Línea_1786" data-name="Línea 1786" x2="2" transform="translate(860.024 18297.5)" fill="none" stroke="#707070" stroke-linecap="round" stroke-width="2"/>
    <line id="Línea_1789" data-name="Línea 1789" x2="2" transform="translate(860.024 18301.5)" fill="none" stroke="#707070" stroke-linecap="round" stroke-width="2"/>
    <line id="Línea_1782" data-name="Línea 1782" x2="2" transform="translate(769.888 18297.5)" fill="none" stroke="#707070" stroke-linecap="round" stroke-width="2"/>
    <line id="Línea_1783" data-name="Línea 1783" x2="2" transform="translate(769.888 18302.5)" fill="none" stroke="#707070" stroke-linecap="round" stroke-width="2"/>
    <line id="Línea_1779" data-name="Línea 1779" x2="14" transform="translate(776.164 18297.5)" fill="none" stroke="#707070" stroke-linecap="round" stroke-width="2"/>
    <line id="Línea_1780" data-name="Línea 1780" x2="14" transform="translate(776.164 18302.5)" fill="none" stroke="#707070" stroke-linecap="round" stroke-width="2"/>
    <g id="Rectángulo_405304" data-name="Rectángulo 405304" transform="translate(845 18292)" fill="none" stroke="#707070" stroke-width="1">
      <rect width="20" height="14" rx="3" stroke="none"/>
      <rect x="0.5" y="0.5" width="19" height="13" rx="2.5" fill="none"/>
    </g>
    <rect id="Rectángulo_405305" data-name="Rectángulo 405305" width="572" height="181" rx="13" transform="translate(513 18345)" fill="#fff"/>
    <text id="__id_:_ObjectId_60d0247523be55b04809fa48_name_:_Santiago_position_:_Experto_office_:_Colombia_salary_:_1000___v_:_0_" data-name="  &quot;_id&quot;: ObjectId(&quot;60d0247523be55b04809fa48&quot;),
  &quot;name&quot;: &quot;Santiago&quot;,
  &quot;position&quot;: &quot;Experto&quot;,
  &quot;office&quot;: &quot;Colombia&quot;,
  &quot;salary&quot;: 1000,
  &quot;__v&quot;: 0
}" transform="translate(536 18361)" fill="#12263f" font-size="14" font-family="Roboto-Regular, Roboto"><tspan x="0" y="15" xml:space="preserve">  &quot;_id&quot;: </tspan><tspan y="15" fill="#e51051">ObjectId(&quot;60d0247523be55b04809fa48&quot;),</tspan><tspan x="0" y="38" xml:space="preserve">  &quot;name&quot;: </tspan><tspan y="38" fill="#0b47db">&quot;Santiago&quot;,</tspan><tspan x="0" y="61" xml:space="preserve">  &quot;position&quot;: </tspan><tspan y="61" fill="#0b47db">&quot;Experto&quot;,</tspan><tspan x="0" y="84" xml:space="preserve">  &quot;office&quot;: </tspan><tspan y="84" fill="#0b47db">&quot;Colombia&quot;,</tspan><tspan x="0" y="107" xml:space="preserve">  &quot;salary&quot;: 1000,</tspan><tspan x="0" y="130" xml:space="preserve">  &quot;__v&quot;: </tspan><tspan y="130" fill="#0b47db">0</tspan><tspan x="0" y="153">}</tspan></text>
    <rect id="Rectángulo_405306" data-name="Rectángulo 405306" width="610" height="91" transform="translate(495 18142)" fill="#ecf2ff"/>
    <text id="Documents_Aggregations_Schema_Explain_Plan_Indexes" data-name="Documents        Aggregations        Schema        Explain Plan        Indexes" transform="translate(515 18204)" fill="#12263f" font-size="16" font-family="Roboto-Regular, Roboto"><tspan x="0" y="17" xml:space="preserve">Documents        Aggregations        Schema        Explain Plan        Indexes</tspan></text>
    <text id="empleados.empleados" transform="translate(515 18151)" fill="#0b47db" font-size="16" font-family="Roboto-Regular, Roboto"><tspan x="0" y="17">empleados</tspan><tspan y="17" fill="#12263f">.empleados</tspan></text>
    <text id="DOCUMENTS_1" data-name="DOCUMENTS 1" transform="translate(915 18151)" fill="#636363" font-size="16" font-family="Roboto-Regular, Roboto"><tspan x="0" y="17">DOCUMENTS 1</tspan></text>
    <rect id="Rectángulo_405293" data-name="Rectángulo 405293" width="114" height="4" transform="translate(495 18233)" fill="#088b56"/>
    <rect id="Rectángulo_405294" data-name="Rectángulo 405294" width="495" height="4" transform="translate(610 18233)" fill="#e1e6f3"/>
  </g>
</svg>
