<svg xmlns="http://www.w3.org/2000/svg" width="295" height="242.955" viewBox="0 0 295 242.955">
  <g id="OBJECTS" transform="translate(-10 -16.3)">
    <g id="Grupo_1108069" data-name="Grupo 1108069" transform="translate(10 16.3)">
      <g id="Grupo_1108009" data-name="Grupo 1108009" transform="translate(40.532 27.836)">
        <path id="Trazado_902855" data-name="Trazado 902855" d="M337.268,64.9V220.167a10.483,10.483,0,0,1-10.488,10.488H251" transform="translate(-101.489 -54.412)" fill="none" stroke="#c370ff" stroke-miterlimit="10" stroke-width="1.335" stroke-dasharray="2.67 2.67"/>
        <path id="Trazado_902856" data-name="Trazado 902856" d="M61.4,204.9V62.088A10.483,10.483,0,0,1,71.888,51.6h75.938" transform="translate(-61.4 -51.6)" fill="none" stroke="#c370ff" stroke-miterlimit="10" stroke-width="1.335" stroke-dasharray="2.67 2.67"/>
      </g>
      <g id="Grupo_1108012" data-name="Grupo 1108012" transform="translate(45.815 33.041)">
        <g id="Grupo_1108010" data-name="Grupo 1108010" transform="translate(67.895 147.618)">
          <path id="Trazado_902857" data-name="Trazado 902857" d="M217.228,245.4h-32.41L164,300.2h73.967Z" transform="translate(-156.272 -245.4)" fill="#c1c9d9"/>
          <path id="Trazado_902858" data-name="Trazado 902858" d="M240.074,322.37H157.749L154.2,314.8h89.423Z" transform="translate(-154.2 -260.074)" fill="#dce6f2"/>
          <path id="Trazado_902859" data-name="Trazado 902859" d="M181.6,267.014,235.537,287.2,225.6,261.1H183.808Z" transform="translate(-159.993 -248.72)" fill="#a5acba"/>
        </g>
        <g id="Grupo_1108011" data-name="Grupo 1108011">
          <path id="Trazado_902860" data-name="Trazado 902860" d="M288.108,224.034H73.383a5.284,5.284,0,0,1-5.283-5.283V63.483A5.284,5.284,0,0,1,73.383,58.2H288.108a5.284,5.284,0,0,1,5.283,5.283V218.751A5.284,5.284,0,0,1,288.108,224.034Z" transform="translate(-68.1 -58.2)" fill="#c1c9d9"/>
          <path id="Trazado_902861" data-name="Trazado 902861" d="M213.539,65.569a3.518,3.518,0,0,1-3.47,3.549,3.509,3.509,0,0,1,0-7.018A3.4,3.4,0,0,1,213.539,65.569Z" transform="translate(-97.385 -59.024)" fill="#0a1d45"/>
          <rect id="Rectángulo_405353" data-name="Rectángulo 405353" width="134.922" height="199.979" transform="translate(212.636 12.69) rotate(90)" fill="#0a1d45"/>
        </g>
      </g>
      <g id="Grupo_1108014" data-name="Grupo 1108014" transform="translate(23.105 24.918)">
        <g id="Grupo_1108013" data-name="Grupo 1108013">
          <path id="Trazado_902862" data-name="Trazado 902862" d="M381.647,238.974a4.574,4.574,0,1,1-4.574-4.574A4.628,4.628,0,0,1,381.647,238.974Z" transform="translate(-109.752 -87.334)" fill="#0cba83"/>
          <path id="Trazado_902863" data-name="Trazado 902863" d="M48.447,52.474A4.574,4.574,0,1,1,43.874,47.9,4.682,4.682,0,0,1,48.447,52.474Z" transform="translate(-39.3 -47.9)" fill="#ed1e79"/>
          <path id="Trazado_902864" data-name="Trazado 902864" d="M135.447,269.974a4.574,4.574,0,1,1-4.574-4.574A4.527,4.527,0,0,1,135.447,269.974Z" transform="translate(-57.695 -93.888)" fill="#29abe2"/>
        </g>
      </g>
      <g id="Grupo_1108031" data-name="Grupo 1108031" transform="translate(63.716 51.099)">
        <g id="Grupo_1108016" data-name="Grupo 1108016">
          <path id="Trazado_902865" data-name="Trazado 902865" d="M221.992,94.9H102.683a5.284,5.284,0,0,0-5.283,5.283V218.467H227.2V100.183A5.168,5.168,0,0,0,221.992,94.9Z" transform="translate(-92.196 -84.018)" fill="#a5acba"/>
          <g id="Grupo_1108015" data-name="Grupo 1108015">
            <path id="Trazado_902866" data-name="Trazado 902866" d="M220.6,86.383a5.284,5.284,0,0,0-5.283-5.283H96.083A5.284,5.284,0,0,0,90.8,86.383v3.154H220.6V86.383Z" transform="translate(-90.8 -81.1)" fill="#0059d6"/>
            <rect id="Rectángulo_405354" data-name="Rectángulo 405354" width="129.797" height="115.13" transform="translate(0 8.438)" fill="#e4ebfd"/>
          </g>
        </g>
        <g id="Grupo_1108030" data-name="Grupo 1108030" transform="translate(5.441 16.008)">
          <g id="Grupo_1108017" data-name="Grupo 1108017" transform="translate(80.591 1.262)">
            <rect id="Rectángulo_405355" data-name="Rectángulo 405355" width="34.46" height="5.362" fill="#becbeb"/>
            <rect id="Rectángulo_405356" data-name="Rectángulo 405356" width="34.46" height="5.362" transform="translate(0 9.62)" fill="#becbeb"/>
            <rect id="Rectángulo_405357" data-name="Rectángulo 405357" width="34.46" height="5.362" transform="translate(0 19.162)" fill="#becbeb"/>
            <rect id="Rectángulo_405358" data-name="Rectángulo 405358" width="34.46" height="5.362" transform="translate(0 28.782)" fill="#becbeb"/>
            <rect id="Rectángulo_405359" data-name="Rectángulo 405359" width="34.46" height="5.362" transform="translate(0 38.403)" fill="#becbeb"/>
          </g>
          <g id="Grupo_1108020" data-name="Grupo 1108020" transform="translate(79.408 51.729)">
            <rect id="Rectángulo_405360" data-name="Rectángulo 405360" width="37.93" height="52.124" fill="none" stroke="#0068fa" stroke-miterlimit="10" stroke-width="0.668" stroke-dasharray="2.67 2.67"/>
            <g id="Grupo_1108019" data-name="Grupo 1108019" transform="translate(2.681 2.681)">
              <rect id="Rectángulo_405361" data-name="Rectángulo 405361" width="32.567" height="46.762" fill="#fff"/>
              <rect id="Rectángulo_405362" data-name="Rectángulo 405362" width="25.865" height="41.242" transform="translate(3.312 2.76)" fill="#2fcbe0"/>
              <g id="Grupo_1108018" data-name="Grupo 1108018" transform="translate(9.699 8.28)">
                <path id="Trazado_902867" data-name="Trazado 902867" d="M219.068,180.9h2.6l5.362,30.281h-2.445l-1.025-6.151h-6.072l-.946,6.151H214.1Zm4.179,22-2.76-17.112h0L217.964,202.9Z" transform="translate(-214.1 -180.9)"/>
              </g>
            </g>
          </g>
          <g id="Grupo_1108029" data-name="Grupo 1108029">
            <g id="Grupo_1108021" data-name="Grupo 1108021" transform="translate(1.183 51.256)">
              <rect id="Rectángulo_405363" data-name="Rectángulo 405363" width="71.601" height="5.362" fill="#becbeb"/>
              <rect id="Rectángulo_405364" data-name="Rectángulo 405364" width="71.601" height="5.362" transform="translate(0 10.567)" fill="#becbeb"/>
              <rect id="Rectángulo_405365" data-name="Rectángulo 405365" width="42.819" height="5.362" transform="translate(0 21.133)" fill="#becbeb"/>
              <rect id="Rectángulo_405366" data-name="Rectángulo 405366" width="33.829" height="5.362" transform="translate(0 31.7)" fill="#becbeb"/>
              <rect id="Rectángulo_405367" data-name="Rectángulo 405367" width="8.832" height="5.362" transform="translate(44.08 42.267)" fill="#ed1e79"/>
              <rect id="Rectángulo_405368" data-name="Rectángulo 405368" width="40.217" height="5.362" transform="translate(0 42.267)" fill="#becbeb"/>
              <rect id="Rectángulo_405369" data-name="Rectángulo 405369" width="17.348" height="5.362" transform="translate(46.21 21.133)" fill="#fbb03b"/>
              <rect id="Rectángulo_405370" data-name="Rectángulo 405370" width="32.646" height="5.362" transform="translate(38.955 31.7)" fill="#becbeb"/>
              <rect id="Rectángulo_405371" data-name="Rectángulo 405371" width="13.8" height="5.362" transform="translate(57.88 42.267)" fill="#becbeb"/>
            </g>
            <g id="Grupo_1108028" data-name="Grupo 1108028">
              <g id="Grupo_1108023" data-name="Grupo 1108023" transform="translate(6.151 5.599)">
                <rect id="Rectángulo_405372" data-name="Rectángulo 405372" width="61.744" height="36.037" fill="#0a1d45"/>
                <g id="Grupo_1108022" data-name="Grupo 1108022" transform="translate(4.574 3.943)">
                  <path id="Trazado_902868" data-name="Trazado 902868" d="M143.789,123.48,136.77,138.3l-10.882-23.1L111.3,146.033h29.1v-.158h14.036Z" transform="translate(-111.3 -113.859)" fill="#133785"/>
                  <path id="Trazado_902869" data-name="Trazado 902869" d="M169.641,113.5a5.441,5.441,0,1,0,5.441,5.441A5.452,5.452,0,0,0,169.641,113.5Z" transform="translate(-122.485 -113.5)" fill="#fbb03b"/>
                </g>
              </g>
              <g id="Grupo_1108027" data-name="Grupo 1108027">
                <rect id="Rectángulo_405373" data-name="Rectángulo 405373" width="71.601" height="44.79" transform="translate(1.183 1.262)" fill="none" stroke="#0068fa" stroke-miterlimit="10" stroke-width="0.668" stroke-dasharray="2.67 2.67"/>
                <g id="Grupo_1108026" data-name="Grupo 1108026">
                  <g id="Grupo_1108024" data-name="Grupo 1108024">
                    <rect id="Rectángulo_405374" data-name="Rectángulo 405374" width="2.445" height="2.445" transform="translate(71.601)" fill="#0a1d45"/>
                    <rect id="Rectángulo_405375" data-name="Rectángulo 405375" width="2.445" height="2.445" fill="#0a1d45"/>
                  </g>
                  <g id="Grupo_1108025" data-name="Grupo 1108025" transform="translate(0 44.869)">
                    <rect id="Rectángulo_405376" data-name="Rectángulo 405376" width="2.445" height="2.445" transform="translate(71.601)" fill="#0a1d45"/>
                    <rect id="Rectángulo_405377" data-name="Rectángulo 405377" width="2.445" height="2.445" fill="#0a1d45"/>
                  </g>
                </g>
              </g>
            </g>
          </g>
        </g>
      </g>
      <g id="Grupo_1108034" data-name="Grupo 1108034" transform="translate(202.423 55.357)">
        <rect id="Rectángulo_405378" data-name="Rectángulo 405378" width="47.156" height="47.156" fill="none" stroke="#0068fa" stroke-miterlimit="10" stroke-width="0.668" stroke-dasharray="2.67 2.67"/>
        <g id="Grupo_1108033" data-name="Grupo 1108033" transform="translate(4.179 4.179)">
          <rect id="Rectángulo_405379" data-name="Rectángulo 405379" width="38.797" height="38.797" fill="#103173"/>
          <g id="Grupo_1108032" data-name="Grupo 1108032" transform="translate(2.648 2.675)">
            <circle id="Elipse_12259" data-name="Elipse 12259" cx="11.828" cy="11.828" r="11.828" transform="translate(0 16.728) rotate(-45)" fill="#0a1d45"/>
            <path id="Trazado_902870" data-name="Trazado 902870" d="M293.3,107.2v14.588l9.384-7.334Z" transform="translate(-279.152 -97.731)" fill="#ed1e79"/>
          </g>
        </g>
      </g>
      <g id="Grupo_1108037" data-name="Grupo 1108037" transform="translate(179.397 17.033)">
        <path id="Trazado_902871" data-name="Trazado 902871" d="M242.3,58.3a11.275,11.275,0,0,0,11.2,10.015h58.2a11.269,11.269,0,0,0,11.2-10.015Z" transform="translate(-238.515 -42.213)" fill="#a5acba"/>
        <g id="Grupo_1108036" data-name="Grupo 1108036">
          <path id="Trazado_902872" data-name="Trazado 902872" d="M306.972,60.453h-58.2A11.274,11.274,0,0,1,237.5,49.176h0A11.274,11.274,0,0,1,248.776,37.9h58.2a11.274,11.274,0,0,1,11.276,11.276h0A11.274,11.274,0,0,1,306.972,60.453Z" transform="translate(-237.5 -37.9)" fill="#dce6f2"/>
          <g id="Grupo_1108035" data-name="Grupo 1108035" transform="translate(4.81 4.101)">
            <path id="Trazado_902873" data-name="Trazado 902873" d="M307.316,57.452h-56.54a7.2,7.2,0,0,1-7.176-7.176h0a7.2,7.2,0,0,1,7.176-7.176h56.54a7.2,7.2,0,0,1,7.176,7.176h0A7.2,7.2,0,0,1,307.316,57.452Z" transform="translate(-243.6 -43.1)" fill="#becbeb"/>
            <path id="Trazado_902874" data-name="Trazado 902874" d="M258.316,53.918l-2.445-2.287a3.538,3.538,0,0,0,.394-1.5,3.233,3.233,0,0,0-6.466,0,3.2,3.2,0,0,0,3.233,3.233,2.839,2.839,0,0,0,1.735-.552l2.445,2.287a.716.716,0,0,0,.552.237.614.614,0,0,0,.552-.237.852.852,0,0,0,.237-.552A.545.545,0,0,0,258.316,53.918ZM255,50.133a1.893,1.893,0,1,1-1.893-1.893A1.919,1.919,0,0,1,255,50.133Z" transform="translate(-244.911 -43.903)" fill="#e4ebfd"/>
          </g>
        </g>
      </g>
      <g id="Grupo_1108051" data-name="Grupo 1108051" transform="translate(201.713 115.051)">
        <path id="Trazado_902875" data-name="Trazado 902875" d="M338.365,179.8H282.929a2.12,2.12,0,0,0-2.129,2.129v32.883a2.12,2.12,0,0,0,2.129,2.129h55.436Z" transform="translate(-268.972 -165.921)" fill="#a5acba"/>
        <g id="Grupo_1108050" data-name="Grupo 1108050">
          <g id="Grupo_1108043" data-name="Grupo 1108043">
            <g id="Grupo_1108039" data-name="Grupo 1108039" transform="translate(1.183 1.183)">
              <g id="Grupo_1108038" data-name="Grupo 1108038">
                <path id="Trazado_902876" data-name="Trazado 902876" d="M372.525,218.8v1.025H371.5" transform="translate(-289.332 -175.35)" fill="none" stroke="#0068fa" stroke-miterlimit="10" stroke-width="0.668"/>
                <line id="Línea_1839" data-name="Línea 1839" x1="77.91" transform="translate(2.129 44.475)" fill="none" stroke="#0068fa" stroke-miterlimit="10" stroke-width="0.668" stroke-dasharray="2.636 2.636"/>
                <path id="Trazado_902877" data-name="Trazado 902877" d="M268.4,219.825h-1.1V218.8" transform="translate(-267.3 -175.35)" fill="none" stroke="#0068fa" stroke-miterlimit="10" stroke-width="0.668"/>
                <line id="Línea_1840" data-name="Línea 1840" y1="39.27" transform="translate(0 2.129)" fill="none" stroke="#0068fa" stroke-miterlimit="10" stroke-width="0.668" stroke-dasharray="2.557 2.557"/>
                <path id="Trazado_902878" data-name="Trazado 902878" d="M267.3,164.8v-1.1h1.1" transform="translate(-267.3 -163.7)" fill="none" stroke="#0068fa" stroke-miterlimit="10" stroke-width="0.668"/>
                <line id="Línea_1841" data-name="Línea 1841" x2="77.91" transform="translate(3.154)" fill="none" stroke="#0068fa" stroke-miterlimit="10" stroke-width="0.668" stroke-dasharray="2.636 2.636"/>
                <path id="Trazado_902879" data-name="Trazado 902879" d="M371.5,163.7h1.025v1.1" transform="translate(-289.332 -163.7)" fill="none" stroke="#0068fa" stroke-miterlimit="10" stroke-width="0.668"/>
                <line id="Línea_1842" data-name="Línea 1842" y2="39.349" transform="translate(83.193 3.075)" fill="none" stroke="#0068fa" stroke-miterlimit="10" stroke-width="0.668" stroke-dasharray="2.557 2.557"/>
              </g>
            </g>
            <g id="Grupo_1108042" data-name="Grupo 1108042">
              <g id="Grupo_1108040" data-name="Grupo 1108040">
                <rect id="Rectángulo_405380" data-name="Rectángulo 405380" width="2.445" height="2.445" transform="translate(83.114)" fill="#dce6f2"/>
                <rect id="Rectángulo_405381" data-name="Rectángulo 405381" width="2.445" height="2.445" fill="#dce6f2"/>
              </g>
              <g id="Grupo_1108041" data-name="Grupo 1108041" transform="translate(0 44.475)">
                <rect id="Rectángulo_405382" data-name="Rectángulo 405382" width="2.445" height="2.445" transform="translate(83.114)" fill="#dce6f2"/>
                <rect id="Rectángulo_405383" data-name="Rectángulo 405383" width="2.445" height="2.445" fill="#dce6f2"/>
              </g>
            </g>
          </g>
          <g id="Grupo_1108049" data-name="Grupo 1108049" transform="translate(4.889 4.81)">
            <path id="Trazado_902880" data-name="Trazado 902880" d="M345.73,205.441h-71.6A2.12,2.12,0,0,1,272,203.312V170.429a2.12,2.12,0,0,1,2.129-2.129h71.6a2.12,2.12,0,0,1,2.129,2.129v32.883A2.17,2.17,0,0,1,345.73,205.441Z" transform="translate(-272 -168.3)" fill="#dce6f2"/>
            <g id="Grupo_1108048" data-name="Grupo 1108048" transform="translate(5.678 5.678)">
              <g id="Grupo_1108046" data-name="Grupo 1108046" transform="translate(22.474)">
                <g id="Grupo_1108044" data-name="Grupo 1108044">
                  <rect id="Rectángulo_405384" data-name="Rectángulo 405384" width="23.42" height="4.574" fill="#becbeb"/>
                  <rect id="Rectángulo_405385" data-name="Rectángulo 405385" width="29.886" height="4.574" transform="translate(0 7.57)" fill="#becbeb"/>
                  <rect id="Rectángulo_405386" data-name="Rectángulo 405386" width="12.696" height="4.574" transform="translate(32.489 7.57)" fill="#e43438"/>
                  <rect id="Rectángulo_405387" data-name="Rectángulo 405387" width="6.545" height="4.574" transform="translate(31.713 4.627) rotate(180)" fill="#becbeb"/>
                  <rect id="Rectángulo_405388" data-name="Rectángulo 405388" width="10.172" height="4.574" transform="translate(43.501 4.627) rotate(180)" fill="#becbeb"/>
                </g>
                <g id="Grupo_1108045" data-name="Grupo 1108045" transform="translate(0 15.082)">
                  <rect id="Rectángulo_405389" data-name="Rectángulo 405389" width="23.42" height="4.574" transform="translate(0 0.058)" fill="#becbeb"/>
                  <rect id="Rectángulo_405390" data-name="Rectángulo 405390" width="45.106" height="4.574" transform="translate(0 7.55)" fill="#becbeb"/>
                  <rect id="Rectángulo_405391" data-name="Rectángulo 405391" width="6.545" height="4.574" transform="translate(31.713 4.574) rotate(180)" fill="#ed1e79"/>
                  <rect id="Rectángulo_405392" data-name="Rectángulo 405392" width="10.172" height="4.574" transform="translate(43.501 4.574) rotate(180)" fill="#becbeb"/>
                </g>
              </g>
              <g id="Grupo_1108047" data-name="Grupo 1108047" transform="translate(0 0.867)">
                <path id="Trazado_902881" data-name="Trazado 902881" d="M287.891,176.6h0a7.488,7.488,0,0,0-7.491,7.491v2.366h2.366v-2.6a5.115,5.115,0,0,1,5.126-5.126h0a5.115,5.115,0,0,1,5.126,5.126v2.6h2.366v-2.366A7.438,7.438,0,0,0,287.891,176.6Z" transform="translate(-279.454 -176.6)" fill="#0a1d45"/>
                <path id="Trazado_902882" data-name="Trazado 902882" d="M295.129,189.2h-14.9a1.044,1.044,0,0,0-1.025,1.025v12.223a1.044,1.044,0,0,0,1.025,1.025h14.9a1.044,1.044,0,0,0,1.025-1.025V190.225A.994.994,0,0,0,295.129,189.2Zm-6.308,9.778h-2.287l.315-2.523a1.606,1.606,0,0,1-.71-1.262,1.577,1.577,0,0,1,3.154,0,1.493,1.493,0,0,1-.71,1.262Z" transform="translate(-279.2 -179.264)" fill="#fbbf62"/>
              </g>
            </g>
          </g>
        </g>
      </g>
      <g id="Grupo_1108068" data-name="Grupo 1108068">
        <path id="Trazado_902883" data-name="Trazado 902883" d="M284.615,239.6c-13.169,0-23.815,7.018-23.815,15.613,0,6.782,6.624,12.538,15.771,14.667V280.29l9.542-9.542c12.459-.473,22.316-7.255,22.316-15.535C308.429,246.539,297.783,239.6,284.615,239.6Zm-10.488,18.925a3.312,3.312,0,1,1,3.312-3.312A3.332,3.332,0,0,1,274.127,258.525Zm10.488,0a3.312,3.312,0,1,1,3.312-3.312A3.332,3.332,0,0,1,284.615,258.525Zm10.409,0a3.312,3.312,0,1,1,3.312-3.312A3.332,3.332,0,0,1,295.023,258.525Z" transform="translate(-63.029 -63.515)" fill="#e43438"/>
        <g id="Grupo_1108059" data-name="Grupo 1108059" transform="translate(68.21)">
          <g id="Grupo_1108053" data-name="Grupo 1108053" transform="translate(43.528 1.498)">
            <g id="Grupo_1108052" data-name="Grupo 1108052">
              <path id="Trazado_902884" data-name="Trazado 902884" d="M171.335,30.107V25.928l-2.681-.552h0c-.079-.158-.158-.394-.237-.552h0l1.5-2.287L167,19.619l-2.287,1.5h0c-.158-.079-.394-.158-.552-.237h0l-.552-2.681h-4.179l-.552,2.681h0c-.158.079-.394.158-.552.237h0l-2.287-1.5-2.918,2.918,1.5,2.287h0c-.079.158-.158.394-.237.552h0l-2.681.552v4.179l2.681.552h0c.079.158.158.394.237.552h0l-1.5,2.287,2.918,2.918,2.287-1.5h0c.158.079.394.158.552.237h0l.552,2.681h4.179l.552-2.681h0c.158-.079.394-.158.552-.237h0l2.287,1.5,2.918-2.918-1.5-2.287h0c.079-.158.158-.394.237-.552h0Zm-9.778,1.814a3.864,3.864,0,1,1,3.864-3.864A3.87,3.87,0,0,1,161.557,31.921Z" transform="translate(-151.7 -18.2)" fill="#0059d6"/>
            </g>
          </g>
          <g id="Grupo_1108058" data-name="Grupo 1108058">
            <g id="Grupo_1108055" data-name="Grupo 1108055" transform="translate(6.782 33.119)">
              <g id="Grupo_1108054" data-name="Grupo 1108054">
                <path id="Trazado_902885" data-name="Trazado 902885" d="M105.1,58.3l5.6,5.6,4.416-2.918h0c.394.158.71.315,1.1.473h0l1.025,5.2h8.122l1.025-5.2h0c.394-.158.789-.315,1.1-.473h0l4.416,2.918,5.6-5.6H105.1Z" transform="translate(-105.1 -58.3)" fill="#a5acba"/>
              </g>
            </g>
            <g id="Grupo_1108057" data-name="Grupo 1108057">
              <g id="Grupo_1108056" data-name="Grupo 1108056">
                <path id="Trazado_902886" data-name="Trazado 902886" d="M134.824,39.484V31.361l-5.2-1.025h0c-.158-.394-.315-.789-.473-1.1h0l2.918-4.416-5.756-5.756-4.416,2.918h0c-.394-.158-.71-.315-1.1-.473h0l-1.025-5.2H111.64l-1.025,5.2h0c-.394.158-.789.315-1.1.473h0L105.1,19.06,99.26,24.738l2.918,4.416h0c-.158.394-.315.71-.473,1.1h0l-5.2,1.025V39.4l5.2,1.025h0c.158.394.315.789.473,1.1h0L99.26,45.95l5.756,5.756,4.416-2.918h0c.394.158.71.315,1.1.473h0l1.025,5.2h8.122l1.025-5.2h0c.394-.158.789-.315,1.1-.473h0l4.416,2.918,5.756-5.756-2.918-4.416h0c.158-.394.315-.71.473-1.1h0Zm-19.162,3.549a7.57,7.57,0,1,1,7.57-7.57A7.572,7.572,0,0,1,115.662,43.032Z" transform="translate(-96.5 -16.3)" fill="#0cba83"/>
              </g>
            </g>
          </g>
        </g>
        <g id="Grupo_1108067" data-name="Grupo 1108067" transform="translate(0 135.001)">
          <g id="Grupo_1108066" data-name="Grupo 1108066">
            <path id="Trazado_902887" data-name="Trazado 902887" d="M100.946,193.4H68.3v36.9h32.646c1.183,0,2.129-.631,2.129-1.419V194.819C103,194.031,102.05,193.4,100.946,193.4Z" transform="translate(-22.327 -188.748)" fill="#a5acba"/>
            <g id="Grupo_1108065" data-name="Grupo 1108065">
              <path id="Trazado_902888" data-name="Trazado 902888" d="M84.44,223.458H11.735A1.75,1.75,0,0,1,10,221.723V189.235a1.75,1.75,0,0,1,1.735-1.735H84.44a1.75,1.75,0,0,1,1.735,1.735v32.489A1.75,1.75,0,0,1,84.44,223.458Z" transform="translate(-10 -187.5)" fill="#dce6f2"/>
              <g id="Grupo_1108064" data-name="Grupo 1108064" transform="translate(6.151 4.495)">
                <g id="Grupo_1108060" data-name="Grupo 1108060" transform="translate(30.795 0.303)">
                  <rect id="Rectángulo_405393" data-name="Rectángulo 405393" width="33.041" height="4.652" transform="translate(33.07 25.697) rotate(180)" fill="#becbeb"/>
                  <rect id="Rectángulo_405394" data-name="Rectángulo 405394" width="33.041" height="4.652" transform="translate(33.07 18.682) rotate(180)" fill="#becbeb"/>
                  <rect id="Rectángulo_405395" data-name="Rectángulo 405395" width="20.187" height="4.652" transform="translate(20.187 11.667) rotate(180)" fill="#becbeb"/>
                  <rect id="Rectángulo_405396" data-name="Rectángulo 405396" width="9.305" height="4.652" transform="translate(33.08 11.667) rotate(180)" fill="#0cba83"/>
                  <rect id="Rectángulo_405397" data-name="Rectángulo 405397" width="33.041" height="4.652" transform="translate(33.07 4.652) rotate(180)" fill="#becbeb"/>
                </g>
                <g id="Grupo_1108063" data-name="Grupo 1108063">
                  <g id="Grupo_1108062" data-name="Grupo 1108062">
                    <rect id="Rectángulo_405398" data-name="Rectángulo 405398" width="26.101" height="26.101" fill="#0059d6"/>
                    <g id="Grupo_1108061" data-name="Grupo 1108061" transform="translate(4.574 8.201)">
                      <path id="Trazado_902889" data-name="Trazado 902889" d="M23.6,209.249v-1.262l5.126-2.287v1.341l-3.864,1.577,3.864,1.577v1.341Z" transform="translate(-23.6 -204.044)" fill="#fff"/>
                      <path id="Trazado_902890" data-name="Trazado 902890" d="M34.685,203.6H36.42l-3.785,9.068H30.9Z" transform="translate(-25.144 -203.6)" fill="#fff"/>
                      <path id="Trazado_902891" data-name="Trazado 902891" d="M38.6,210.095l3.864-1.577L38.6,206.941V205.6l5.126,2.287v1.262L38.6,211.435Z" transform="translate(-26.772 -204.023)" fill="#fff"/>
                    </g>
                  </g>
                </g>
              </g>
            </g>
          </g>
        </g>
      </g>
    </g>
  </g>
</svg>
